<svg xmlns="http://www.w3.org/2000/svg" version="1.1" viewBox="0 0 32 32">
    <path
       style="fill:#fed2a3"
       d="M 3.4270704,20.999383 C 3.3869591,15.499723 3.7063954,11 4.1369289,11 c 0.4305334,0 1.2926304,1.9125 1.915771,4.25 1.6480907,6.182252 2.3927583,7.25 5.0562861,7.25 3.765478,0 3.75203,-4.029401 -0.02577,-7.722904 C 8.9498356,12.691325 7.9952826,10.798022 7.9846872,8.6313425 7.9670581,5.0263182 7.2910134,3.7776289 4.5,2.1949455 2.9359034,1.3080025 5.6058116,1.0541897 16.75,1.0304087 L 31,1 31,4.3775553 C 31,8.3444986 29.563911,9.7918684 24.904692,10.520744 22.042503,10.968497 21.858514,10.894908 23.75,10.058906 26.513826,8.8373468 26.691869,5.4406445 24.065741,4.0351838 21.594223,2.7124671 12,2.6798732 12,3.9941935 c 0,0.5468064 2.025,3.0482736 4.5,5.558816 5.843425,5.9273405 6.022974,9.0893295 0.75,13.2080745 -3.4998,2.733709 -12.4140023,8.239681 -13.3378575,8.238299 -0.2266784,-3.39e-4 -0.4449608,-4.500339 -0.4850721,-10 z" />
    <path
       style="fill:#febd8e"
       d="m 3.5084196,21.455105 c 0.00463,-5.117903 0.3109412,-9.607799 0.6806898,-9.977548 0.3697486,-0.369748 1.1952384,1.284041 1.8344218,3.675087 C 7.7045483,21.440963 8.437558,22.5 11.108986,22.5 c 3.764349,0 3.729196,-4.322788 -0.06471,-7.957581 C 8.9621426,12.547609 7.9951604,10.657786 7.9846872,8.5629088 7.9670047,5.0259963 7.2806575,3.7717564 4.5,2.1949455 2.9359034,1.3080025 5.6058116,1.0541897 16.75,1.0304087 L 31,1 31,4.3775553 C 31,8.2559879 29.524965,9.8328544 25.404692,10.359146 23.807112,10.563208 23.2875,10.534582 24.25,10.295533 25.39907,10.010147 26,8.8946649 26,7.0470804 26,3.8048003 24.234983,3.0351715 16.75,3.0136547 10.706591,2.9962819 10.658909,4.2876497 16.5,9.7843293 22.386431,15.323676 22.577599,18.61938 17.25,22.714237 12.432773,26.416817 8.5652157,28.834609 5.7438265,29.907289 3.5180224,30.75353 3.5000676,30.685642 3.5084196,21.455105 z" />
    <path
       style="fill:#fe9869"
       d="M 3.6725787,21.122941 C 3.767497,15.830323 3.9261618,11.275 4.0251672,11 c 0.099005,-0.275 0.9710271,1.957295 1.937826,4.960655 1.8646169,5.792431 3.7308627,7.754537 6.4010838,6.729877 C 14.954224,21.6966 14.278847,17.641335 11,14.5 8.9579406,12.543583 7.9951104,10.647789 7.9846872,8.5629088 7.9669777,5.0206034 7.2754995,3.7609966 4.5,2.2151515 2.9546395,1.354446 5.7393068,1.0963213 16.75,1.0796381 L 31,1.0580468 l 0,2.779847 c 0,3.7914216 -1.916858,6.0615801 -5.5,6.5137192 -1.65,0.208205 -2.2125,0.182969 -1.25,-0.05608 C 25.39907,10.010147 26,8.8946649 26,7.0470804 26,3.8048003 24.234983,3.0351715 16.75,3.0136547 10.694768,2.9962479 10.646901,4.3131353 16.5,9.8914966 23.761966,16.812594 22.385642,20.566617 10,27.620717 3.2218981,31.481107 3.4820237,31.748236 3.6725787,21.122941 z" />
    <path
       style="fill:#fe7243"
       d="m 3.5704886,21.012308 c 0.038769,-4.94264 0.3135295,-9.229659 0.6105796,-9.52671 0.2970501,-0.29705 1.3086646,2.199085 2.2480322,5.546966 1.5903085,5.667817 1.8926253,6.065719 4.3894206,5.777246 4.127334,-0.47686 4.26201,-5.029723 0.248675,-8.406722 C 8.6149349,12.339646 8,11.044487 8,7.9430436 8,4.7389629 7.5214199,3.8046707 5.25,2.5744464 2.7161558,1.2020906 3.6004296,1.1013276 16.5,1.2925092 L 30.5,1.5 30.792386,4.0009045 C 31.189882,7.4008677 29.110541,9.8960166 25.5,10.351613 23.85,10.559818 23.2875,10.534582 24.25,10.295533 26.512744,9.7335515 26.64533,4.461614 24.418213,3.6069888 21.562288,2.5110676 12,2.9263449 12,4.146295 c 0,0.6304623 2.025,3.3111839 4.5,5.957159 5.631876,6.020931 5.777602,8.535108 0.729834,12.591605 C 13.536242,25.66331 5.8527216,30.000525 4.2898381,29.999464 3.8554271,29.999168 3.5317198,25.954949 3.5704886,21.012308 z" />
    <path
       style="fill:#fe5627"
       d="M 3.7759675,23.252098 C 4.3090553,10.209038 4.3816787,9.9574554 5.8694012,16 c 1.4584604,5.923694 3.3515025,8.220964 5.9777978,7.254258 3.992208,-1.469481 3.594959,-5.169882 -0.967098,-9.0086 C 8.6180904,12.342302 8,10.989715 8,7.9430436 8,4.8437167 7.5081161,3.8061624 5.5532218,2.7819373 3.4530605,1.6816025 5.0113135,1.5 16.552974,1.5 l 13.446531,0 2.48e-4,3.7747508 c 2.07e-4,3.1638834 -0.428841,3.93789 -2.651231,4.7828412 -1.458312,0.554449 -3.145812,0.803838 -3.75,0.554196 -0.604187,-0.249641 -0.359167,-0.48942 0.544489,-0.532841 0.903656,-0.04342 1.916156,-0.7907514 2.25,-1.6607345 0.812426,-2.1171483 0.82823,-2.0541148 -0.96444,-3.8467839 C 23.561877,2.704734 12,2.301482 12,4.1030705 c 0,0.6066888 2.025,3.3553579 4.5,6.1081535 5.867204,6.525743 5.826521,8.653353 -0.25,13.074215 -4.850699,3.529039 -10.5154446,6.712895 -11.9503401,6.716659 -0.4398129,0.0012 -0.6754745,-3.036346 -0.5236924,-6.75 z" />
    <path
       style="fill:#fe390a"
       d="m 4.1561294,20.25 0.039514,-9.75 1.6784913,5.802737 c 2.1147936,7.311084 4.4641293,9.216142 7.5544363,6.125834 C 15.74076,20.116383 15.389022,18.707365 11.5,14.702967 8.8463303,11.97057 8,10.248539 8,7.5815031 8,4.8653764 7.442347,3.7717814 5.5525744,2.7819373 3.4517999,1.6815724 5.0097682,1.5 16.552142,1.5 l 13.446992,0 4.33e-4,3.6430112 c 2.85e-4,2.3997535 -0.539387,3.8501595 -1.581354,4.25 C 26.031283,10.308962 25.812895,10.164877 26.466556,8.1053724 27.512898,4.8086418 24.48821,3 17.928571,3 14.273548,3 12,3.4230166 12,4.1030705 c 0,0.6066888 2.025,3.3553579 4.5,6.1081535 5.896242,6.55804 5.835729,8.64154 -0.380695,13.107595 C 11.523762,26.620388 5.7008615,30 4.6079674,30 4.3377236,30 4.1343965,25.6125 4.1561294,20.25 z" />
    <path
       style="fill:#c50000"
       d="m 4.3785441,20.75 -0.051159,-9.25 1.4479992,5 c 2.205143,7.614449 4.3250867,9.256672 7.6531867,5.928571 2.29884,-2.298839 1.972245,-3.600148 -1.988901,-7.924711 C 8.918748,11.751654 8.0350154,9.9966234 8.4125825,8.4922762 8.7058661,7.3237414 8.2574979,5.3849423 7.4162087,4.1838337 L 5.8865921,2 17.943296,2 30,2 30,5.3930112 c 0,2.1714918 -0.56946,3.6115335 -1.581787,4 C 26.161955,10.258819 26.12781,10.227258 26.749356,7.8504615 27.587253,4.646341 24.552678,3 17.80887,3 c -6.961584,0 -7.457913,1.2820936 -2.358393,6.0920904 1.897762,1.7900176 4.008502,4.6017706 4.690534,6.2483396 1.192097,2.877977 1.069299,3.145296 -3.175055,6.911831 C 13.673943,25.173667 5.9253037,30 4.5270223,30 4.4734969,30 4.4066817,25.8375 4.3785441,20.75 z" />
</svg>
