<?xml version="1.0" encoding="UTF-8"?>
<svg width="512" height="512" version="1.1" viewBox="0 0 512 512" xmlns="http://www.w3.org/2000/svg"><!--! Font Awesome Pro 6.2.1 by @fontawesome - https://fontawesome.com License - https://fontawesome.com/license (Commercial License) Copyright 2022 Fonticons, Inc. --><path d="m128 0c-53 0-96 43-96 96v320c0 53 43 96 96 96h320c17.7 0 32-14.3 32-32s-14.3-32-32-32v-64c17.7 0 32-14.3 32-32v-320c0-17.7-14.3-32-32-32h-32zm0 384h256v64h-256c-17.7 0-32-14.3-32-32s14.3-32 32-32zm32-240c0-8.8 7.2-16 16-16h192c8.8 0 16 7.2 16 16s-7.2 16-16 16h-192c-8.8 0-16-7.2-16-16zm16 48h192c8.8 0 16 7.2 16 16s-7.2 16-16 16h-192c-8.8 0-16-7.2-16-16s7.2-16 16-16z" fill="var(--invert)"/></svg>
