<?xml version="1.0" encoding="UTF-8"?>
<svg width="10" height="10" version="1.1" viewBox="0 0 10 10" xmlns="http://www.w3.org/2000/svg"><!--! Font Awesome Pro 6.3.0 by @fontawesome - https://fontawesome.com License - https://fontawesome.com/license (Commercial License) Copyright 2023 Fonticons, Inc. --><path d="m6.25 0c-0.3457 0-0.625 0.2793-0.625 0.625 0 0.3457 0.2793 0.625 0.625 0.625h1.6152l-3.9316 3.9336c-0.24414 0.24414-0.24414 0.64062 0 0.88477 0.24414 0.24414 0.64062 0.24414 0.88477 0l3.9316-3.9336v1.6152c0 0.3457 0.2793 0.625 0.625 0.625s0.625-0.2793 0.625-0.625v-3.125c0-0.3457-0.2793-0.625-0.625-0.625zm-4.6875 0.625c-0.86328 0-1.5625 0.69922-1.5625 1.5625v6.25c0 0.86328 0.69922 1.5625 1.5625 1.5625h6.25c0.86328 0 1.5625-0.69922 1.5625-1.5625v-2.1875c0-0.3457-0.2793-0.625-0.625-0.625s-0.625 0.2793-0.625 0.625v2.1875c0 0.17188-0.14062 0.3125-0.3125 0.3125h-6.25c-0.17188 0-0.3125-0.14062-0.3125-0.3125v-6.25c0-0.17188 0.14062-0.3125 0.3125-0.3125h2.1875c0.3457 0 0.625-0.2793 0.625-0.625 0-0.3457-0.2793-0.625-0.625-0.625z" fill="#06f" stroke-width=".019531"/></svg>
