<?xml version="1.0" encoding="UTF-8"?>
<!-- Generator: Adobe Illustrator 18.0.0, SVG Export Plug-In . SVG Version: 6.00 Build 0)  -->
<svg enable-background="new 0 0 470.767 470.767" version="1.1" viewBox="0 0 470.77 470.77" xmlns="http://www.w3.org/2000/svg"><path d="m362.96 21.384h-73.345l-2.982-13.394c-1.024-4.667-5.171-7.99-9.953-7.99h-82.618c-4.782 0-8.913 3.323-9.953 7.99l-2.967 13.394h-73.36c-26.835 0-48.654 21.827-48.654 48.662v352.06c0 26.835 21.819 48.662 48.654 48.662h255.18c26.835 0 48.67-21.827 48.67-48.662v-352.06c-1e-3 -26.835-21.836-48.662-48.671-48.662zm16.866 400.72c0 9.295-7.563 16.858-16.866 16.858h-255.18c-9.287 0-16.85-7.563-16.85-16.858v-352.06c0-9.295 7.563-16.857 16.85-16.857h66.294l-1.692 7.609c-0.684 3.02 0.062 6.188 1.988 8.596 1.94 2.415 4.876 3.82 7.965 3.82h106.08c3.091 0 6.026-1.405 7.951-3.82 1.942-2.415 2.687-5.575 2.004-8.596l-1.692-7.609h66.279c9.303 0 16.866 7.563 16.866 16.857v352.06z"/><path d="m170.84 188.43h43.249l-10.279-7.019c-14.506-9.899-18.232-29.693-8.325-44.197 9.893-14.489 29.693-18.239 44.197-8.324l1.694 1.157v-12.136c0-7.866-6.383-14.248-14.242-14.248h-56.294c-7.857 0-14.24 6.383-14.24 14.248v56.271c0 7.867 6.383 14.248 14.24 14.248z"/><path d="m303.26 110.31-49.85 47.194-22.704-15.49c-7.221-4.962-17.13-3.083-22.099 4.162-4.954 7.251-3.09 17.144 4.178 22.098l33.28 22.727c2.718 1.864 5.839 2.772 8.961 2.772 3.96 0 7.888-1.474 10.933-4.356l59.167-56.014c6.382-6.033 6.645-16.104 0.62-22.479-6.056-6.375-16.105-6.647-22.486-0.614z"/><path d="m170.84 297.67h43.265l-10.295-7.027c-14.506-9.901-18.232-29.693-8.325-44.197 9.893-14.498 29.693-18.248 44.197-8.325l1.694 1.158v-12.136c0-7.865-6.383-14.248-14.242-14.248h-56.294c-7.857 0-14.24 6.383-14.24 14.248v56.279c0 7.865 6.383 14.248 14.24 14.248z"/><path d="m303.26 219.56-49.85 47.186-22.704-15.49c-7.221-4.97-17.13-3.098-22.099 4.162-4.954 7.253-3.09 17.144 4.178 22.099l33.28 22.727c2.718 1.864 5.839 2.772 8.961 2.772 3.96 0 7.888-1.476 10.933-4.356l59.167-56.007c6.382-6.033 6.645-16.096 0.62-22.479-6.056-6.376-16.105-6.64-22.486-0.614z"/><path d="m227.13 322.14h-56.294c-7.857 0-14.24 6.383-14.24 14.248v56.271c0 7.865 6.383 14.248 14.24 14.248h56.294c7.859 0 14.242-6.383 14.242-14.248v-56.271c0-7.865-6.383-14.248-14.242-14.248z"/></svg>
