<?xml version="1.0" encoding="UTF-8"?>
<!-- Uploaded to: SVG Repo, www.svgrepo.com, Generator: SVG Repo Mixer Tools -->
<svg width="512" height="512" enable-background="new 0 0 76.00 76.00" version="1.1" viewBox="0 0 48.64 48.64" xml:space="preserve" xmlns="http://www.w3.org/2000/svg">
<path d="m4.5284 34.612h6.6082c3.0442 3.4012 7.468 5.5416 12.392 5.5416s9.3476-2.1404 12.392-5.5416h8.1915v11.083h-39.583zm37.208 2.375h-2.7709v4.75h2.7709zm-16.625-15.042-9.5-9.5 9.5-9.5v6.4203c7.1249 0.7876 12.667 6.8282 12.667 14.163 0 7.8701-6.3799 14.25-14.25 14.25s-14.25-6.3799-14.25-14.25c0-2.8159 0.8168-5.441 2.2263-7.6514l4.6759 2.9756c-0.8614 1.3508-1.3605 2.955-1.3605 4.6758 0 4.8095 3.8988 8.7084 8.7083 8.7084s8.7083-3.8989 8.7083-8.7084c0-4.2687-3.0715-7.8201-7.125-8.5647z" stroke-linejoin="round" stroke-width=".2" fill="var(--invert)"/>
</svg>
