<?xml version="1.0" encoding="UTF-8"?>
<svg width="512" height="512" version="1.1" viewBox="0 0 512 512" xmlns="http://www.w3.org/2000/svg"><!--! Font Awesome Pro 6.2.1 by @fontawesome - https://fontawesome.com License - https://fontawesome.com/license (Commercial License) Copyright 2022 Fonticons, Inc. --><path d="m416 32c35.3 0 64 28.65 64 64v320c0 35.3-28.7 64-64 64h-320c-35.35 0-64-28.7-64-64v-320c0-35.35 28.65-64 64-64zm0 48h-320c-8.84 0-16 7.16-16 16v320c0 8.8 7.16 16 16 16h320c8.8 0 16-7.2 16-16v-320c0-8.84-7.2-16-16-16z" fill="var(--invert)"/></svg>
