<?xml version="1.0" encoding="UTF-8"?>
<svg width="512" height="512" version="1.1" viewBox="0 0 512 512" xmlns="http://www.w3.org/2000/svg"><!--! Font Awesome Pro 6.3.0 by @fontawesome - https://fontawesome.com License - https://fontawesome.com/license (Commercial License) Copyright 2023 Fonticons, Inc. --><path d="m167.2 17.7c5.4-10.9 16.5-17.7 28.6-17.7h120.4c12.1 0 23.2 6.8 28.6 17.7l7.2 14.3h96c17.7 0 32 14.3 32 32s-14.3 32-32 32h-384c-17.7 0-32-14.3-32-32s14.3-32 32-32h96zm-103.2 110.3h384v320c0 35.3-28.7 64-64 64h-256c-35.3 0-64-28.7-64-64zm96 64c-8.8 0-16 7.2-16 16v224c0 8.8 7.2 16 16 16s16-7.2 16-16v-224c0-8.8-7.2-16-16-16zm96 0c-8.8 0-16 7.2-16 16v224c0 8.8 7.2 16 16 16s16-7.2 16-16v-224c0-8.8-7.2-16-16-16zm96 0c-8.8 0-16 7.2-16 16v224c0 8.8 7.2 16 16 16s16-7.2 16-16v-224c0-8.8-7.2-16-16-16z" fill="var(--invert)"/></svg>
