<?xml version="1.0" encoding="UTF-8"?>
<svg version="1.1" viewBox="0 0 512 512" xmlns="http://www.w3.org/2000/svg" xmlns:xlink="http://www.w3.org/1999/xlink"><defs><radialGradient id="radialGradient6763" cx="256.02" cy="256" r="255.98" gradientTransform="matrix(1 0 0 .87506 0 31.984)" gradientUnits="userSpaceOnUse"><stop stop-color="#fdde00" offset="0"/><stop stop-color="#ffbc00" offset="1"/></radialGradient></defs><g><!--! Font Awesome Pro 6.2.1 by @fontawesome - https://fontawesome.com License - https://fontawesome.com/license (Commercial License) Copyright 2022 Fonticons, Inc. --><path d="M256 32c14.2 0 27.3 7.5 34.5 19.8l216 368c7.3 12.4 7.3 27.7 .2 40.1S486.3 480 472 480H40c-14.3 0-27.6-7.7-34.7-20.1s-7-27.8 .2-40.1l216-368C228.7 39.5 241.8 32 256 32zm0 128c-13.3 0-24 10.7-24 24V296c0 13.3 10.7 24 24 24s24-10.7 24-24V184c0-13.3-10.7-24-24-24zm32 224c0-17.7-14.3-32-32-32s-32 14.3-32 32s14.3 32 32 32s32-14.3 32-32z" fill="url(#radialGradient6763)"/><path d="m250.29 318.97c-7.3058-1.9673-12.588-6.3536-15.789-13.112l-1.9675-4.1533v-123.55l1.9732-4.008c3.675-7.4649 10.308-12.47 17.807-13.435 10.996-1.416 20.324 3.5597 25.185 13.435l1.9732 4.008v123.55l-1.7152 3.6625c-3.3798 7.2171-8.6626 11.661-16.171 13.604-4.4467 1.1507-7.0173 1.1503-11.296-2e-3z" stroke="#000" stroke-width=".61761"/><path d="m247.66 414.53c-9.6895-2.5327-18.304-10.589-21.64-20.237-7.0718-20.457 8.2592-41.87 29.977-41.87 28.307 0 42.335 34.313 22.11 54.081-8.1374 7.9534-19.384 10.918-30.448 8.0261z" stroke="#000" stroke-width=".61761"/></g></svg>
