<?xml version="1.0" encoding="UTF-8"?>
<svg version="1.1" viewBox="0 0 512 512" xmlns="http://www.w3.org/2000/svg" xmlns:xlink="http://www.w3.org/1999/xlink"><defs><linearGradient id="linearGradient1600" x1="259.43" x2="258.78" y1="44.777" y2="474.63" gradientUnits="userSpaceOnUse"><stop stop-color="#fdde00" offset="0"/><stop stop-color="#ffbc00" offset="1"/></linearGradient></defs><g><!--! Font Awesome Pro 6.2.1 by @fontawesome - https://fontawesome.com License - https://fontawesome.com/license (Commercial License) Copyright 2022 Fonticons, Inc. --><path d="M256 32c14.2 0 27.3 7.5 34.5 19.8l216 368c7.3 12.4 7.3 27.7 .2 40.1S486.3 480 472 480H40c-14.3 0-27.6-7.7-34.7-20.1s-7-27.8 .2-40.1l216-368C228.7 39.5 241.8 32 256 32zm0 128c-13.3 0-24 10.7-24 24V296c0 13.3 10.7 24 24 24s24-10.7 24-24V184c0-13.3-10.7-24-24-24zm32 224c0-17.7-14.3-32-32-32s-32 14.3-32 32s14.3 32 32 32s32-14.3 32-32z" fill="url(#linearGradient1600)"/><path d="m248.68 318.48c-7.3023-2.7236-12.533-7.9693-15.087-15.13-1.8308-5.1326-1.8041-120.4 0.0293-126.57 5.8236-19.61 33.613-21.777 43.55-3.3958 1.8781 3.4742 1.89 3.8387 2.13 65.026 0.26459 67.475 0.38702 65.681-4.9433 72.411-5.5716 7.0348-17.676 10.646-25.678 7.6613z" stroke="#000" stroke-width=".87344"/><path d="m248.7 414.86c-21.194-5.3465-30.913-30.475-18.773-48.538 10.607-15.783 33.147-18.46 47.21-5.6071 2.6556 2.427 5.7279 6.4025 7.2088 9.3278 2.3468 4.6359 2.5808 5.8898 2.5808 13.832 0 10.539-1.5561 14.626-8.2729 21.728-7.4829 7.912-19.978 11.773-29.953 9.2568z" stroke="#000" stroke-width=".87344"/></g></svg>
