<?xml version="1.0" encoding="UTF-8"?>
<svg width="16" height="16" version="1" viewBox="0 0 16 16" xmlns="http://www.w3.org/2000/svg"><path d="m5.9254 0.42288c-0.00315 0.003152-0.52953 0.012608-1.1725 0.025216-1.1095 0.018911-1.2828 0.025216-1.9542 0.066191-0.37823 0.025216-0.92667 0.078799-1.0244 0.10086-0.19858 0.047279-0.30259 0.14184-0.26476 0.24585 0.012601 0.025216 0.16389 0.13238 0.3404 0.23954 0.69342 0.41921 1.0527 0.75647 1.2765 1.2009 0.21749 0.43812 0.29944 0.88569 0.33411 1.8092 0.031519 0.97079 0.19858 1.5256 0.6556 2.1716 0.21433 0.29944 0.52638 0.6682 0.85733 1.0086 0.60832 0.62724 0.90461 1.0181 1.1662 1.5444 0.46964 0.94874 0.39714 1.7083-0.20803 2.1654-0.19542 0.15129-0.41921 0.21434-0.81635 0.23009-0.43181 0.01576-0.70603-0.031521-0.9771-0.16391-0.20803-0.10716-0.2553-0.14815-0.44127-0.394-0.11662-0.15444-0.28368-0.41605-0.37193-0.58626-0.16075-0.30573-0.44757-1.1189-0.62093-1.7557-0.42552-1.5603-0.68713-2.2851-0.9771-2.7106-0.047279-0.069342-0.10401-0.18282-0.12608-0.25216l-0.040975-0.12608-0.00315 0.10086c-0.00315 0.066191-0.018911 0.10401-0.047279 0.10401-0.025215 0-0.059887 0.081951-0.091407 0.22694-0.078799 0.34987-0.091407 0.45703-0.13238 0.95504-0.00945 0.11977-0.025216 0.29944-0.031519 0.39399-0.085102 0.99917-0.085102 6.0297 0 7.0918 0.00631 0.07879 0.018911 0.26161 0.028368 0.40976 0.037823 0.52953 0.066191 0.79744 0.10086 0.92667 0.018911 0.07565 0.031519 0.0851 0.10401 0.06934 0.14184-0.03467 0.84471-0.39083 1.4846-0.75961 0.33726-0.19227 0.76277-0.43497 0.94558-0.53583 0.65875-0.36563 2.9565-1.8345 3.423-2.1875 0.037823-0.02837 0.10086-0.07249 0.13868-0.09771 0.037823-0.02521 0.088254-0.06304 0.10717-0.0788 0.018912-0.01891 0.11347-0.09141 0.21118-0.16391 0.66506-0.49486 1.4531-1.2734 1.7902-1.7682 0.81004-1.1946 0.61463-2.3261-0.67767-3.9305-0.4003-0.498-0.54213-0.6556-1.4594-1.6075-0.98657-1.0275-1.8629-2.1087-1.8629-2.3041 0-0.1954 0.16391-0.33726 0.50431-0.43181 0.16705-0.047279 0.85418-0.15444 1.245-0.19227 0.20172-0.022063 1.5319-0.025216 1.7177-0.00631 0.059886 0.00631 0.24585 0.022063 0.4129 0.031519 0.16705 0.012601 0.33095 0.025215 0.36878 0.034671 0.034671 0.00631 0.15444 0.018911 0.26161 0.031519 0.11032 0.012601 0.20803 0.025216 0.21749 0.031519 0.0095 0.00631 0.06934 0.018911 0.13553 0.028368 0.06304 0.00945 0.1702 0.028368 0.23325 0.037823 0.35616 0.056741 0.89514 0.25846 1.1032 0.40976 0.84157 0.61463 0.97079 1.7241 0.28997 2.4427-0.20803 0.21749-0.34356 0.30573-0.82896 0.54843-0.24585 0.11977-0.43812 0.23325-0.42866 0.25216 0.0095 0.01576 0.08825 0.028368 0.17336 0.025215 0.08826-0.00631 0.30573-0.01576 0.48855-0.025215 0.72494-0.03152 1.0748-0.09771 1.6548-0.29944 0.3404-0.12293 0.86678-0.38138 1.0401-0.51376 0.33726-0.26161 0.59572-0.63039 0.7281-1.0464 0.14184-0.44443 0.16391-0.73125 0.1702-1.9321v-1.1158l-4.5735 0.012608c-2.5152 0.003152-4.5735 0.009455-4.5766 0.012608z" stroke-width=".03152"/></svg>
