<svg version="1" xmlns="http://www.w3.org/2000/svg" width="682.667" height="682.667" viewBox="0 0 512.000000 512.000000"><path d="M205.7 16.6c-.1.1-16.8.4-37.2.8-35.2.6-40.7.8-62 2.1-12 .8-29.4 2.5-32.5 3.2-6.3 1.5-9.6 4.5-8.4 7.8.4.8 5.2 4.2 10.8 7.6 22 13.3 33.4 24 40.5 38.1 6.9 13.9 9.5 28.1 10.6 57.4 1 30.8 6.3 48.4 20.8 68.9 6.8 9.5 16.7 21.2 27.2 32 19.3 19.9 28.7 32.3 37 49 14.9 30.1 12.6 54.2-6.6 68.7-6.2 4.8-13.3 6.8-25.9 7.3-13.7.5-22.4-1-31-5.2-6.6-3.4-8.1-4.7-14-12.5-3.7-4.9-9-13.2-11.8-18.6-5.1-9.7-14.2-35.5-19.7-55.7-13.5-49.5-21.8-72.5-31-86-1.5-2.2-3.3-5.8-4-8l-1.3-4-.1 3.2c-.1 2.1-.6 3.3-1.5 3.3-.8 0-1.9 2.6-2.9 7.2-2.5 11.1-2.9 14.5-4.2 30.3-.3 3.8-.8 9.5-1 12.5-2.7 31.7-2.7 191.3 0 225 .2 2.5.6 8.3.9 13 1.2 16.8 2.1 25.3 3.2 29.4.6 2.4 1 2.7 3.3 2.2 4.5-1.1 26.8-12.4 47.1-24.1 10.7-6.1 24.2-13.8 30-17 20.9-11.6 93.8-58.2 108.6-69.4 1.2-.9 3.2-2.3 4.4-3.1 1.2-.8 2.8-2 3.4-2.5.6-.6 3.6-2.9 6.7-5.2 21.1-15.7 46.1-40.4 56.8-56.1 25.7-37.9 19.5-73.8-21.5-124.7-12.7-15.8-17.2-20.8-46.3-51-31.3-32.6-59.1-66.9-59.1-73.1 0-6.2 5.2-10.7 16-13.7 5.3-1.5 27.1-4.9 39.5-6.1 6.4-.7 48.6-.8 54.5-.2 1.9.2 7.8.7 13.1 1 5.3.4 10.5.8 11.7 1.1 1.1.2 4.9.6 8.3 1 3.5.4 6.6.8 6.9 1 .3.2 2.2.6 4.3.9 2 .3 5.4.9 7.4 1.2 11.3 1.8 28.4 8.2 35 13 26.7 19.5 30.8 54.7 9.2 77.5-6.6 6.9-10.9 9.7-26.3 17.4-7.8 3.8-13.9 7.4-13.6 8 .3.5 2.8.9 5.5.8 2.8-.2 9.7-.5 15.5-.8 23-1 34.1-3.1 52.5-9.5 10.8-3.9 27.5-12.1 33-16.3 10.7-8.3 18.9-20 23.1-33.2 4.5-14.1 5.2-23.2 5.4-61.3V15.8l-145.1.4c-79.8.1-145.1.3-145.2.4z"/></svg>