<?xml version="1.0" encoding="UTF-8"?>
<!-- Created with Inkscape (http://www.inkscape.org/) -->
<svg width="192" height="192" version="1.1" xmlns="http://www.w3.org/2000/svg" xmlns:cc="http://creativecommons.org/ns#" xmlns:dc="http://purl.org/dc/elements/1.1/" xmlns:rdf="http://www.w3.org/1999/02/22-rdf-syntax-ns#" xmlns:xlink="http://www.w3.org/1999/xlink"><defs><linearGradient id="linearGradient3843" x1="20" x2="172" y1="20" y2="172" gradientUnits="userSpaceOnUse"><stop stop-color="#fff" stop-opacity=".098039" offset="0"/><stop stop-color="#fff" stop-opacity="0" offset="1"/></linearGradient><filter id="filter4346" x="-.036" y="-.036" width="1.072" height="1.072"><feGaussianBlur stdDeviation="2.28"/></filter><filter id="filter4441" x="-.41143" y="-.32" width="1.8229" height="1.64"><feGaussianBlur stdDeviation="2.4"/></filter><filter id="filter4453" x="-.22" y="-.034737" width="1.44" height="1.0695"><feGaussianBlur stdDeviation="2.2"/></filter><filter id="filter4461" x="-.041063" y="-.292" width="1.0821" height="1.584"><feGaussianBlur stdDeviation="2.19"/></filter><filter id="filter4469" x="-.228" y="-.04275" width="1.456" height="1.0855"><feGaussianBlur stdDeviation="2.28"/></filter><filter id="filter4481" x="-.154" y="-.1155" width="1.308" height="1.231"><feGaussianBlur stdDeviation="2.31"/></filter><filter id="filter4485" x="-.154" y="-.1155" width="1.308" height="1.231"><feGaussianBlur stdDeviation="2.31"/></filter><filter id="filter4489" x="-.41143" y="-.32" width="1.8229" height="1.64"><feGaussianBlur stdDeviation="2.4"/></filter></defs><metadata><rdf:RDF><cc:Work rdf:about=""><dc:format>image/svg+xml</dc:format><dc:type rdf:resource="http://purl.org/dc/dcmitype/StillImage"/></cc:Work></rdf:RDF></metadata><g><rect x="20" y="26" width="152" height="152" fill="#3e2723" fill-opacity=".17647" filter="url(#filter4346)"/><rect x="20" y="20" width="152" height="152" fill="#795548" fill-rule="evenodd"/><rect x="44" y="20" width="104" height="16" fill="#fff" fill-opacity=".17647"/><rect x="20" y="92" width="152" height="8" fill="#9e9e9e"/><rect x="20" y="96" width="152" height="4" fill="#212121" fill-opacity=".17647"/><rect x="20" y="92" width="152" height="4" fill="#fff" fill-opacity=".17647"/><rect x="68" y="90" width="12" height="20" fill-opacity="0"/><rect x="68" y="92" width="12" height="20" fill="#2d2d2d"/><rect x="112" y="92" width="12" height="20" fill="#2d2d2d"/><g fill="#ff5722" fill-opacity=".17647"><rect x="56" y="80" width="36" height="48" filter="url(#filter4481)"/><rect x="100" y="80" width="36" height="48" filter="url(#filter4485)"/><rect x="20" y="26" width="24" height="152" filter="url(#filter4453)"/><rect x="44" y="160" width="128" height="18" filter="url(#filter4461)"/><rect x="148" y="26" width="24" height="128" filter="url(#filter4469)"/><rect x="134" y="50" width="14" height="18" filter="url(#filter4441)"/><rect x="172" y="50" width="14" height="18" filter="url(#filter4489)"/></g><g fill="#ffeb3b"><path d="m20 20v152h152v-16h-128v-136z"/><path d="m172 20h-24v24h-12v20h12v84h24v-84h12v-20h-12z"/><path d="m100 76v48h36v-48zm12 16h12v20h-12z"/><path d="m56 76v48h36v-48zm12 16h12v20h-12z"/></g><g fill="#bf360c" fill-opacity=".17647"><rect x="20" y="168" width="152" height="4"/><rect x="148" y="144" width="24" height="4"/><rect x="100" y="120" width="36" height="4"/><rect x="56" y="120" width="36" height="4"/><rect x="112" y="88" width="12" height="4"/><rect x="68" y="88" width="12" height="4"/><rect x="136" y="60" width="12" height="4"/><rect x="172" y="60" width="12" height="4"/></g><g fill="#fff" fill-opacity=".17647"><rect x="100" y="76" width="36" height="4"/><rect x="56" y="76" width="36" height="4"/><rect x="44" y="156" width="128" height="4"/><rect x="20" y="20" width="24" height="4"/><rect x="148" y="20" width="24" height="4"/><rect x="112" y="112" width="12" height="4"/><rect x="68" y="112" width="12" height="4"/><rect x="172" y="44" width="12" height="4"/><rect x="136" y="44" width="12" height="4"/></g><rect x="20" y="20" width="152" height="152" fill="url(#linearGradient3843)"/></g></svg>
