<?xml version="1.0" encoding="UTF-8"?>
<svg width="512" height="512" version="1.1" viewBox="0 0 512 512" xmlns="http://www.w3.org/2000/svg" xmlns:xlink="http://www.w3.org/1999/xlink"><defs><linearGradient id="linearGradient7412" x1="257.52" x2="255.72" y1="33.042" y2="475.25" gradientUnits="userSpaceOnUse"><stop stop-color="#131b30" offset="0"/><stop stop-color="#0370a4" offset="1"/></linearGradient></defs><!--! Font Awesome Pro 6.2.1 by @fontawesome - https://fontawesome.com License - https://fontawesome.com/license (Commercial License) Copyright 2022 Fonticons, Inc. --><path d="m504 256c0 137-111.2 248-248.4 248-113.8 0-209.6-76.3-239-180.4l95.2 39.3c6.4 32.1 34.9 56.4 68.9 56.4 39.2 0 71.9-32.4 70.2-73.5l84.5-60.2c52.1 1.3 95.8-40.9 95.8-93.5 0-51.6-42-93.5-93.7-93.5s-93.7 42-93.7 93.5v1.2l-59.2 85.7c-15.5-0.9-30.7 3.4-43.5 12.1l-133.1-55c10.2-127.7 117.1-228.1 247.6-228.1 137.2 0 248.4 111 248.4 248zm-340.3 128.3-30.5-12.6a52.79 52.79 0 0 0 27.2 25.8c26.9 11.2 57.8-1.6 69-28.4 5.4-13 5.5-27.3 0.1-40.3s-15.5-23.2-28.5-28.6c-12.9-5.4-26.7-5.2-38.9-0.6l31.5 13c19.8 8.2 29.2 30.9 20.9 50.7-8.3 19.9-31 29.2-50.8 21zm173.8-129.9c-34.4 0-62.4-28-62.4-62.3s28-62.3 62.4-62.3 62.4 28 62.4 62.3-27.9 62.3-62.4 62.3zm0.1-15.6c25.9 0 46.9-21 46.9-46.8 0-25.9-21-46.8-46.9-46.8s-46.9 21-46.9 46.8c0.1 25.8 21.1 46.8 46.9 46.8z" fill="url(#linearGradient7412)"/></svg>
