<?xml version="1.0" encoding="UTF-8"?>
<svg xmlns="http://www.w3.org/2000/svg" version="1.1" width="256px" height="256px" style="shape-rendering:geometricPrecision; text-rendering:geometricPrecision; image-rendering:optimizeQuality; fill-rule:evenodd; clip-rule:evenodd" xmlns:xlink="http://www.w3.org/1999/xlink">
<path style="opacity:0.931" fill="#080704" d="M 148.5,3.5 C 153.777,2.93118 158.777,3.76451 163.5,6C 168.272,9.86033 172.605,14.1937 176.5,19C 181.5,20.6667 186.5,22.3333 191.5,24C 194.102,24.8834 196.269,26.3834 198,28.5C 201.194,35.0829 204.194,41.7495 207,48.5C 222.186,61.183 230.019,77.5164 230.5,97.5C 229.146,121.731 220.813,143.231 205.5,162C 211.249,177.744 206.582,189.41 191.5,197C 187.251,198.126 182.918,198.792 178.5,199C 171.654,205.245 164.654,211.245 157.5,217C 150.667,236.17 137.334,247.837 117.5,252C 99.718,255.69 84.8846,250.856 73,237.5C 70.6916,234.077 68.8583,230.411 67.5,226.5C 43.7522,212.377 30.5855,191.377 28,163.5C 25.0886,136.715 30.5886,111.882 44.5,89C 39.0141,77.731 39.1808,66.5644 45,55.5C 46.1667,54.3333 47.3333,53.1667 48.5,52C 43.8742,32.5868 51.2075,19.9201 70.5,14C 72.2588,13.2025 73.9255,13.3691 75.5,14.5C 73.4682,17.3681 71.6349,20.3681 70,23.5C 69.4293,27.6146 71.2626,30.1146 75.5,31C 77.8333,31.6667 80.1667,31.6667 82.5,31C 89.1455,26.3629 95.8122,21.6962 102.5,17C 105.408,16.0069 108.408,15.5069 111.5,15.5C 118.156,16.3805 124.823,16.5472 131.5,16C 137.068,11.584 142.735,7.41731 148.5,3.5 Z"/>
<path fill="#f9ec6f" d="M 180.5,27.5 C 180.635,38.932 177.802,49.5987 172,59.5C 169.564,62.4468 166.731,64.7801 163.5,66.5C 160.495,61.9823 157.662,57.3156 155,52.5C 151.769,47.4656 147.269,45.6323 141.5,47C 134.667,49.5 127.833,52 121,54.5C 117.569,52.739 114.403,50.5724 111.5,48C 106.167,44.6667 100.833,44.6667 95.5,48C 88.7843,53.7169 81.7843,59.0503 74.5,64C 62.891,68.4457 55.7243,64.6124 53,52.5C 49.9607,40.2845 53.294,30.2845 63,22.5C 65.7926,37.972 74.2926,41.8053 88.5,34C 94.5179,28.6584 101.185,24.3251 108.5,21C 115.186,20.1717 121.186,21.8383 126.5,26C 128.167,26.6667 129.833,26.6667 131.5,26C 137.135,21.3665 142.468,16.3665 147.5,11C 151.762,7.75661 156.096,7.75661 160.5,11C 166.192,17.8751 172.859,23.3751 180.5,27.5 Z"/>
<path fill="#d5d04a" d="M 180.5,27.5 C 186.644,28.8219 191.811,31.8219 196,36.5C 199.527,42.2211 202.527,48.2211 205,54.5C 220.903,70.881 226.236,90.2144 221,112.5C 218.09,122.318 214.09,131.651 209,140.5C 207.42,126.673 201.587,115.006 191.5,105.5C 194.109,102.856 197.109,100.689 200.5,99C 206.261,93.7625 208.095,87.2625 206,79.5C 202.454,72.6308 196.787,68.9641 189,68.5C 181.578,70.2661 174.078,71.0994 166.5,71C 165.614,69.3853 164.614,67.8853 163.5,66.5C 166.731,64.7801 169.564,62.4468 172,59.5C 177.802,49.5987 180.635,38.932 180.5,27.5 Z"/>
<path fill="#fcecd4" d="M 166.5,75.5 C 177.914,117.579 172.414,157.246 150,194.5C 137.138,213.209 120.304,226.876 99.5,235.5C 72.6052,228.773 53.4385,212.773 42,187.5C 26.952,144.105 34.7854,105.438 65.5,71.5C 70.1552,70.0021 74.8219,68.5021 79.5,67C 86.5,61.3333 93.5,55.6667 100.5,50C 102.167,49.3333 103.833,49.3333 105.5,50C 109.5,52.6667 113.5,55.3333 117.5,58C 124.719,58.9818 131.719,58.1485 138.5,55.5C 142.809,56.1533 146.809,57.6533 150.5,60C 154.737,64.4804 158.737,69.1471 162.5,74C 163.745,74.7914 165.078,75.2914 166.5,75.5 Z"/>
<path fill="#f2e56c" d="M 49.5,61.5 C 50.8734,61.3433 52.2068,61.51 53.5,62C 55.1667,65 57.5,67.3333 60.5,69C 56.2815,73.7123 52.2815,78.5457 48.5,83.5C 45.608,75.9958 45.9413,68.6624 49.5,61.5 Z"/>
<path fill="#121110" d="M 79.5,72.5 C 84.2129,72.4676 85.7129,74.8009 84,79.5C 81.5027,81.4782 78.6693,81.9782 75.5,81C 72.367,80.6075 69.367,79.7741 66.5,78.5C 70.9009,76.4853 75.2343,74.4853 79.5,72.5 Z"/>
<path fill="#fadbac" d="M 99.5,235.5 C 120.304,226.876 137.138,213.209 150,194.5C 172.414,157.246 177.914,117.579 166.5,75.5C 174.485,74.6088 182.485,74.4421 190.5,75C 198.371,79.1456 200.537,85.3123 197,93.5C 194.072,97.381 190.239,99.881 185.5,101C 184.941,101.725 184.608,102.558 184.5,103.5C 191.985,110.824 198.151,119.157 203,128.5C 204.506,133.746 204.839,139.079 204,144.5C 200.654,131.972 194.821,120.806 186.5,111C 185.207,110.51 183.873,110.343 182.5,110.5C 182.351,111.552 182.517,112.552 183,113.5C 192.884,123.598 199.384,135.598 202.5,149.5C 202.444,150.737 201.944,151.737 201,152.5C 198.605,140.019 192.439,130.019 182.5,122.5C 182.167,123.167 181.833,123.833 181.5,124.5C 189.265,133.681 195.265,144.014 199.5,155.5C 198.332,157.217 196.665,157.884 194.5,157.5C 196.368,162.224 198.034,167.058 199.5,172C 196.727,187.417 187.394,194.084 171.5,192C 159.732,206.1 145.399,216.766 128.5,224C 129.944,225.064 131.611,225.564 133.5,225.5C 137.601,224.911 141.601,223.911 145.5,222.5C 145.833,222.833 146.167,223.167 146.5,223.5C 140.141,233.334 131.141,239.5 119.5,242C 112.208,243.353 104.875,243.686 97.5,243C 95.221,242.527 93.221,241.527 91.5,240C 96.9219,239.43 102.255,238.43 107.5,237C 104.746,236.728 102.079,236.228 99.5,235.5 Z"/>
<path fill="#0c0b0a" d="M 142.5,81.5 C 143.552,81.3505 144.552,81.5172 145.5,82C 151.272,87.699 154.105,94.5324 154,102.5C 148.903,97.4 143.236,93.0667 137,89.5C 136.333,88.8333 136.333,88.1667 137,87.5C 139.04,85.6298 140.873,83.6298 142.5,81.5 Z"/>
<path fill="#0f0e0d" d="M 67.5,96.5 C 72.2424,96.2671 74.5757,98.6004 74.5,103.5C 73.836,107.325 72.6694,110.992 71,114.5C 65.0042,117.929 61.8375,116.096 61.5,109C 62.3037,104.227 64.3037,100.06 67.5,96.5 Z"/>
<path fill="#0c0b0a" d="M 101.5,103.5 C 102.5,103.5 103.5,103.5 104.5,103.5C 103.489,107.856 101.656,111.856 99,115.5C 94.3333,121.5 89.6667,127.5 85,133.5C 85.4606,138.275 86.9606,142.775 89.5,147C 86.3737,150.358 83.2071,150.191 80,146.5C 78.6667,143.167 77.3333,139.833 76,136.5C 75.3333,134.5 75.3333,132.5 76,130.5C 86.4225,123.246 94.9225,114.246 101.5,103.5 Z"/>
<path fill="#080707" d="M 132.5,109.5 C 137.578,108.745 139.911,110.912 139.5,116C 139.287,119.642 138.453,123.142 137,126.5C 130.542,131.556 127.375,129.889 127.5,121.5C 127.527,116.783 129.194,112.783 132.5,109.5 Z"/>
<path fill="#191713" d="M 179.5,134.5 C 185.764,137.839 189.764,143.005 191.5,150C 191.167,150.833 190.833,151.667 190.5,152.5C 187.551,147.056 183.718,142.39 179,138.5C 178.421,137.072 178.588,135.738 179.5,134.5 Z"/>
<path fill="#191713" d="M 177.5,146.5 C 182.225,148.613 184.392,152.279 184,157.5C 183.586,157.957 183.086,158.291 182.5,158.5C 181.007,154.974 179.007,151.641 176.5,148.5C 176.863,147.817 177.196,147.15 177.5,146.5 Z"/>
<path fill="#0e0d0d" d="M 51.5,150.5 C 52.3764,150.369 53.0431,150.702 53.5,151.5C 51.9934,153.969 52.3268,156.135 54.5,158C 61.9524,161.262 69.619,163.929 77.5,166C 90.5764,166.866 103.576,166.2 116.5,164C 117.931,163.535 119.097,162.701 120,161.5C 120,158.833 120,156.167 120,153.5C 125.367,158.532 130.367,163.865 135,169.5C 134.284,175.949 132.118,181.949 128.5,187.5C 127.668,184.518 127.501,181.518 128,178.5C 127.107,177.919 126.107,177.585 125,177.5C 117.169,180.333 109.336,183.166 101.5,186C 89.8854,189.118 78.8854,187.785 68.5,182C 63.2114,178.38 58.2114,174.38 53.5,170C 50.6706,169.311 49.0039,170.478 48.5,173.5C 45.5032,168.529 44.0032,163.196 44,157.5C 46.3959,154.933 48.8959,152.6 51.5,150.5 Z"/>
<path fill="#f7f7f7" d="M 51.5,160.5 C 61.8634,164.564 72.5301,167.731 83.5,170C 88.8333,170.667 94.1667,170.667 99.5,170C 107.076,168.107 114.742,167.441 122.5,168C 125.21,169.46 125.876,171.46 124.5,174C 110.951,179.223 96.9505,181.557 82.5,181C 71.0249,177.846 60.5249,172.679 51,165.5C 50.3603,163.735 50.5269,162.068 51.5,160.5 Z"/>
<path fill="#1a1817" d="M 68.5,190.5 C 74.1535,191.055 79.8202,191.555 85.5,192C 88.1667,194 88.1667,196 85.5,198C 78.0697,199.281 72.4031,196.781 68.5,190.5 Z"/>
</svg>
