<?xml version="1.0" encoding="UTF-8" standalone="no"?>
<svg
   version="1.1"
   width="385.27588"
   height="384.7179"
   style="clip-rule:evenodd;fill-rule:evenodd;image-rendering:optimizeQuality;shape-rendering:geometricPrecision;text-rendering:geometricPrecision"
   xmlns:inkscape="http://www.inkscape.org/namespaces/inkscape"
   xmlns:sodipodi="http://sodipodi.sourceforge.net/DTD/sodipodi-0.dtd"
   xmlns="http://www.w3.org/2000/svg"
   xmlns:svg="http://www.w3.org/2000/svg">
  <ellipse
     style="display:inline;fill:#3f95fc;fill-opacity:1;stroke-width:1.02641"
     id="path679"
     cx="192.63794"
     cy="192.35895"
     rx="192.63794"
     ry="192.35895" />
  <g transform="translate(-257.22253,-41.568481)">
    <path
       style="opacity:1"
       fill="#f8ec72"
       d="m 467.56781,42.376706 c 18.229,1.5207 35.70988,5.79231 52.71026,12.480848 2.96489,1.206259 4.94034,1.997064 7.45619,3.12461 C 519.06726,75.315464 510.167,93.1667 501.5,110.5 c -4.034,-0.172 -8.034,-0.672 -12,-1.5 -4.954,-3.285 -9.62,-6.952 -14,-11 -8.068,-5.9396 -16.068,-5.9396 -24,0 -4.035,3.7 -7.702,7.7 -11,12 -1.333,0.667 -2.667,1.333 -4,2 -8.282,1.164 -16.616,1.831 -25,2 -2.36,1.18 -4.693,2.347 -7,3.5 v -1 c 21.01,-24.7068 42.07781,-49.496794 63.06781,-74.123294 z"
       />
    <path
       style="opacity:1"
       fill="#0d0d09"
       d="m 501.5,110.5 c 2.782,1.433 5.782,2.6 9,3.5 6.008,6.347 10.841,13.514 14.5,21.5 6.035,4.189 11.702,8.856 17,14 4.837,7.004 9.171,14.337 13,22 2.539,5.531 4.039,11.198 4.5,17 v 1 c -0.244,26.147 -7.244,50.313 -21,72.5 4.672,3.015 6.672,7.348 6,13 -0.744,14.093 -7.744,23.76 -21,29 -2.667,0.333 -5.333,0.667 -8,1 -6.468,7.47 -13.302,14.636 -20.5,21.5 -1.848,14.504 -8.682,26.004 -20.5,34.5 -14.919,10.148 -31.252,13.982 -49,11.5 -2.015,-1.424 -4.348,-2.09 -7,-2 -5.497,-2.245 -10.497,-5.245 -15,-9 -1.408,-3.258 -3.074,-6.424 -5,-9.5 -30.462,-14.625 -49.129,-38.459 -56,-71.5 -0.46433,-1.70362 -0.65884,-2.72276 -0.89538,-4 l -0.10462,-1 c -3.565,-25.278 0.435,-49.278 12,-72 -3.28,-5.879 -5.947,-11.879 -8,-18 -0.99,-8.861 1.344,-16.695 7,-23.5 -0.308,-1.459 -0.975,-2.626 -2,-3.5 -0.807,-5.964 -1.14,-11.964 -1,-18 3.991,-10.828 11.324,-18.662 22,-23.5 1.444,-0.781 2.777,-0.614 4,0.5 -3.543,4.069 -5.043,8.735 -4.5,14 5.649,4.816 11.816,5.316 18.5,1.5 4.231,-4.062 8.231,-8.229 12,-12.5 1.333,-0.667 2.333,-1.667 3,-3 2.307,-1.153 4.64,-2.32 7,-3.5 8.384,-0.169 16.718,-0.836 25,-2 1.333,-0.667 2.667,-1.333 4,-2 3.298,-4.3 6.965,-8.3 11,-12 7.932,-5.9396 15.932,-5.9396 24,0 4.38,4.048 9.046,7.715 14,11 3.966,0.828 7.966,1.328 12,1.5 z"
       />
    <path
       style="opacity:1"
       fill="#d3ce4f"
       d="m 516.5,161.5 c -1.634,-0.661 -3.467,-0.994 -5.5,-1 -3.15,-0.14 -5.983,0.527 -8.5,2 -3.562,0.465 -6.895,1.632 -10,3.5 -2.667,0.667 -5.333,0.667 -8,0 -5.377,-5.708 -10.377,-11.708 -15,-18 -2.333,-1.667 -4.667,-3.333 -7,-5 -2.31,-0.497 -4.643,-0.663 -7,-0.5 2.107,-0.968 4.441,-1.302 7,-1 3.754,-12.033 2.254,-23.367 -4.5,-34 -1.11,-1.537 -2.61,-2.203 -4.5,-2 2.362,-4.556 6.029,-6.7231 11,-6.5 7.201,3.098 13.535,7.431 19,13 8.208,3.402 16.541,6.402 25,9 6.319,5.983 11.486,12.816 15.5,20.5 24.239,19.72 32.239,44.72 24,75 -1.934,7.137 -4.268,14.137 -7,21 -1.428,-8.521 -4.762,-16.187 -10,-23 -4.708,-4.876 -9.541,-9.543 -14.5,-14 4.318,-3.818 8.485,-7.818 12.5,-12 4.59,-9.568 2.756,-17.735 -5.5,-24.5 -2.243,-1.136 -4.576,-1.97 -7,-2.5 z"
       />
    <path
       style="opacity:1"
       fill="#f6ea70"
       d="m 453.5,105.5 c 1.89,-0.203 3.39,0.463 4.5,2 6.754,10.633 8.254,21.967 4.5,34 -2.559,-0.302 -4.893,0.032 -7,1 -8.153,4.161 -16.32,8.161 -24.5,12 -4.695,-2.599 -9.529,-5.099 -14.5,-7.5 -4.409,-0.805 -8.409,0.195 -12,3 -7.027,7.027 -14.027,14.027 -21,21 -5.614,3.209 -11.614,4.209 -18,3 -9.355,-9.222 -12.855,-20.389 -10.5,-33.5 1.76,-4.533 4.26,-8.533 7.5,-12 0.667,1.333 1.333,2.667 2,4 1.421,4.59 4.421,7.756 9,9.5 6.604,1.406 12.604,0.072 18,-4 6.892,-8.096 14.892,-14.763 24,-20 2.333,-0.667 4.667,-0.667 7,0 4.199,1.789 8.533,3.289 13,4.5 1.799,-0.077 3.466,-0.577 5,-1.5 4.471,-5.145 8.804,-10.312 13,-15.5 z"
       />
    <path
       style="opacity:1"
       fill="#7b886c"
       d="m 404.5,116.5 c 0,0.333 0,0.667 0,1 -0.667,1.333 -1.667,2.333 -3,3 0.238,-1.904 1.238,-3.238 3,-4 z"
       />
    <path
       style="opacity:1"
       fill="#717039"
       d="m 362.5,128.5 c 0.06,-0.543 0.393,-0.876 1,-1 0.952,1.545 1.285,3.212 1,5 -0.667,-1.333 -1.333,-2.667 -2,-4 z"
       />
    <path
       style="opacity:1"
       fill="#f9e8d3"
       d="m 459.5,154.5 c 4.932,10.465 8.265,21.465 10,33 -2.391,-2.394 -5.057,-4.394 -8,-6 -5.052,1.681 -7.052,5.014 -6,10 6.184,2.531 11.851,5.865 17,10 9.104,36.451 7.604,72.451 -4.5,108 -8.8,20.466 -23.3,35.299 -43.5,44.5 -2.31,0.497 -4.643,0.663 -7,0.5 -32.314,-10.148 -53.481,-31.481 -63.5,-64 -11.192,-39.866 -4.692,-76.533 19.5,-110 5.721,-1.694 11.054,-4.194 16,-7.5 5.968,-6.969 12.301,-13.636 19,-20 6.719,-0.983 12.719,0.683 18,5 7.873,1.499 15.206,0.166 22,-4 3.755,-0.755 7.422,-0.589 11,0.5 z"
       />
    <path
       style="opacity:1"
       fill="#255b9a"
       d="m 349.5,140.5 c -0.14,6.036 0.193,12.036 1,18 -1.53,-3.195 -2.196,-6.695 -2,-10.5 0.003,-2.69 0.336,-5.19 1,-7.5 z"
       />
    <path
       style="opacity:1"
       fill="#393a1b"
       d="m 516.5,161.5 c -4.703,-0.063 -9.37,0.271 -14,1 2.517,-1.473 5.35,-2.14 8.5,-2 2.033,0.006 3.866,0.339 5.5,1 z"
       />
    <path
       style="opacity:1"
       fill="#e9de6a"
       d="m 355.5,171.5 c 1.052,-0.149 2.052,0.017 3,0.5 2.562,3.065 5.562,5.565 9,7.5 -3.916,5.496 -7.582,11.163 -11,17 -6.033,-8.228 -6.366,-16.561 -1,-25 z"
       />
    <path
       style="opacity:1"
       fill="#0d0c0b"
       d="m 394.5,181.5 c 0.268,2.619 -0.065,5.119 -1,7.5 -5.657,0.499 -11.324,0.666 -17,0.5 -1.273,-0.577 -1.273,-1.243 0,-2 4.792,-2.299 9.459,-4.799 14,-7.5 1.852,-0.773 3.186,-0.273 4,1.5 z"
       />
    <path
       style="opacity:1"
       fill="#0e0d0c"
       d="m 469.5,187.5 c 1.811,2.944 3.644,5.944 5.5,9 0.808,2.079 0.641,4.079 -0.5,6 -0.683,-0.363 -1.35,-0.696 -2,-1 -5.149,-4.135 -10.816,-7.469 -17,-10 -1.052,-4.986 0.948,-8.319 6,-10 2.943,1.606 5.609,3.606 8,6 z"
       />
    <path
       style="opacity:1"
       fill="#f8ec72"
       d="m 345.5,185.5 c 2.053,6.121 4.72,12.121 8,18 -11.565,22.722 -15.565,46.722 -12,72 -23.839,0.331 -47.506,-0.002 -71,-1 24.631,-29.965 49.631,-59.632 75,-89 z"
       />
    <path
       style="opacity:1"
       fill="#a09787"
       d="m 394.5,181.5 c 1.317,2.73 1.317,5.563 0,8.5 -6.181,0.819 -12.181,0.653 -18,-0.5 5.676,0.166 11.343,-0.001 17,-0.5 0.935,-2.381 1.268,-4.881 1,-7.5 z"
       />
    <path
       style="opacity:1"
       fill="#f8ec72"
       d="m 559.5,189.5 c 23.506,-0.331 46.839,0.002 70,1 -57.667,78 -116.78894,157.73493 -174.45594,235.73493 -23.23624,0.52085 -46.76644,-3.02484 -68.9386,-10.79107 -1.256,-0.417 -0.93665,-0.18967 -2.66579,-0.94649 C 389.57667,397.42037 396.97,378.423 403.5,361.5 c 4.503,3.755 9.503,6.755 15,9 2.015,1.424 4.348,2.09 7,2 17.748,2.482 34.081,-1.352 49,-11.5 11.818,-8.496 18.652,-19.996 20.5,-34.5 7.198,-6.864 14.032,-14.03 20.5,-21.5 2.667,-0.333 5.333,-0.667 8,-1 13.256,-5.24 20.256,-14.907 21,-29 0.672,-5.652 -1.328,-9.985 -6,-13 13.756,-22.187 20.756,-46.353 21,-72.5 z"
       />
    <path
       style="opacity:1"
       fill="#e9cfb0"
       d="m 536.5,235.5 c 0.295,2.235 -0.039,4.235 -1,6 -5.053,-12.933 -12.72,-24.1 -23,-33.5 -1.634,-0.494 -3.301,-0.66 -5,-0.5 -0.149,1.052 0.017,2.052 0.5,3 14.401,10.695 23.401,24.695 27,42 -4.297,-10.427 -10.463,-19.594 -18.5,-27.5 -2.318,-1.993 -4.984,-3.159 -8,-3.5 0,1 0,2 0,3 -3.193,-3.441 -4.193,-7.441 -3,-12 -0.438,-1.006 -1.104,-1.006 -2,0 -1.277,-2.13 -0.777,-3.796 1.5,-5 0.699,-1.574 0.365,-2.907 -1,-4 -1,1.333 -2,2.667 -3,4 -0.691,-2.391 -1.691,-2.391 -3,0 -1.538,-1.829 -1.038,-3.329 1.5,-4.5 -0.667,-0.333 -1.333,-0.667 -2,-1 4.218,-3.04 5.218,-6.707 3,-11 0.5,-0.5 1,-1 1.5,-1.5 2.51,0.609 4.51,1.942 6,4 1.298,-4.774 4.132,-8.274 8.5,-10.5 -4.173,-2.504 -3.84,-4.171 1,-5 -0.808,-0.308 -1.475,-0.808 -2,-1.5 0.667,-0.333 1.333,-0.667 2,-1 -1.128,-0.762 -2.295,-1.429 -3.5,-2 -1.333,1.333 -2.667,1.333 -4,0 -0.667,0.667 -1.333,1.333 -2,2 -1.017,-1.876 -1.851,-3.876 -2.5,-6 -1.211,0.774 -1.211,1.607 0,2.5 -0.5,0.167 -1,0.333 -1.5,0.5 -0.759,-1.146 -1.426,-2.146 -2,-3 -3.366,-0.144 -6.866,0.189 -10.5,1 1.648,-1.427 3.648,-2.26 6,-2.5 6.085,-0.861 12.085,-0.527 18,1 7.429,5.51 8.929,12.343 4.5,20.5 -3.654,3.551 -7.488,6.717 -11.5,9.5 6.104,5.43 12.271,10.93 18.5,16.5 5.045,5.757 8.212,12.424 9.5,20 z"
       />
    <path
       style="opacity:1"
       fill="#0f0e0d"
       d="m 379.5,207.5 c 5.898,0.578 8.564,3.911 8,10 0.341,6.325 -2.159,10.992 -7.5,14 -1.987,-0.654 -3.32,-1.987 -4,-4 -2.826,-7.465 -1.66,-14.131 3.5,-20 z"
       />
    <path
       style="opacity:1"
       fill="#0f0e0c"
       d="m 418.5,210.5 c 1.149,0.291 1.816,1.124 2,2.5 -0.296,1.888 -0.796,3.722 -1.5,5.5 -5.46,9.929 -10.626,19.929 -15.5,30 2.597,4.861 4.93,9.861 7,15 -2.969,0.829 -5.969,0.995 -9,0.5 -3.641,-5.144 -6.641,-10.644 -9,-16.5 0.219,-1.438 0.719,-2.771 1.5,-4 10.614,-9.247 18.78,-20.247 24.5,-33 z"
       />
    <path
       style="opacity:1"
       fill="#0e0d0c"
       d="m 454.5,212.5 c 5.094,0.988 7.427,4.155 7,9.5 -0.156,4.457 -1.322,8.624 -3.5,12.5 -3.051,2.874 -5.718,2.541 -8,-1 -3.05,-8.171 -1.55,-15.171 4.5,-21 z"
       />
    <path
       style="opacity:1"
       fill="#f1d6b6"
       d="m 459.5,154.5 c 8.305,2.993 14.972,8.16 20,15.5 3.986,0.499 7.986,0.666 12,0.5 3.634,-0.811 7.134,-1.144 10.5,-1 0.574,0.854 1.241,1.854 2,3 0.5,-0.167 1,-0.333 1.5,-0.5 -1.211,-0.893 -1.211,-1.726 0,-2.5 0.649,2.124 1.483,4.124 2.5,6 0.667,-0.667 1.333,-1.333 2,-2 1.333,1.333 2.667,1.333 4,0 1.205,0.571 2.372,1.238 3.5,2 -0.667,0.333 -1.333,0.667 -2,1 0.525,0.692 1.192,1.192 2,1.5 -4.84,0.829 -5.173,2.496 -1,5 -4.368,2.226 -7.202,5.726 -8.5,10.5 -1.49,-2.058 -3.49,-3.391 -6,-4 -0.5,0.5 -1,1 -1.5,1.5 2.218,4.293 1.218,7.96 -3,11 0.667,0.333 1.333,0.667 2,1 -2.538,1.171 -3.038,2.671 -1.5,4.5 1.309,-2.391 2.309,-2.391 3,0 1,-1.333 2,-2.667 3,-4 1.365,1.093 1.699,2.426 1,4 -2.277,1.204 -2.777,2.87 -1.5,5 0.896,-1.006 1.562,-1.006 2,0 -1.193,4.559 -0.193,8.559 3,12 12.259,9.261 20.592,21.261 25,36 -7.478,-1.471 -7.978,0.196 -1.5,5 6.221,15.651 1.387,26.484 -14.5,32.5 -3.333,0.333 -6.667,0.667 -10,1 -11.262,17.097 -25.596,30.93 -43,41.5 6.463,1.106 12.463,-0.227 18,-4 0.333,0.5 0.667,1 1,1.5 -2.107,6.112 -5.773,11.112 -11,15 -13.02,9.922 -27.686,13.922 -44,12 -1.544,-0.29 -2.877,-0.956 -4,-2 6.291,-0.821 12.291,-2.487 18,-5 -5.333,-0.333 -10.667,-0.667 -16,-1 -3.297,-0.204 -6.297,-1.037 -9,-2.5 2.357,0.163 4.69,-0.003 7,-0.5 20.2,-9.201 34.7,-24.034 43.5,-44.5 12.104,-35.549 13.604,-71.549 4.5,-108 0.65,0.304 1.317,0.637 2,1 1.141,-1.921 1.308,-3.921 0.5,-6 -1.856,-3.056 -3.689,-6.056 -5.5,-9 -1.735,-11.535 -5.068,-22.535 -10,-33 z"
       />
    <path
       style="opacity:1"
       fill="#171512"
       d="m 507.5,235.5 c 7.449,1.94 12.615,6.606 15.5,14 0.781,1.444 0.614,2.777 -0.5,4 -3.979,-5.813 -8.813,-10.813 -14.5,-15 -0.483,-0.948 -0.649,-1.948 -0.5,-3 z"
       />
    <path
       style="opacity:1"
       fill="#655a4b"
       d="m 536.5,235.5 c 1.138,2.804 1.305,5.804 0.5,9 -1.039,-0.744 -1.539,-1.744 -1.5,-3 0.961,-1.765 1.295,-3.765 1,-6 z"
       />
    <path
       style="opacity:1"
       fill="#171512"
       d="m 507.5,248.5 c 6.122,1.552 8.788,5.552 8,12 -3.266,0.067 -4.766,-1.599 -4.5,-5 -1.685,-1.517 -3.185,-3.184 -4.5,-5 0.363,-0.683 0.696,-1.35 1,-2 z"
       />
    <path
       style="opacity:1"
       fill="#121211"
       d="m 369.5,270.5 c 0.667,1.667 1.333,3.333 2,5 0.953,2.11 2.619,3.277 5,3.5 13.413,4.526 27.08,5.526 41,3 9.2,-1.588 18.2,-3.922 27,-7 1.074,-0.739 1.741,-1.739 2,-3 -1.363,-2.508 -1.696,-5.008 -1,-7.5 6.075,5.12 12.242,10.12 18.5,15 -0.473,6.776 -1.806,13.443 -4,20 -0.414,0.457 -0.914,0.791 -1.5,1 -0.824,-3.285 -1.324,-6.618 -1.5,-10 -0.725,-0.559 -1.558,-0.892 -2.5,-1 -12.058,6.861 -24.724,12.361 -38,16.5 -11.533,1.627 -22.2,-0.707 -32,-7 -4.139,-2.639 -8.139,-5.472 -12,-8.5 -2.329,1.271 -3.495,3.271 -3.5,6 -2.85,-5.037 -5.683,-10.037 -8.5,-15 1.887,-4.556 4.887,-8.222 9,-11 z"
       />
    <path
       style="opacity:1"
       fill="#746f62"
       d="m 369.5,270.5 c 0.06,-0.543 0.393,-0.876 1,-1 0.966,1.896 1.299,3.896 1,6 -0.667,-1.667 -1.333,-3.333 -2,-5 z"
       />
    <path
       style="opacity:1"
       fill="#f2f2f3"
       d="m 441.5,279.5 c 3.018,-0.165 6.018,0.002 9,0.5 2.718,1.415 3.385,3.415 2,6 -11.531,5.732 -23.531,10.065 -36,13 -7.056,0.788 -14.056,0.455 -21,-1 -8,-3.333 -16,-6.667 -24,-10 -3.126,-3.264 -2.626,-5.431 1.5,-6.5 10.963,3.133 22.13,5.133 33.5,6 12.175,-1.072 23.841,-3.739 35,-8 z"
       />
    <path
       style="opacity:1"
       fill="#0e0e0d"
       d="m 403.5,311.5 c 3.018,-0.165 6.018,0.002 9,0.5 2.826,2.522 2.493,4.522 -1,6 -7.053,1.826 -13.053,0.159 -18,-5 3.525,-0.179 6.859,-0.679 10,-1.5 z"
       />
    <path
       style="opacity:1"
       fill="#484421"
       d="m 418.5,370.5 c 2.652,-0.09 4.985,0.576 7,2 -2.652,0.09 -4.985,-0.576 -7,-2 z"
       />
  </g>
</svg>
