<?xml version="1.0" encoding="UTF-8"?>
<svg xmlns="http://www.w3.org/2000/svg" version="1.1" width="256px" height="256px" style="shape-rendering:geometricPrecision; text-rendering:geometricPrecision; image-rendering:optimizeQuality; fill-rule:evenodd; clip-rule:evenodd" xmlns:xlink="http://www.w3.org/1999/xlink">
<path style="opacity:0.969" fill="#171511" d="M 130.5,-0.5 C 133.167,-0.5 135.833,-0.5 138.5,-0.5C 142.606,2.27666 146.939,4.61 151.5,6.5C 151.082,7.22158 150.416,7.72158 149.5,8C 151.935,8.07476 152.602,8.9081 151.5,10.5C 150.609,9.89022 149.609,9.55688 148.5,9.5C 143.892,7.19614 139.226,4.86281 134.5,2.5C 130.841,4.15872 128.175,6.82539 126.5,10.5C 122.976,15.6907 118.142,17.024 112,14.5C 110.5,14.6667 109,14.8333 107.5,15C 106.944,15.3826 106.611,15.8826 106.5,16.5C 102.564,18.7657 99.2311,21.7657 96.5,25.5C 89.7999,30.2168 84.1332,29.2168 79.5,22.5C 76.3782,27.496 75.7115,32.8294 77.5,38.5C 76.8571,40.0764 75.8571,41.4097 74.5,42.5C 75.6125,39.6584 75.1125,36.9917 73,34.5C 72.7815,24.9498 77.1148,18.2831 86,14.5C 86.5,15 87,15.5 87.5,16C 83.968,23.1899 85.968,25.5232 93.5,23C 96.4829,20.0855 99.4829,17.0855 102.5,14C 107.791,11.168 113.457,9.8347 119.5,10C 123.06,6.36833 126.727,2.86833 130.5,-0.5 Z"/>
<path fill="#fad436" d="M 148.5,9.5 C 151.087,18.0151 153.087,26.6818 154.5,35.5C 152.545,37.3258 150.212,37.8258 147.5,37C 145.666,34.3367 143.666,31.8367 141.5,29.5C 141.5,27.1667 141.5,24.8333 141.5,22.5C 138.753,22.8134 136.086,22.48 133.5,21.5C 135.011,19.1625 134.677,18.4958 132.5,19.5C 131.811,17.6619 131.478,15.9952 131.5,14.5C 129.226,14.9702 127.226,15.9702 125.5,17.5C 125.167,17.1667 124.833,16.8333 124.5,16.5C 126.086,14.8273 126.753,12.8273 126.5,10.5C 128.175,6.82539 130.841,4.15872 134.5,2.5C 139.226,4.86281 143.892,7.19614 148.5,9.5 Z"/>
<path style="opacity:0.984" fill="#14120f" d="M 151.5,6.5 C 155.346,6.54496 159.013,7.3783 162.5,9C 165.388,12.2216 167.888,15.7216 170,19.5C 188.107,29.7249 194.773,45.0582 190,65.5C 188.402,72.0295 186.235,78.3629 183.5,84.5C 188.854,97.7374 184.52,106.071 170.5,109.5C 167.392,114.112 163.725,118.278 159.5,122C 181.702,129.09 201.369,140.257 218.5,155.5C 217.167,155.5 215.833,155.5 214.5,155.5C 211.083,152.745 207.417,150.412 203.5,148.5C 196.783,143.473 189.45,139.473 181.5,136.5C 177.592,134.546 173.592,132.546 169.5,130.5C 169.146,135.862 167.813,140.862 165.5,145.5C 160.278,152.788 153.278,157.621 144.5,160C 143.663,161.011 143.33,162.178 143.5,163.5C 149.638,163.176 154.972,164.843 159.5,168.5C 159.802,171.059 159.468,173.393 158.5,175.5C 158.649,174.448 158.483,173.448 158,172.5C 152.678,175.768 146.844,177.101 140.5,176.5C 137.325,176.497 134.492,175.497 132,173.5C 132.177,176.186 133.677,177.852 136.5,178.5C 142.349,179.664 148.349,179.664 154.5,178.5C 155.806,178.879 157.139,179.212 158.5,179.5C 157.249,180.631 156.249,181.964 155.5,183.5C 155.543,184.416 155.876,185.083 156.5,185.5C 158.167,184.167 159.833,184.167 161.5,185.5C 157.684,186.482 153.684,187.149 149.5,187.5C 150.641,186.661 151.974,185.994 153.5,185.5C 154.583,184.635 154.749,183.635 154,182.5C 151.252,184.731 148.085,185.731 144.5,185.5C 142.585,185.216 140.919,185.549 139.5,186.5C 137.784,186.371 136.117,186.038 134.5,185.5C 133.469,184.645 132.303,183.978 131,183.5C 129.97,183.836 129.47,184.503 129.5,185.5C 128.833,185.5 128.5,185.833 128.5,186.5C 127.5,186.5 126.5,186.5 125.5,186.5C 123.901,186.232 122.568,186.566 121.5,187.5C 120.957,187.44 120.624,187.107 120.5,186.5C 122.743,185.526 125.076,185.192 127.5,185.5C 127.36,183.876 128.027,182.71 129.5,182C 125.968,181.708 125.635,180.542 128.5,178.5C 128.328,179.492 128.662,180.158 129.5,180.5C 130.167,180.833 130.833,181.167 131.5,181.5C 131.918,182.222 132.584,182.722 133.5,183C 138.949,183.896 144.282,183.563 149.5,182C 144.118,181.735 138.785,181.235 133.5,180.5C 132.5,180.167 131.833,179.5 131.5,178.5C 131.158,177.662 130.492,177.328 129.5,177.5C 129.768,175.901 129.434,174.568 128.5,173.5C 126.708,172.691 124.708,172.191 122.5,172C 124.502,170.981 126.502,170.148 128.5,169.5C 129.167,169.5 129.5,169.167 129.5,168.5C 131.317,167.781 131.984,166.781 131.5,165.5C 132.386,166.325 132.719,167.325 132.5,168.5C 132.088,170.973 133.088,172.306 135.5,172.5C 135.918,173.222 136.584,173.722 137.5,174C 139.667,174.167 141.833,174.333 144,174.5C 147.477,174.672 150.644,174.006 153.5,172.5C 156.389,172.001 157.056,170.501 155.5,168C 150.068,165.795 144.402,164.962 138.5,165.5C 137.833,164.5 137.167,163.5 136.5,162.5C 138.116,160.584 137.782,159.084 135.5,158C 130.599,156.675 125.599,156.175 120.5,156.5C 118.901,156.768 117.568,156.434 116.5,155.5C 121.782,154.433 127.115,154.267 132.5,155C 135.539,155.353 138.205,156.52 140.5,158.5C 145.972,156.599 150.972,153.932 155.5,150.5C 163.005,145.17 166.338,138.17 165.5,129.5C 163.064,128.129 160.397,127.129 157.5,126.5C 157.265,125.903 156.765,125.57 156,125.5C 154.588,126.686 153.421,128.019 152.5,129.5C 152.631,128.624 152.298,127.957 151.5,127.5C 147.922,129.594 144.255,130.594 140.5,130.5C 148.001,126.675 154.335,121.341 159.5,114.5C 161.28,111.546 163.28,108.713 165.5,106C 173.225,105.495 178.225,101.662 180.5,94.5C 179.735,90.7295 178.068,87.3962 175.5,84.5C 177.04,83.4679 177.54,82.1346 177,80.5C 173.998,76.3319 170.498,72.6652 166.5,69.5C 165.77,68.2876 164.77,67.2876 163.5,66.5C 165.187,65.432 166.854,65.5986 168.5,67C 172.52,70.011 175.353,73.8443 177,78.5C 177.893,79.7112 178.726,79.7112 179.5,78.5C 175.622,70.7864 170.122,64.453 163,59.5C 162.409,58.5165 162.743,57.8499 164,57.5C 165.303,57.9783 166.469,58.645 167.5,59.5C 171.934,62.599 175.267,66.599 177.5,71.5C 177.917,73.6452 178.917,74.3118 180.5,73.5C 180.006,71.9745 179.339,70.6412 178.5,69.5C 178.443,68.391 178.11,67.391 177.5,66.5C 178.167,66.5 178.833,66.5 179.5,66.5C 180.558,67.6002 181.392,68.9336 182,70.5C 184.765,64.8386 185.932,58.8386 185.5,52.5C 186.395,45.9873 184.728,40.3206 180.5,35.5C 178.581,30.5796 175.248,26.913 170.5,24.5C 167.749,20.243 164.416,16.4097 160.5,13C 157.582,11.8502 154.582,11.0169 151.5,10.5C 152.602,8.9081 151.935,8.07476 149.5,8C 150.416,7.72158 151.082,7.22158 151.5,6.5 Z"/>
<path fill="#fbdf6d" d="M 126.5,10.5 C 126.753,12.8273 126.086,14.8273 124.5,16.5C 124.833,16.8333 125.167,17.1667 125.5,17.5C 127.226,15.9702 129.226,14.9702 131.5,14.5C 131.478,15.9952 131.811,17.6619 132.5,19.5C 134.677,18.4958 135.011,19.1625 133.5,21.5C 136.086,22.48 138.753,22.8134 141.5,22.5C 141.5,24.8333 141.5,27.1667 141.5,29.5C 139.006,27.5206 136.173,26.1873 133,25.5C 128.302,28.3472 123.302,30.6805 118,32.5C 115.679,32.0905 113.513,31.2572 111.5,30C 109.833,29.3333 108.167,29.3333 106.5,30C 102.639,32.6961 99.306,35.8627 96.5,39.5C 96.8333,37.5 97.1667,35.5 97.5,33.5C 98.5,33.5 99.5,33.5 100.5,33.5C 102.176,29.0676 103.509,24.401 104.5,19.5C 105.5,19.5 106.5,19.5 107.5,19.5C 107.737,18.209 107.404,17.209 106.5,16.5C 106.611,15.8826 106.944,15.3826 107.5,15C 109,14.8333 110.5,14.6667 112,14.5C 118.142,17.024 122.976,15.6907 126.5,10.5 Z"/>
<path fill="#b17625" d="M 148.5,9.5 C 149.609,9.55688 150.609,9.89022 151.5,10.5C 154.582,11.0169 157.582,11.8502 160.5,13C 164.416,16.4097 167.749,20.243 170.5,24.5C 170.101,27.0565 169.768,29.7232 169.5,32.5C 166.562,31.4252 163.562,31.2585 160.5,32C 162.708,32.1909 164.708,32.6909 166.5,33.5C 162.253,33.1941 158.253,33.8608 154.5,35.5C 153.087,26.6818 151.087,18.0151 148.5,9.5 Z"/>
<path fill="#f9de67" d="M 106.5,16.5 C 107.404,17.209 107.737,18.209 107.5,19.5C 106.5,19.5 105.5,19.5 104.5,19.5C 103.509,24.401 102.176,29.0676 100.5,33.5C 99.5,33.5 98.5,33.5 97.5,33.5C 97.1667,35.5 96.8333,37.5 96.5,39.5C 91.7597,46.132 86.0931,47.132 79.5,42.5C 79.3404,40.847 78.6737,39.5137 77.5,38.5C 75.7115,32.8294 76.3782,27.496 79.5,22.5C 84.1332,29.2168 89.7999,30.2168 96.5,25.5C 99.2311,21.7657 102.564,18.7657 106.5,16.5 Z"/>
<path fill="#18130b" d="M 141.5,29.5 C 143.666,31.8367 145.666,34.3367 147.5,37C 150.212,37.8258 152.545,37.3258 154.5,35.5C 158.253,33.8608 162.253,33.1941 166.5,33.5C 172.841,35.5096 175.674,39.8429 175,46.5C 172.65,48.6829 170.483,51.0163 168.5,53.5C 171.186,55.8558 173.853,58.1891 176.5,60.5C 177.5,62.5 178.5,64.5 179.5,66.5C 178.833,66.5 178.167,66.5 177.5,66.5C 174.729,63.6082 171.729,60.9416 168.5,58.5C 166.531,56.8414 164.531,55.1747 162.5,53.5C 168.393,51.0479 170.559,46.7145 169,40.5C 164.309,35.8559 159.142,35.1892 153.5,38.5C 152.508,38.3284 151.842,38.6618 151.5,39.5C 149.473,39.6621 147.473,39.4955 145.5,39C 142.621,36.0651 139.288,33.8985 135.5,32.5C 132.833,31.1667 130.167,31.1667 127.5,32.5C 123.942,34.9679 119.942,35.9679 115.5,35.5C 113.071,32.9743 110.071,32.141 106.5,33C 102.465,36.7002 98.7981,40.7002 95.5,45C 93.9221,46.0945 92.2554,46.9278 90.5,47.5C 88.1667,46.1667 85.8333,46.1667 83.5,47.5C 81.6854,46.3702 79.6854,45.7036 77.5,45.5C 78.5511,44.7777 79.2178,43.7777 79.5,42.5C 86.0931,47.132 91.7597,46.132 96.5,39.5C 99.306,35.8627 102.639,32.6961 106.5,30C 108.167,29.3333 109.833,29.3333 111.5,30C 113.513,31.2572 115.679,32.0905 118,32.5C 123.302,30.6805 128.302,28.3472 133,25.5C 136.173,26.1873 139.006,27.5206 141.5,29.5 Z"/>
<path fill="#fcecc6" d="M 127.5,32.5 C 128.043,32.56 128.376,32.8933 128.5,33.5C 127.758,34.2868 126.925,34.9535 126,35.5C 122.199,45.4272 118.699,55.4272 115.5,65.5C 113.856,65.8102 112.856,66.8102 112.5,68.5C 111.078,68.7496 110.078,69.583 109.5,71C 106.574,71.2178 103.74,71.7178 101,72.5C 100.015,70.8251 99.1814,69.1585 98.5,67.5C 98.573,65.9731 97.9063,64.9731 96.5,64.5C 97.4629,62.7016 96.7962,61.3683 94.5,60.5C 95.7598,59.6184 96.9264,58.6184 98,57.5C 98.6172,56.5509 98.4506,55.7175 97.5,55C 99.1341,54.5065 100.801,54.3398 102.5,54.5C 103.805,48.6382 101.472,46.1382 95.5,47C 99.3998,43.1896 103.066,39.1896 106.5,35C 109.531,34.5046 112.531,34.6713 115.5,35.5C 119.942,35.9679 123.942,34.9679 127.5,32.5 Z"/>
<path style="opacity:0.997" fill="#14110e" d="M 77.5,38.5 C 78.6737,39.5137 79.3404,40.847 79.5,42.5C 79.2178,43.7777 78.5511,44.7777 77.5,45.5C 76.2185,48.7307 76.2185,52.0641 77.5,55.5C 78.5,58.1667 79.5,58.1667 80.5,55.5C 81.5566,53.0587 82.89,50.7254 84.5,48.5C 84.3764,47.8933 84.0431,47.56 83.5,47.5C 85.8333,46.1667 88.1667,46.1667 90.5,47.5C 89.5041,47.4142 88.6708,47.7476 88,48.5C 77.0748,65.9021 74.5748,84.2354 80.5,103.5C 83.5945,112.895 88.9278,120.561 96.5,126.5C 107.406,136.58 120.406,140.913 135.5,139.5C 133.709,140.17 132.042,140.837 130.5,141.5C 124.01,141.98 117.677,141.313 111.5,139.5C 110.304,139.846 110.304,140.346 111.5,141C 113.65,142.411 115.984,143.245 118.5,143.5C 130.305,146.104 140.805,143.438 150,135.5C 151.559,133.783 152.392,131.783 152.5,129.5C 153.421,128.019 154.588,126.686 156,125.5C 156.765,125.57 157.265,125.903 157.5,126.5C 155.735,129.393 154.568,132.726 154,136.5C 151.937,138.734 149.771,140.734 147.5,142.5C 143.993,144.754 140.327,146.754 136.5,148.5C 129.789,148.713 123.123,148.38 116.5,147.5C 114.981,146.59 113.315,145.757 111.5,145C 109.044,142.054 106.377,139.387 103.5,137C 100.592,136.311 97.9252,135.145 95.5,133.5C 94.2404,135.353 94.2404,137.186 95.5,139C 97.8333,139.333 100.167,139.667 102.5,140C 103.056,140.383 103.389,140.883 103.5,141.5C 102.5,141.5 101.5,141.5 100.5,141.5C 99.1667,141.5 97.8333,141.5 96.5,141.5C 94.5,140.833 92.5,140.167 90.5,139.5C 91.4794,136.375 91.8128,133.042 91.5,129.5C 86.1046,130.704 81.1046,132.704 76.5,135.5C 74.7162,135.893 73.0495,136.559 71.5,137.5C 70.4479,135.744 68.7812,135.077 66.5,135.5C 72.9852,132.092 79.6519,128.925 86.5,126C 79.1249,117.566 74.6249,107.733 73,96.5C 71.2961,84.3776 72.7961,72.7109 77.5,61.5C 72.336,55.6315 71.336,49.2981 74.5,42.5C 75.8571,41.4097 76.8571,40.0764 77.5,38.5 Z"/>
<path fill="#f7e0b0" d="M 127.5,32.5 C 130.167,31.1667 132.833,31.1667 135.5,32.5C 134.448,32.3505 133.448,32.5172 132.5,33C 133.76,35.2125 134.426,37.7125 134.5,40.5C 134.167,42.8333 133.833,45.1667 133.5,47.5C 132.833,43.5 132.167,39.5 131.5,35.5C 130.669,42.1419 130.169,48.8085 130,55.5C 129.394,58.43 128.56,61.2633 127.5,64C 129.891,64.6914 129.891,65.6914 127.5,67C 128.059,67.7247 128.392,68.5581 128.5,69.5C 126.965,72.1292 125.632,74.7958 124.5,77.5C 121.691,80.9 120.025,84.9 119.5,89.5C 116.257,92.4661 113.424,92.1327 111,88.5C 110.305,85.0037 110.805,81.6703 112.5,78.5C 112.376,77.8933 112.043,77.56 111.5,77.5C 113.396,73.7026 114.73,69.7026 115.5,65.5C 118.699,55.4272 122.199,45.4272 126,35.5C 126.925,34.9535 127.758,34.2868 128.5,33.5C 128.376,32.8933 128.043,32.56 127.5,32.5 Z"/>
<path fill="#f5df47" d="M 77.5,45.5 C 79.6854,45.7036 81.6854,46.3702 83.5,47.5C 84.0431,47.56 84.3764,47.8933 84.5,48.5C 82.89,50.7254 81.5566,53.0587 80.5,55.5C 79.5,56.8333 78.5,56.8333 77.5,55.5C 76.2185,52.0641 76.2185,48.7307 77.5,45.5 Z"/>
<path fill="#c48a24" d="M 170.5,24.5 C 175.248,26.913 178.581,30.5796 180.5,35.5C 179.671,41.9992 179.005,48.6659 178.5,55.5C 178.276,57.4547 177.609,59.1213 176.5,60.5C 173.853,58.1891 171.186,55.8558 168.5,53.5C 170.483,51.0163 172.65,48.6829 175,46.5C 175.674,39.8429 172.841,35.5096 166.5,33.5C 164.708,32.6909 162.708,32.1909 160.5,32C 163.562,31.2585 166.562,31.4252 169.5,32.5C 169.768,29.7232 170.101,27.0565 170.5,24.5 Z"/>
<path fill="#daa229" d="M 180.5,35.5 C 184.728,40.3206 186.395,45.9873 185.5,52.5C 185.932,58.8386 184.765,64.8386 182,70.5C 181.392,68.9336 180.558,67.6002 179.5,66.5C 178.5,64.5 177.5,62.5 176.5,60.5C 177.609,59.1213 178.276,57.4547 178.5,55.5C 179.005,48.6659 179.671,41.9992 180.5,35.5 Z"/>
<path fill="#786530" d="M 77.5,55.5 C 78.5,56.8333 79.5,56.8333 80.5,55.5C 79.5,58.1667 78.5,58.1667 77.5,55.5 Z"/>
<path fill="#f8ecc9" d="M 115.5,35.5 C 112.531,34.6713 109.531,34.5046 106.5,35C 103.066,39.1896 99.3998,43.1896 95.5,47C 101.472,46.1382 103.805,48.6382 102.5,54.5C 100.801,54.3398 99.1341,54.5065 97.5,55C 98.4506,55.7175 98.6172,56.5509 98,57.5C 96.9264,58.6184 95.7598,59.6184 94.5,60.5C 96.7962,61.3683 97.4629,62.7016 96.5,64.5C 93.7081,64.4521 91.8747,65.7854 91,68.5C 89.7955,72.3761 90.7955,75.3761 94,77.5C 95.2613,77.2409 96.2613,76.5742 97,75.5C 98.0793,72.9373 98.5793,70.2706 98.5,67.5C 99.1814,69.1585 100.015,70.8251 101,72.5C 103.74,71.7178 106.574,71.2178 109.5,71C 110.078,69.583 111.078,68.7496 112.5,68.5C 109.218,74.4423 105.551,80.109 101.5,85.5C 103.046,91.3325 106.712,94.6659 112.5,95.5C 110.534,102.474 105.867,105.14 98.5,103.5C 96.139,103.326 93.8056,102.993 91.5,102.5C 91.6567,101.127 91.49,99.7932 91,98.5C 89.2476,100.351 87.7476,102.351 86.5,104.5C 85.2947,103.328 85.2947,101.995 86.5,100.5C 85.9646,98.7295 85.1313,98.3961 84,99.5C 83.3333,98.1667 82.6667,96.8333 82,95.5C 81.8303,89.4725 81.3303,83.4725 80.5,77.5C 79.7666,86.367 79.7666,95.0337 80.5,103.5C 74.5748,84.2354 77.0748,65.9021 88,48.5C 88.6708,47.7476 89.5041,47.4142 90.5,47.5C 92.2554,46.9278 93.9221,46.0945 95.5,45C 98.7981,40.7002 102.465,36.7002 106.5,33C 110.071,32.141 113.071,32.9743 115.5,35.5 Z"/>
<path fill="#201e19" d="M 95.5,49.5 C 97.1667,49.5 98.8333,49.5 100.5,49.5C 100.5,50.5 100.5,51.5 100.5,52.5C 96.413,52.2935 92.913,53.6269 90,56.5C 89.3333,55.8333 89.3333,55.1667 90,54.5C 92.1906,53.1666 94.024,51.5 95.5,49.5 Z"/>
<path fill="#fae8be" d="M 135.5,32.5 C 139.288,33.8985 142.621,36.0651 145.5,39C 147.473,39.4955 149.473,39.6621 151.5,39.5C 152.75,39.5774 153.583,40.244 154,41.5C 156.949,47.6055 157.782,53.9389 156.5,60.5C 154.729,61.0354 154.396,61.8687 155.5,63C 154.221,67.7151 153.388,72.5484 153,77.5C 150.836,81.8288 148.669,86.1621 146.5,90.5C 145.504,90.5858 144.671,90.2524 144,89.5C 144.263,88.0494 144.096,86.7161 143.5,85.5C 142.833,86.1667 142.167,86.8333 141.5,87.5C 139.792,85.3089 137.792,84.9756 135.5,86.5C 130.466,85.0281 126.8,82.0281 124.5,77.5C 125.632,74.7958 126.965,72.1292 128.5,69.5C 128.392,68.5581 128.059,67.7247 127.5,67C 129.891,65.6914 129.891,64.6914 127.5,64C 128.56,61.2633 129.394,58.43 130,55.5C 130.169,48.8085 130.669,42.1419 131.5,35.5C 132.167,39.5 132.833,43.5 133.5,47.5C 133.833,45.1667 134.167,42.8333 134.5,40.5C 134.426,37.7125 133.76,35.2125 132.5,33C 133.448,32.5172 134.448,32.3505 135.5,32.5 Z"/>
<path fill="#25221d" d="M 135.5,47.5 C 141.071,49.2283 144.238,52.8949 145,58.5C 141.942,54.721 138.109,52.0543 133.5,50.5C 134.193,49.4822 134.859,48.4822 135.5,47.5 Z"/>
<path fill="#161411" d="M 96.5,64.5 C 97.9063,64.9731 98.573,65.9731 98.5,67.5C 98.5793,70.2706 98.0793,72.9373 97,75.5C 96.2613,76.5742 95.2613,77.2409 94,77.5C 90.7955,75.3761 89.7955,72.3761 91,68.5C 91.8747,65.7854 93.7081,64.4521 96.5,64.5 Z"/>
<path fill="#171411" d="M 134.5,64.5 C 141.404,64.067 144.404,67.067 143.5,73.5C 138.974,71.4358 134.307,69.7691 129.5,68.5C 131.015,66.9178 132.681,65.5845 134.5,64.5 Z"/>
<path fill="#dcc286" d="M 167.5,59.5 C 167.5,58.8333 167.833,58.5 168.5,58.5C 171.729,60.9416 174.729,63.6082 177.5,66.5C 178.11,67.391 178.443,68.391 178.5,69.5C 178.672,70.4916 178.338,71.1583 177.5,71.5C 175.267,66.599 171.934,62.599 167.5,59.5 Z"/>
<path fill="#161411" d="M 115.5,65.5 C 114.73,69.7026 113.396,73.7026 111.5,77.5C 109.65,79.8661 108.317,82.5328 107.5,85.5C 109.687,88.5401 111.353,91.8734 112.5,95.5C 106.712,94.6659 103.046,91.3325 101.5,85.5C 105.551,80.109 109.218,74.4423 112.5,68.5C 112.856,66.8102 113.856,65.8102 115.5,65.5 Z"/>
<path fill="#6c5539" d="M 178.5,69.5 C 179.339,70.6412 180.006,71.9745 180.5,73.5C 178.917,74.3118 177.917,73.6452 177.5,71.5C 178.338,71.1583 178.672,70.4916 178.5,69.5 Z"/>
<path fill="#23180e" d="M 165.5,72.5 C 169.543,74.0081 171.543,76.6748 171.5,80.5C 169.814,79.1431 168.148,77.8098 166.5,76.5C 165.34,75.735 164.34,74.735 163.5,73.5C 163.957,72.7025 164.624,72.3691 165.5,72.5 Z"/>
<path fill="#f6e3b7" d="M 111.5,77.5 C 112.043,77.56 112.376,77.8933 112.5,78.5C 110.805,81.6703 110.305,85.0037 111,88.5C 113.424,92.1327 116.257,92.4661 119.5,89.5C 120.025,84.9 121.691,80.9 124.5,77.5C 126.8,82.0281 130.466,85.0281 135.5,86.5C 137.792,84.9756 139.792,85.3089 141.5,87.5C 142.167,86.8333 142.833,86.1667 143.5,85.5C 144.096,86.7161 144.263,88.0494 144,89.5C 144.671,90.2524 145.504,90.5858 146.5,90.5C 145.151,92.5776 143.484,94.4109 141.5,96C 141.645,96.772 141.978,97.4387 142.5,98C 143.833,98.3333 145.167,98.6667 146.5,99C 145.074,101.045 144.074,103.212 143.5,105.5C 143.66,103.801 143.494,102.134 143,100.5C 139.799,96.9115 135.965,94.7449 131.5,94C 133.14,96.7758 132.473,98.7758 129.5,100C 124.162,101.335 118.829,102.669 113.5,104C 108.316,104.816 103.316,104.65 98.5,103.5C 105.867,105.14 110.534,102.474 112.5,95.5C 111.353,91.8734 109.687,88.5401 107.5,85.5C 108.317,82.5328 109.65,79.8661 111.5,77.5 Z"/>
<path fill="#22190f" d="M 166.5,79.5 C 167.167,80.5 167.833,81.5 168.5,82.5C 168.649,83.552 168.483,84.552 168,85.5C 167.333,83.5 166,82.1667 164,81.5C 163.812,79.9387 164.645,79.272 166.5,79.5 Z"/>
<path fill="#d3a15f" d="M 166.5,69.5 C 170.498,72.6652 173.998,76.3319 177,80.5C 177.54,82.1346 177.04,83.4679 175.5,84.5C 178.068,87.3962 179.735,90.7295 180.5,94.5C 178.225,101.662 173.225,105.495 165.5,106C 163.28,108.713 161.28,111.546 159.5,114.5C 157.299,114.142 155.965,112.808 155.5,110.5C 156.77,109.712 157.77,108.712 158.5,107.5C 159.474,106.365 160.641,105.365 162,104.5C 162.893,105.711 163.726,105.711 164.5,104.5C 161.985,103.8 161.318,102.467 162.5,100.5C 161.975,99.8076 161.308,99.3076 160.5,99C 162,98.1667 163.167,97 164,95.5C 164.333,96.1667 164.667,96.8333 165,97.5C 165.212,94.7478 166.045,92.2478 167.5,90C 165.847,87.589 166.513,86.4223 169.5,86.5C 169.768,84.901 169.434,83.5676 168.5,82.5C 167.833,81.5 167.167,80.5 166.5,79.5C 162.582,78.5246 162.582,77.5246 166.5,76.5C 168.148,77.8098 169.814,79.1431 171.5,80.5C 171.543,76.6748 169.543,74.0081 165.5,72.5C 162.9,71.0311 163.233,70.0311 166.5,69.5 Z"/>
<path fill="#ca9755" d="M 168.5,58.5 C 167.833,58.5 167.5,58.8333 167.5,59.5C 166.469,58.645 165.303,57.9783 164,57.5C 162.743,57.8499 162.409,58.5165 163,59.5C 170.122,64.453 175.622,70.7864 179.5,78.5C 178.726,79.7112 177.893,79.7112 177,78.5C 175.353,73.8443 172.52,70.011 168.5,67C 166.854,65.5986 165.187,65.432 163.5,66.5C 164.77,67.2876 165.77,68.2876 166.5,69.5C 163.233,70.0311 162.9,71.0311 165.5,72.5C 164.624,72.3691 163.957,72.7025 163.5,73.5C 164.34,74.735 165.34,75.735 166.5,76.5C 162.582,77.5246 162.582,78.5246 166.5,79.5C 164.645,79.272 163.812,79.9387 164,81.5C 166,82.1667 167.333,83.5 168,85.5C 168.483,84.552 168.649,83.552 168.5,82.5C 169.434,83.5676 169.768,84.901 169.5,86.5C 166.513,86.4223 165.847,87.589 167.5,90C 166.045,92.2478 165.212,94.7478 165,97.5C 164.667,96.8333 164.333,96.1667 164,95.5C 163.167,97 162,98.1667 160.5,99C 161.308,99.3076 161.975,99.8076 162.5,100.5C 161.318,102.467 161.985,103.8 164.5,104.5C 163.726,105.711 162.893,105.711 162,104.5C 160.641,105.365 159.474,106.365 158.5,107.5C 158.657,106.127 158.49,104.793 158,103.5C 155.828,102.491 154.662,100.824 154.5,98.5C 157.454,88.0161 159.454,77.3494 160.5,66.5C 160.069,57.413 158.403,48.5796 155.5,40C 155.164,38.9701 154.497,38.4701 153.5,38.5C 159.142,35.1892 164.309,35.8559 169,40.5C 170.559,46.7145 168.393,51.0479 162.5,53.5C 164.531,55.1747 166.531,56.8414 168.5,58.5 Z"/>
<path fill="#f8e0ae" d="M 151.5,39.5 C 151.842,38.6618 152.508,38.3284 153.5,38.5C 154.497,38.4701 155.164,38.9701 155.5,40C 158.403,48.5796 160.069,57.413 160.5,66.5C 159.454,77.3494 157.454,88.0161 154.5,98.5C 152.784,102.292 151.284,106.292 150,110.5C 148.974,113.239 147.474,115.572 145.5,117.5C 144.286,115.851 142.953,114.185 141.5,112.5C 140.914,112.709 140.414,113.043 140,113.5C 139.506,111.866 139.34,110.199 139.5,108.5C 139.5,107.833 139.5,107.167 139.5,106.5C 140.163,108.042 140.83,109.709 141.5,111.5C 142.169,109.369 142.835,107.369 143.5,105.5C 144.074,103.212 145.074,101.045 146.5,99C 145.167,98.6667 143.833,98.3333 142.5,98C 141.978,97.4387 141.645,96.772 141.5,96C 143.484,94.4109 145.151,92.5776 146.5,90.5C 148.669,86.1621 150.836,81.8288 153,77.5C 153.388,72.5484 154.221,67.7151 155.5,63C 154.396,61.8687 154.729,61.0354 156.5,60.5C 157.782,53.9389 156.949,47.6055 154,41.5C 153.583,40.244 152.75,39.5774 151.5,39.5 Z"/>
<path fill="#1b1a18" d="M 143.5,105.5 C 142.835,107.369 142.169,109.369 141.5,111.5C 140.83,109.709 140.163,108.042 139.5,106.5C 134.595,108.952 129.595,111.452 124.5,114C 113.598,117.976 103.265,116.81 93.5,110.5C 92.8333,111.5 92.1667,112.5 91.5,113.5C 89.5594,110.616 87.8928,107.616 86.5,104.5C 87.7476,102.351 89.2476,100.351 91,98.5C 91.49,99.7932 91.6567,101.127 91.5,102.5C 93.8056,102.993 96.139,103.326 98.5,103.5C 103.316,104.65 108.316,104.816 113.5,104C 118.829,102.669 124.162,101.335 129.5,100C 132.473,98.7758 133.14,96.7758 131.5,94C 135.965,94.7449 139.799,96.9115 143,100.5C 143.494,102.134 143.66,103.801 143.5,105.5 Z"/>
<path fill="#e9e7e6" d="M 131.5,100.5 C 133.262,100.357 134.929,100.691 136.5,101.5C 137.833,102.5 137.833,103.5 136.5,104.5C 126.524,111.435 115.524,113.935 103.5,112C 99.046,110.936 95.046,109.103 91.5,106.5C 99.7867,106.347 108.12,106.18 116.5,106C 121.897,104.913 126.897,103.08 131.5,100.5 Z"/>
<path fill="#f9e2b0" d="M 139.5,108.5 C 139.34,110.199 139.506,111.866 140,113.5C 140.414,113.043 140.914,112.709 141.5,112.5C 142.953,114.185 144.286,115.851 145.5,117.5C 137.076,126.622 126.576,130.955 114,130.5C 110.43,130.456 106.93,129.956 103.5,129C 102.944,128.617 102.611,128.117 102.5,127.5C 105.187,127.664 107.854,127.497 110.5,127C 112.957,125.438 115.624,124.438 118.5,124C 117.263,123.768 116.263,123.268 115.5,122.5C 117.199,122.66 118.866,122.494 120.5,122C 121.252,121.329 121.586,120.496 121.5,119.5C 122.222,119.918 122.722,120.584 123,121.5C 122.954,119.687 123.12,118.021 123.5,116.5C 129.119,114.167 134.452,111.5 139.5,108.5 Z"/>
<path fill="#f8ebc9" d="M 86.5,104.5 C 87.8928,107.616 89.5594,110.616 91.5,113.5C 92.1667,112.5 92.8333,111.5 93.5,110.5C 103.265,116.81 113.598,117.976 124.5,114C 129.595,111.452 134.595,108.952 139.5,106.5C 139.5,107.167 139.5,107.833 139.5,108.5C 134.452,111.5 129.119,114.167 123.5,116.5C 123.12,118.021 122.954,119.687 123,121.5C 122.722,120.584 122.222,119.918 121.5,119.5C 117.981,118.192 114.315,118.192 110.5,119.5C 111.94,120.952 113.606,121.952 115.5,122.5C 116.263,123.268 117.263,123.768 118.5,124C 115.624,124.438 112.957,125.438 110.5,127C 107.854,127.497 105.187,127.664 102.5,127.5C 100.5,127.167 98.5,126.833 96.5,126.5C 88.9278,120.561 83.5945,112.895 80.5,103.5C 79.7666,95.0337 79.7666,86.367 80.5,77.5C 81.3303,83.4725 81.8303,89.4725 82,95.5C 82.6667,96.8333 83.3333,98.1667 84,99.5C 85.1313,98.3961 85.9646,98.7295 86.5,100.5C 85.2947,101.995 85.2947,103.328 86.5,104.5 Z"/>
<path fill="#211f1b" d="M 121.5,119.5 C 121.586,120.496 121.252,121.329 120.5,122C 118.866,122.494 117.199,122.66 115.5,122.5C 113.606,121.952 111.94,120.952 110.5,119.5C 114.315,118.192 117.981,118.192 121.5,119.5 Z"/>
<path fill="#ce9b59" d="M 154.5,98.5 C 154.662,100.824 155.828,102.491 158,103.5C 158.49,104.793 158.657,106.127 158.5,107.5C 157.77,108.712 156.77,109.712 155.5,110.5C 155.965,112.808 157.299,114.142 159.5,114.5C 154.335,121.341 148.001,126.675 140.5,130.5C 144.255,130.594 147.922,129.594 151.5,127.5C 152.298,127.957 152.631,128.624 152.5,129.5C 152.392,131.783 151.559,133.783 150,135.5C 140.805,143.438 130.305,146.104 118.5,143.5C 122.5,142.833 126.5,142.167 130.5,141.5C 132.042,140.837 133.709,140.17 135.5,139.5C 120.406,140.913 107.406,136.58 96.5,126.5C 98.5,126.833 100.5,127.167 102.5,127.5C 102.611,128.117 102.944,128.617 103.5,129C 106.93,129.956 110.43,130.456 114,130.5C 126.576,130.955 137.076,126.622 145.5,117.5C 147.474,115.572 148.974,113.239 150,110.5C 151.284,106.292 152.784,102.292 154.5,98.5 Z"/>
<path fill="#d69e2a" d="M 157.5,126.5 C 160.397,127.129 163.064,128.129 165.5,129.5C 165.726,133.455 165.059,136.455 163.5,138.5C 158.503,139.626 153.67,141.293 149,143.5C 148.235,143.43 147.735,143.097 147.5,142.5C 149.771,140.734 151.937,138.734 154,136.5C 154.568,132.726 155.735,129.393 157.5,126.5 Z"/>
<path fill="#034d6e" d="M 181.5,136.5 C 178.213,137.264 175.546,139.097 173.5,142C 170.929,143.454 168.262,144.62 165.5,145.5C 167.813,140.862 169.146,135.862 169.5,130.5C 173.592,132.546 177.592,134.546 181.5,136.5 Z"/>
<path fill="#d0a133" d="M 116.5,147.5 C 115.167,147.5 114.5,148.167 114.5,149.5C 111.139,148.466 108.806,146.299 107.5,143C 106.255,142.209 104.922,141.709 103.5,141.5C 103.389,140.883 103.056,140.383 102.5,140C 100.167,139.667 97.8333,139.333 95.5,139C 94.2404,137.186 94.2404,135.353 95.5,133.5C 97.9252,135.145 100.592,136.311 103.5,137C 106.377,139.387 109.044,142.054 111.5,145C 113.315,145.757 114.981,146.59 116.5,147.5 Z"/>
<path fill="#b48954" d="M 130.5,141.5 C 126.5,142.167 122.5,142.833 118.5,143.5C 115.984,143.245 113.65,142.411 111.5,141C 110.304,140.346 110.304,139.846 111.5,139.5C 117.677,141.313 124.01,141.98 130.5,141.5 Z"/>
<path fill="#b57a20" d="M 165.5,129.5 C 166.338,138.17 163.005,145.17 155.5,150.5C 150.359,150.323 145.026,150.156 139.5,150C 138.263,149.768 137.263,149.268 136.5,148.5C 140.327,146.754 143.993,144.754 147.5,142.5C 147.735,143.097 148.235,143.43 149,143.5C 153.67,141.293 158.503,139.626 163.5,138.5C 165.059,136.455 165.726,133.455 165.5,129.5 Z"/>
<path fill="#0273a8" d="M 203.5,148.5 C 207.417,150.412 211.083,152.745 214.5,155.5C 214.833,156.167 215.167,156.833 215.5,157.5C 214.262,157.81 214.262,158.31 215.5,159C 213.19,159.497 210.857,159.663 208.5,159.5C 209.005,165.508 208.005,171.175 205.5,176.5C 206.5,177.167 207.5,177.833 208.5,178.5C 207.167,181.167 207.833,181.833 210.5,180.5C 211.5,182 212.5,183.5 213.5,185C 213.355,185.772 213.022,186.439 212.5,187C 216.375,187.986 216.375,189.153 212.5,190.5C 211.482,189.807 210.482,189.141 209.5,188.5C 209.167,188.5 208.833,188.5 208.5,188.5C 208.702,184.155 207.369,183.488 204.5,186.5C 201.21,183.244 199.543,179.244 199.5,174.5C 198.5,174.5 197.5,174.5 196.5,174.5C 196.737,173.209 196.404,172.209 195.5,171.5C 193.87,169.974 193.037,167.974 193,165.5C 191.035,163.45 188.868,161.783 186.5,160.5C 188.379,160.607 188.712,160.107 187.5,159C 189.555,155.047 191.221,150.881 192.5,146.5C 193.293,146.069 194.127,145.735 195,145.5C 196.304,146.905 198.304,148.238 201,149.5C 201.671,148.748 202.504,148.414 203.5,148.5 Z"/>
<path style="opacity:0.987" fill="#0f1214" d="M 66.5,135.5 C 68.7812,135.077 70.4479,135.744 71.5,137.5C 53.6201,145.215 38.4534,156.548 26,171.5C 25.1534,173.193 24.3201,174.86 23.5,176.5C 22.14,180.58 20.4733,184.58 18.5,188.5C 16.2989,193.486 15.2989,198.82 15.5,204.5C 15.7373,205.791 15.404,206.791 14.5,207.5C 13.8614,208.097 13.528,208.93 13.5,210C 15.2315,217.449 19.2315,223.449 25.5,228C 25.2716,228.399 24.9382,228.565 24.5,228.5C 12.9317,221.022 8.09839,210.355 10,196.5C 14.6482,179.699 23.4815,165.533 36.5,154C 45.7191,146.558 55.7191,140.391 66.5,135.5 Z"/>
<path fill="#0176ab" d="M 181.5,136.5 C 189.45,139.473 196.783,143.473 203.5,148.5C 202.504,148.414 201.671,148.748 201,149.5C 198.304,148.238 196.304,146.905 195,145.5C 194.127,145.735 193.293,146.069 192.5,146.5C 191.221,150.881 189.555,155.047 187.5,159C 188.712,160.107 188.379,160.607 186.5,160.5C 179.015,158.832 171.681,159.332 164.5,162C 162.174,163.805 160.508,165.972 159.5,168.5C 154.972,164.843 149.638,163.176 143.5,163.5C 143.33,162.178 143.663,161.011 144.5,160C 153.278,157.621 160.278,152.788 165.5,145.5C 168.262,144.62 170.929,143.454 173.5,142C 175.546,139.097 178.213,137.264 181.5,136.5 Z"/>
<path fill="#0a1115" d="M 90.5,139.5 C 92.5,140.167 94.5,140.833 96.5,141.5C 92.9581,141.187 89.6248,141.521 86.5,142.5C 79.0901,143.796 78.7567,145.962 85.5,149C 92.0544,150.081 98.3877,149.414 104.5,147C 105.451,146.282 105.617,145.449 105,144.5C 103.348,143.601 101.848,142.601 100.5,141.5C 101.5,141.5 102.5,141.5 103.5,141.5C 104.922,141.709 106.255,142.209 107.5,143C 108.806,146.299 111.139,148.466 114.5,149.5C 116.081,151.142 116.747,153.142 116.5,155.5C 117.568,156.434 118.901,156.768 120.5,156.5C 120.5,156.833 120.5,157.167 120.5,157.5C 117.509,157.33 115.509,158.663 114.5,161.5C 115.668,163.217 117.335,163.884 119.5,163.5C 123.5,163.5 127.5,163.5 131.5,163.5C 133.292,163.634 134.958,163.301 136.5,162.5C 137.167,163.5 137.833,164.5 138.5,165.5C 136.574,166.486 134.574,167.486 132.5,168.5C 132.719,167.325 132.386,166.325 131.5,165.5C 131.984,166.781 131.317,167.781 129.5,168.5C 126.359,167.679 123.025,167.179 119.5,167C 117.481,166.55 115.648,165.717 114,164.5C 113.517,165.448 113.351,166.448 113.5,167.5C 118.26,169.24 123.26,169.906 128.5,169.5C 126.502,170.148 124.502,170.981 122.5,172C 124.708,172.191 126.708,172.691 128.5,173.5C 123.959,173.157 119.626,173.157 115.5,173.5C 114.833,174.167 114.167,174.833 113.5,175.5C 113.631,174.624 113.298,173.957 112.5,173.5C 106.414,177.57 99.7472,178.57 92.5,176.5C 91.2867,176.747 90.62,177.414 90.5,178.5C 89.1667,176.5 89.1667,174.5 90.5,172.5C 90.6107,173.117 90.944,173.617 91.5,174C 97.204,174.53 102.871,174.197 108.5,173C 109.5,172.167 110.5,171.333 111.5,170.5C 111.113,169.28 110.28,168.613 109,168.5C 105.536,170.826 101.703,172.16 97.5,172.5C 94.5,171.833 91.5,171.167 88.5,170.5C 93.5364,170.412 98.5364,169.912 103.5,169C 106.188,168.218 107.188,166.718 106.5,164.5C 101.484,167.07 96.151,168.07 90.5,167.5C 86.6942,167.98 83.3609,166.98 80.5,164.5C 79.3347,165.86 79.668,166.86 81.5,167.5C 80.4324,168.434 79.099,168.768 77.5,168.5C 74.5,168.5 71.5,168.5 68.5,168.5C 67.1667,168.5 65.8333,168.5 64.5,168.5C 68.5448,166.823 72.8781,166.156 77.5,166.5C 76.3519,161.561 78.0186,158.061 82.5,156C 80.714,155.215 79.214,154.049 78,152.5C 76.11,142.651 80.2767,138.318 90.5,139.5 Z"/>
<path fill="#308baf" d="M 96.5,141.5 C 97.8333,141.5 99.1667,141.5 100.5,141.5C 101.848,142.601 103.348,143.601 105,144.5C 105.617,145.449 105.451,146.282 104.5,147C 98.3877,149.414 92.0544,150.081 85.5,149C 78.7567,145.962 79.0901,143.796 86.5,142.5C 89.6248,141.521 92.9581,141.187 96.5,141.5 Z"/>
<path fill="#e8f1f6" d="M 86.5,142.5 C 90.5138,142.334 94.5138,142.501 98.5,143C 101.003,144.784 101.003,146.451 98.5,148C 95.1667,148.667 91.8333,148.667 88.5,148C 84.2246,147.3 83.558,145.466 86.5,142.5 Z"/>
<path fill="#ecd033" d="M 116.5,147.5 C 123.123,148.38 129.789,148.713 136.5,148.5C 137.263,149.268 138.263,149.768 139.5,150C 145.026,150.156 150.359,150.323 155.5,150.5C 150.972,153.932 145.972,156.599 140.5,158.5C 138.205,156.52 135.539,155.353 132.5,155C 127.115,154.267 121.782,154.433 116.5,155.5C 116.747,153.142 116.081,151.142 114.5,149.5C 114.5,148.167 115.167,147.5 116.5,147.5 Z"/>
<path fill="#1388b7" d="M 76.5,135.5 C 78.3079,136.918 78.9746,138.918 78.5,141.5C 77.325,141.281 76.325,141.614 75.5,142.5C 76.7485,145.494 76.7485,148.494 75.5,151.5C 65.9159,157.423 56.9159,164.09 48.5,171.5C 43.8015,177.193 39.8015,183.526 36.5,190.5C 33.6824,191.881 32.1824,190.881 32,187.5C 31.1841,186.177 30.0174,185.511 28.5,185.5C 27.7934,183.866 26.6268,182.532 25,181.5C 23.9914,179.975 23.4914,178.308 23.5,176.5C 24.3201,174.86 25.1534,173.193 26,171.5C 38.4534,156.548 53.6201,145.215 71.5,137.5C 73.0495,136.559 74.7162,135.893 76.5,135.5 Z"/>
<path fill="#338fb2" d="M 86.5,151.5 C 89.3583,152.166 92.3583,152.833 95.5,153.5C 92.2317,154.487 88.8984,154.82 85.5,154.5C 82.8975,153.709 80.8975,152.209 79.5,150C 79.6667,149.5 79.8333,149 80,148.5C 81.8425,150.171 84.0092,151.171 86.5,151.5 Z"/>
<path fill="#20596b" d="M 85.5,154.5 C 88.8984,154.82 92.2317,154.487 95.5,153.5C 92.3583,152.833 89.3583,152.166 86.5,151.5C 91.1785,151.666 95.8452,151.499 100.5,151C 102.78,150.767 104.78,149.934 106.5,148.5C 107.594,149.868 107.26,151.035 105.5,152C 98.9913,155.269 92.3246,156.102 85.5,154.5 Z"/>
<path fill="#2b7e98" d="M 109.5,154.5 C 108.508,154.672 107.842,154.338 107.5,153.5C 108.234,152.292 108.567,150.959 108.5,149.5C 110.635,149.147 111.968,149.98 112.5,152C 112.252,153.749 111.252,154.582 109.5,154.5 Z"/>
<path style="opacity:0.974" fill="#0f1113" d="M 214.5,155.5 C 215.833,155.5 217.167,155.5 218.5,155.5C 233.259,168.68 242.593,185.013 246.5,204.5C 246.392,208.327 245.558,211.993 244,215.5C 234.351,230.773 220.518,240.273 202.5,244C 195.83,244.882 189.164,245.715 182.5,246.5C 183.398,245.842 184.398,245.176 185.5,244.5C 185.376,243.893 185.043,243.56 184.5,243.5C 185.919,242.549 187.585,242.216 189.5,242.5C 206.13,240.351 220.63,233.684 233,222.5C 240.634,213.457 242.467,203.457 238.5,192.5C 238.204,190.597 237.537,188.93 236.5,187.5C 236.065,184.843 235.065,182.509 233.5,180.5C 233.068,179.29 232.401,178.29 231.5,177.5C 227.3,169.962 221.966,163.296 215.5,157.5C 215.167,156.833 214.833,156.167 214.5,155.5 Z"/>
<path fill="#172e38" d="M 107.5,153.5 C 107.842,154.338 108.508,154.672 109.5,154.5C 106.788,155.359 104.122,156.525 101.5,158C 103.473,158.495 105.473,158.662 107.5,158.5C 102.434,159.716 97.4341,159.383 92.5,157.5C 97.9009,157.631 102.901,156.297 107.5,153.5 Z"/>
<path fill="#0576aa" d="M 90.5,139.5 C 80.2767,138.318 76.11,142.651 78,152.5C 79.214,154.049 80.714,155.215 82.5,156C 78.0186,158.061 76.3519,161.561 77.5,166.5C 72.8781,166.156 68.5448,166.823 64.5,168.5C 59.5967,169.412 57.2634,172.412 57.5,177.5C 55.8778,179.439 54.0445,179.772 52,178.5C 51.385,175.697 50.2183,173.364 48.5,171.5C 56.9159,164.09 65.9159,157.423 75.5,151.5C 76.7485,148.494 76.7485,145.494 75.5,142.5C 76.325,141.614 77.325,141.281 78.5,141.5C 78.9746,138.918 78.3079,136.918 76.5,135.5C 81.1046,132.704 86.1046,130.704 91.5,129.5C 91.8128,133.042 91.4794,136.375 90.5,139.5 Z"/>
<path fill="#667c89" d="M 120.5,157.5 C 120.5,157.167 120.5,156.833 120.5,156.5C 125.599,156.175 130.599,156.675 135.5,158C 137.782,159.084 138.116,160.584 136.5,162.5C 134.958,163.301 133.292,163.634 131.5,163.5C 133.248,162.211 133.581,160.711 132.5,159C 128.637,157.646 124.637,157.146 120.5,157.5 Z"/>
<path fill="#0177ac" d="M 215.5,157.5 C 221.966,163.296 227.3,169.962 231.5,177.5C 229.908,176.398 229.075,177.065 229,179.5C 228.333,178.833 227.667,178.167 227,177.5C 223.946,179.366 222.446,182.033 222.5,185.5C 219.14,184.79 217.307,186.124 217,189.5C 214.882,192.202 212.382,192.869 209.5,191.5C 209.5,190.5 209.5,189.5 209.5,188.5C 210.482,189.141 211.482,189.807 212.5,190.5C 216.375,189.153 216.375,187.986 212.5,187C 213.022,186.439 213.355,185.772 213.5,185C 212.5,183.5 211.5,182 210.5,180.5C 207.833,181.833 207.167,181.167 208.5,178.5C 207.5,177.833 206.5,177.167 205.5,176.5C 208.005,171.175 209.005,165.508 208.5,159.5C 210.857,159.663 213.19,159.497 215.5,159C 214.262,158.31 214.262,157.81 215.5,157.5 Z"/>
<path fill="#2a7e9b" d="M 92.5,157.5 C 97.4341,159.383 102.434,159.716 107.5,158.5C 109.396,157.519 111.396,156.519 113.5,155.5C 113.833,155.833 114.167,156.167 114.5,156.5C 112.717,158.232 110.717,159.732 108.5,161C 103.167,161.667 97.8333,161.667 92.5,161C 90.8333,160 89.1667,159 87.5,158C 89.1341,157.506 90.8008,157.34 92.5,157.5 Z"/>
<path fill="#188eb4" d="M 83.5,158.5 C 85.9324,159.75 88.2657,161.25 90.5,163C 93.8333,163.333 97.1667,163.667 100.5,164C 94.9361,165.85 89.2694,165.85 83.5,164C 80.8922,162.063 80.8922,160.23 83.5,158.5 Z"/>
<path fill="#64848f" d="M 120.5,157.5 C 119.791,158.404 118.791,158.737 117.5,158.5C 117.392,160.514 118.058,162.18 119.5,163.5C 117.335,163.884 115.668,163.217 114.5,161.5C 115.509,158.663 117.509,157.33 120.5,157.5 Z"/>
<path fill="#d4d9df" d="M 120.5,157.5 C 124.637,157.146 128.637,157.646 132.5,159C 133.581,160.711 133.248,162.211 131.5,163.5C 127.5,163.5 123.5,163.5 119.5,163.5C 118.058,162.18 117.392,160.514 117.5,158.5C 118.791,158.737 119.791,158.404 120.5,157.5 Z"/>
<path fill="#28677c" d="M 88.5,170.5 C 87.5084,170.672 86.8417,170.338 86.5,169.5C 88.4832,169.843 89.8166,169.176 90.5,167.5C 96.151,168.07 101.484,167.07 106.5,164.5C 107.188,166.718 106.188,168.218 103.5,169C 98.5364,169.912 93.5364,170.412 88.5,170.5 Z"/>
<path fill="#4fa0c4" d="M 90.5,167.5 C 89.8166,169.176 88.4832,169.843 86.5,169.5C 84.8333,168.833 83.1667,168.167 81.5,167.5C 79.668,166.86 79.3347,165.86 80.5,164.5C 83.3609,166.98 86.6942,167.98 90.5,167.5 Z"/>
<path fill="#445d6b" d="M 129.5,168.5 C 129.5,169.167 129.167,169.5 128.5,169.5C 123.26,169.906 118.26,169.24 113.5,167.5C 113.351,166.448 113.517,165.448 114,164.5C 115.648,165.717 117.481,166.55 119.5,167C 123.025,167.179 126.359,167.679 129.5,168.5 Z"/>
<path fill="#dcc356" d="M 138.5,165.5 C 144.402,164.962 150.068,165.795 155.5,168C 157.056,170.501 156.389,172.001 153.5,172.5C 152.127,172.657 150.793,172.49 149.5,172C 151.044,171.71 152.377,171.044 153.5,170C 152.956,169.283 152.289,168.783 151.5,168.5C 147.019,167.352 142.352,167.185 137.5,168C 136.272,169.49 136.272,170.99 137.5,172.5C 136.833,172.5 136.167,172.5 135.5,172.5C 133.088,172.306 132.088,170.973 132.5,168.5C 134.574,167.486 136.574,166.486 138.5,165.5 Z"/>
<path fill="#f0eee7" d="M 151.5,168.5 C 150.993,169.859 149.993,170.859 148.5,171.5C 144.893,172.489 141.226,172.823 137.5,172.5C 136.272,170.99 136.272,169.49 137.5,168C 142.352,167.185 147.019,167.352 151.5,168.5 Z"/>
<path fill="#285e72" d="M 90.5,172.5 C 92.8333,172.5 95.1667,172.5 97.5,172.5C 101.703,172.16 105.536,170.826 109,168.5C 110.28,168.613 111.113,169.28 111.5,170.5C 110.5,171.333 109.5,172.167 108.5,173C 102.871,174.197 97.204,174.53 91.5,174C 90.944,173.617 90.6107,173.117 90.5,172.5 Z"/>
<path fill="#c8b278" d="M 151.5,168.5 C 152.289,168.783 152.956,169.283 153.5,170C 152.377,171.044 151.044,171.71 149.5,172C 150.793,172.49 152.127,172.657 153.5,172.5C 150.644,174.006 147.477,174.672 144,174.5C 141.833,174.333 139.667,174.167 137.5,174C 136.584,173.722 135.918,173.222 135.5,172.5C 136.167,172.5 136.833,172.5 137.5,172.5C 141.226,172.823 144.893,172.489 148.5,171.5C 149.993,170.859 150.993,169.859 151.5,168.5 Z"/>
<path fill="#ecda4c" d="M 68.5,169.5 C 70.099,169.232 71.4324,169.566 72.5,170.5C 68.7593,169.599 66.7593,170.932 66.5,174.5C 66.1583,175.338 65.4916,175.672 64.5,175.5C 60.5128,173.959 60.5128,172.125 64.5,170C 65.7932,169.51 67.1266,169.343 68.5,169.5 Z"/>
<path fill="#efede8" d="M 72.5,170.5 C 75.5448,170.508 78.5448,170.841 81.5,171.5C 81.5,172.5 81.5,173.5 81.5,174.5C 79.8002,174.374 78.3002,173.707 77,172.5C 73.6977,174.139 70.1977,174.806 66.5,174.5C 66.7593,170.932 68.7593,169.599 72.5,170.5 Z"/>
<path fill="#ddc683" d="M 68.5,169.5 C 68.5,169.167 68.5,168.833 68.5,168.5C 71.5,168.5 74.5,168.5 77.5,168.5C 80.9063,168.903 83.9063,170.236 86.5,172.5C 86.4226,173.75 85.756,174.583 84.5,175C 77.6964,177.56 71.0297,177.727 64.5,175.5C 65.4916,175.672 66.1583,175.338 66.5,174.5C 70.1977,174.806 73.6977,174.139 77,172.5C 78.3002,173.707 79.8002,174.374 81.5,174.5C 81.5,173.5 81.5,172.5 81.5,171.5C 78.5448,170.841 75.5448,170.508 72.5,170.5C 71.4324,169.566 70.099,169.232 68.5,169.5 Z"/>
<path fill="#3c576a" d="M 128.5,173.5 C 127.129,174.787 125.295,175.453 123,175.5C 120.134,175.7 117.634,175.033 115.5,173.5C 119.626,173.157 123.959,173.157 128.5,173.5 Z"/>
<path fill="#8f7b30" d="M 129.5,177.5 C 130.492,177.328 131.158,177.662 131.5,178.5C 130.167,178.5 129.5,179.167 129.5,180.5C 128.662,180.158 128.328,179.492 128.5,178.5C 128.5,177.833 128.833,177.5 129.5,177.5 Z"/>
<path fill="#c19c4f" d="M 140.5,176.5 C 140.611,177.117 140.944,177.617 141.5,178C 139.866,178.494 138.199,178.66 136.5,178.5C 133.677,177.852 132.177,176.186 132,173.5C 134.492,175.497 137.325,176.497 140.5,176.5 Z"/>
<path fill="#836a3e" d="M 158.5,175.5 C 157.128,176.512 155.795,177.512 154.5,178.5C 148.349,179.664 142.349,179.664 136.5,178.5C 138.199,178.66 139.866,178.494 141.5,178C 140.944,177.617 140.611,177.117 140.5,176.5C 146.844,177.101 152.678,175.768 158,172.5C 158.483,173.448 158.649,174.448 158.5,175.5 Z"/>
<path fill="#756441" d="M 88.5,175.5 C 88.7271,177.933 87.7271,179.599 85.5,180.5C 82.2722,181.546 78.9389,182.212 75.5,182.5C 75.9175,181.778 76.5842,181.278 77.5,181C 76.944,180.617 76.6107,180.117 76.5,179.5C 78.1992,179.66 79.8659,179.494 81.5,179C 83.8502,177.825 86.1835,176.658 88.5,175.5 Z"/>
<path fill="#0381b4" d="M 231.5,177.5 C 232.401,178.29 233.068,179.29 233.5,180.5C 228.15,195.344 218.483,206.511 204.5,214C 194.665,218 184.665,221.5 174.5,224.5C 174.5,224.167 174.5,223.833 174.5,223.5C 175.404,222.791 175.737,221.791 175.5,220.5C 183.896,219.313 191.729,216.646 199,212.5C 199.667,211.5 199.667,210.5 199,209.5C 197.208,206.609 195.708,203.609 194.5,200.5C 199.461,196.874 204.128,192.874 208.5,188.5C 208.833,188.5 209.167,188.5 209.5,188.5C 209.5,189.5 209.5,190.5 209.5,191.5C 212.382,192.869 214.882,192.202 217,189.5C 217.307,186.124 219.14,184.79 222.5,185.5C 222.446,182.033 223.946,179.366 227,177.5C 227.667,178.167 228.333,178.833 229,179.5C 229.075,177.065 229.908,176.398 231.5,177.5 Z"/>
<path fill="#0277ac" d="M 48.5,171.5 C 48.5111,173.547 48.8444,175.547 49.5,177.5C 49.1822,178.647 48.5156,179.481 47.5,180C 50.9528,188.787 56.6195,195.787 64.5,201C 71.9636,204.232 79.297,207.732 86.5,211.5C 85.4565,214.455 84.1232,217.122 82.5,219.5C 77.0142,215.732 71.0142,212.732 64.5,210.5C 61.9293,206.906 58.5959,204.573 54.5,203.5C 54.5772,200.988 53.5772,198.988 51.5,197.5C 50.5713,198.689 50.238,200.022 50.5,201.5C 40.3834,199.395 31.3834,194.895 23.5,188C 24.0465,187.075 24.7132,186.242 25.5,185.5C 26.5272,186.791 27.5272,186.791 28.5,185.5C 30.0174,185.511 31.1841,186.177 32,187.5C 32.1824,190.881 33.6824,191.881 36.5,190.5C 39.8015,183.526 43.8015,177.193 48.5,171.5 Z"/>
<path fill="#77afc4" d="M 64.5,178.5 C 64.5,179.167 64.5,179.833 64.5,180.5C 61.7383,180.114 60.7383,178.781 61.5,176.5C 62.5178,177.193 63.5178,177.859 64.5,178.5 Z"/>
<path fill="#024765" d="M 195.5,171.5 C 196.404,172.209 196.737,173.209 196.5,174.5C 197.5,174.5 198.5,174.5 199.5,174.5C 199.543,179.244 201.21,183.244 204.5,186.5C 200.81,190.349 196.643,193.683 192,196.5C 188.781,192.114 188.114,187.447 190,182.5C 194.637,180.371 196.47,176.704 195.5,171.5 Z"/>
<path fill="#e6e152" d="M 64.5,178.5 C 65.9587,178.433 67.2921,178.766 68.5,179.5C 68.5,180.833 67.8333,181.5 66.5,181.5C 65.5084,181.672 64.8417,181.338 64.5,180.5C 64.5,179.833 64.5,179.167 64.5,178.5 Z"/>
<path fill="#1e95c3" d="M 69.5,179.5 C 70.5,179.5 71.5,179.5 72.5,179.5C 72.5,180.5 72.5,181.5 72.5,182.5C 71.5,182.5 70.5,182.5 69.5,182.5C 69.5,181.5 69.5,180.5 69.5,179.5 Z"/>
<path fill="#ebdd51" d="M 131.5,178.5 C 131.833,179.5 132.5,180.167 133.5,180.5C 133.158,181.338 132.492,181.672 131.5,181.5C 130.833,181.167 130.167,180.833 129.5,180.5C 129.5,179.167 130.167,178.5 131.5,178.5 Z"/>
<path fill="#8f8a53" d="M 68.5,179.5 C 68.8333,179.5 69.1667,179.5 69.5,179.5C 69.5,180.5 69.5,181.5 69.5,182.5C 68.209,182.737 67.209,182.404 66.5,181.5C 67.8333,181.5 68.5,180.833 68.5,179.5 Z"/>
<path fill="#ac9750" d="M 72.5,179.5 C 73.8333,179.5 75.1667,179.5 76.5,179.5C 76.6107,180.117 76.944,180.617 77.5,181C 76.5842,181.278 75.9175,181.778 75.5,182.5C 74.5,182.5 73.5,182.5 72.5,182.5C 72.5,181.5 72.5,180.5 72.5,179.5 Z"/>
<path fill="#13110f" d="M 64.5,168.5 C 65.8333,168.5 67.1667,168.5 68.5,168.5C 68.5,168.833 68.5,169.167 68.5,169.5C 67.1266,169.343 65.7932,169.51 64.5,170C 60.5128,172.125 60.5128,173.959 64.5,175.5C 71.0297,177.727 77.6964,177.56 84.5,175C 85.756,174.583 86.4226,173.75 86.5,172.5C 87.4013,173.29 88.0679,174.29 88.5,175.5C 86.1835,176.658 83.8502,177.825 81.5,179C 79.8659,179.494 78.1992,179.66 76.5,179.5C 75.1667,179.5 73.8333,179.5 72.5,179.5C 71.5,179.5 70.5,179.5 69.5,179.5C 69.1667,179.5 68.8333,179.5 68.5,179.5C 67.2921,178.766 65.9587,178.433 64.5,178.5C 63.5178,177.859 62.5178,177.193 61.5,176.5C 60.7383,178.781 61.7383,180.114 64.5,180.5C 64.8417,181.338 65.5084,181.672 66.5,181.5C 67.209,182.404 68.209,182.737 69.5,182.5C 70.5,182.5 71.5,182.5 72.5,182.5C 73.5,182.5 74.5,182.5 75.5,182.5C 78.9389,182.212 82.2722,181.546 85.5,180.5C 85.8212,182.048 86.8212,182.715 88.5,182.5C 89.5794,184.543 91.246,185.876 93.5,186.5C 93.9887,187.995 94.6554,189.329 95.5,190.5C 95.5,191.167 95.8333,191.5 96.5,191.5C 96.1583,192.338 95.4916,192.672 94.5,192.5C 93.4265,193.251 93.2599,194.251 94,195.5C 95.4194,196.46 96.9194,197.293 98.5,198C 102.486,198.499 106.486,198.666 110.5,198.5C 114.132,198.247 117.466,197.247 120.5,195.5C 121.167,195.5 121.5,195.833 121.5,196.5C 121.791,197.649 122.624,198.316 124,198.5C 128.003,198.235 131.17,196.568 133.5,193.5C 134.167,193.833 134.833,194.167 135.5,194.5C 137.764,193.781 140.097,193.448 142.5,193.5C 144.607,194.468 146.941,194.802 149.5,194.5C 150.167,194.5 150.833,194.5 151.5,194.5C 151.833,195.167 152.167,195.833 152.5,196.5C 154.167,196.5 155.833,196.5 157.5,196.5C 157.263,197.791 157.596,198.791 158.5,199.5C 158.5,199.833 158.5,200.167 158.5,200.5C 157.659,202.379 157.325,204.379 157.5,206.5C 157.5,206.833 157.5,207.167 157.5,207.5C 156.224,208.386 156.224,209.386 157.5,210.5C 158.167,210.167 158.833,209.833 159.5,209.5C 161.707,211.683 164.374,213.016 167.5,213.5C 168.309,215.071 168.643,216.738 168.5,218.5C 167.399,217.152 166.399,215.652 165.5,214C 153.41,212.936 141.91,209.769 131,204.5C 129.893,204.585 128.893,204.919 128,205.5C 127.472,206.816 127.972,207.483 129.5,207.5C 131.985,210.261 133.152,213.594 133,217.5C 136.046,218.683 138.88,220.016 141.5,221.5C 139.585,221.216 137.919,221.549 136.5,222.5C 132.103,222.425 127.77,222.925 123.5,224C 128.942,225.948 134.609,227.115 140.5,227.5C 142.139,228.473 143.473,229.806 144.5,231.5C 144.822,233.722 144.155,235.556 142.5,237C 139.833,238.333 137.167,239.667 134.5,241C 135.337,242.011 135.67,243.178 135.5,244.5C 139.24,244.759 142.906,244.426 146.5,243.5C 146.833,243.833 147.167,244.167 147.5,244.5C 143.143,245.408 138.81,246.408 134.5,247.5C 137.428,248.484 140.428,248.817 143.5,248.5C 140.167,249.167 136.833,249.833 133.5,250.5C 127.264,250.614 121.598,252.28 116.5,255.5C 113.833,255.5 111.167,255.5 108.5,255.5C 106.629,254.203 104.629,253.203 102.5,252.5C 103.568,251.566 104.901,251.232 106.5,251.5C 110.819,252.71 115.152,252.71 119.5,251.5C 112.393,250.559 105.727,248.393 99.5,245C 104.071,245.972 108.737,246.972 113.5,248C 118.833,248.667 124.167,248.667 129.5,248C 131.863,247.411 132.863,245.911 132.5,243.5C 123.768,242.415 115.435,240.248 107.5,237C 116.402,238.38 125.402,238.713 134.5,238C 136.788,237.054 138.955,235.887 141,234.5C 141.519,232.511 140.686,231.511 138.5,231.5C 131.775,230.323 125.108,228.823 118.5,227C 115.761,225.974 113.428,224.474 111.5,222.5C 118.14,222.789 123.64,220.455 128,215.5C 128.765,213.934 128.598,212.601 127.5,211.5C 126.036,210.84 124.369,210.507 122.5,210.5C 112.232,212.013 101.898,212.846 91.5,213C 86.6062,218.182 84.6062,224.349 85.5,231.5C 85.5,235.167 85.5,238.833 85.5,242.5C 84.6721,236.347 84.1721,230.013 84,223.5C 83.7216,222.584 83.2216,221.918 82.5,221.5C 82.5,220.833 82.5,220.167 82.5,219.5C 84.1232,217.122 85.4565,214.455 86.5,211.5C 79.297,207.732 71.9636,204.232 64.5,201C 56.6195,195.787 50.9528,188.787 47.5,180C 48.5156,179.481 49.1822,178.647 49.5,177.5C 48.8444,175.547 48.5111,173.547 48.5,171.5C 50.2183,173.364 51.385,175.697 52,178.5C 54.0445,179.772 55.8778,179.439 57.5,177.5C 57.2634,172.412 59.5967,169.412 64.5,168.5 Z"/>
<path fill="#dfd252" d="M 62.5,182.5 C 62.1583,183.338 61.4916,183.672 60.5,183.5C 58.0648,182.87 57.3982,181.537 58.5,179.5C 59.8518,180.524 61.1851,181.524 62.5,182.5 Z"/>
<path fill="#a39055" d="M 133.5,180.5 C 138.785,181.235 144.118,181.735 149.5,182C 144.282,183.563 138.949,183.896 133.5,183C 132.584,182.722 131.918,182.222 131.5,181.5C 132.492,181.672 133.158,181.338 133.5,180.5 Z"/>
<path fill="#917d36" d="M 62.5,182.5 C 64.6301,183.032 66.6301,183.865 68.5,185C 65.5178,185.703 62.8512,185.203 60.5,183.5C 61.4916,183.672 62.1583,183.338 62.5,182.5 Z"/>
<path fill="#4e6874" d="M 93.5,186.5 C 91.246,185.876 89.5794,184.543 88.5,182.5C 88.56,181.957 88.8933,181.624 89.5,181.5C 91.637,182.868 93.9703,183.868 96.5,184.5C 95.9953,185.919 94.9953,186.585 93.5,186.5 Z"/>
<path fill="#c4ac4e" d="M 134.5,185.5 C 134.5,186.167 134.167,186.5 133.5,186.5C 132.167,186.167 130.833,185.833 129.5,185.5C 129.47,184.503 129.97,183.836 131,183.5C 132.303,183.978 133.469,184.645 134.5,185.5 Z"/>
<path fill="#080d12" d="M 186.5,160.5 C 188.868,161.783 191.035,163.45 193,165.5C 193.037,167.974 193.87,169.974 195.5,171.5C 196.47,176.704 194.637,180.371 190,182.5C 188.114,187.447 188.781,192.114 192,196.5C 196.643,193.683 200.81,190.349 204.5,186.5C 207.369,183.488 208.702,184.155 208.5,188.5C 204.128,192.874 199.461,196.874 194.5,200.5C 192.004,201.58 189.67,202.914 187.5,204.5C 187.712,202.616 188.712,201.283 190.5,200.5C 188.674,200.08 186.674,200.08 184.5,200.5C 185.091,199.849 185.757,199.182 186.5,198.5C 186.376,197.893 186.043,197.56 185.5,197.5C 185.5,196.5 185.5,195.5 185.5,194.5C 184.5,194.5 183.5,194.5 182.5,194.5C 183.343,192.827 184.676,191.66 186.5,191C 183.935,190.391 181.601,190.891 179.5,192.5C 178.391,191.71 177.058,191.21 175.5,191C 176.833,190.667 178.167,190.333 179.5,190C 178.552,189.517 177.552,189.351 176.5,189.5C 176.5,189.167 176.5,188.833 176.5,188.5C 180.741,189.25 184.074,187.917 186.5,184.5C 186,184.167 185.5,183.833 185,183.5C 181.479,184.925 177.812,185.592 174,185.5C 167.957,185.189 162.124,184.189 156.5,182.5C 156.5,183.5 156.5,184.5 156.5,185.5C 155.876,185.083 155.543,184.416 155.5,183.5C 156.249,181.964 157.249,180.631 158.5,179.5C 157.139,179.212 155.806,178.879 154.5,178.5C 155.795,177.512 157.128,176.512 158.5,175.5C 159.468,173.393 159.802,171.059 159.5,168.5C 160.508,165.972 162.174,163.805 164.5,162C 171.681,159.332 179.015,158.832 186.5,160.5 Z"/>
<path fill="#537c8b" d="M 176.5,178.5 C 176.918,179.222 177.584,179.722 178.5,180C 177.944,180.383 177.611,180.883 177.5,181.5C 172.951,181.539 168.951,180.206 165.5,177.5C 165.833,177.167 166.167,176.833 166.5,176.5C 169.66,178.027 172.993,178.693 176.5,178.5 Z"/>
<path fill="#1c3545" d="M 177.5,181.5 C 177.611,180.883 177.944,180.383 178.5,180C 177.584,179.722 176.918,179.222 176.5,178.5C 181.861,179.134 186.861,178.134 191.5,175.5C 192.282,177.329 191.616,178.829 189.5,180C 185.509,180.642 181.509,181.142 177.5,181.5 Z"/>
<path fill="#73888c" d="M 161.5,177.5 C 163.801,180.267 166.801,182.101 170.5,183C 167.217,183.743 164.217,183.076 161.5,181C 160.316,179.855 160.316,178.688 161.5,177.5 Z"/>
<path fill="#294350" d="M 169.5,174.5 C 173.182,174.665 176.848,174.499 180.5,174C 177.635,173.817 174.969,173.317 172.5,172.5C 178.439,172.554 184.105,171.554 189.5,169.5C 190.594,170.868 190.26,172.035 188.5,173C 182.208,175.592 175.874,176.092 169.5,174.5 Z"/>
<path fill="#698fa1" d="M 172.5,172.5 C 174.969,173.317 177.635,173.817 180.5,174C 176.848,174.499 173.182,174.665 169.5,174.5C 166.832,174.166 164.832,172.833 163.5,170.5C 163.833,170.167 164.167,169.833 164.5,169.5C 166.858,171.287 169.525,172.287 172.5,172.5 Z"/>
<path fill="#758f9e" d="M 170.5,168.5 C 174.881,168.628 179.215,168.295 183.5,167.5C 183.719,166.325 183.386,165.325 182.5,164.5C 178.558,163.4 174.558,163.233 170.5,164C 169.62,165.356 169.286,166.856 169.5,168.5C 165.044,168.607 164.044,167.107 166.5,164C 173.5,162 180.5,162 187.5,164C 190.167,165.333 190.167,166.667 187.5,168C 181.739,169.703 176.072,169.87 170.5,168.5 Z"/>
<path fill="#e2e6e7" d="M 170.5,168.5 C 170.167,168.5 169.833,168.5 169.5,168.5C 169.286,166.856 169.62,165.356 170.5,164C 174.558,163.233 178.558,163.4 182.5,164.5C 183.386,165.325 183.719,166.325 183.5,167.5C 179.215,168.295 174.881,168.628 170.5,168.5 Z"/>
<path fill="#729886" d="M 58.5,185.5 C 58.5,186.167 58.5,186.833 58.5,187.5C 57.5222,187.189 56.8555,186.522 56.5,185.5C 57.2565,184.227 57.9232,184.227 58.5,185.5 Z"/>
<path fill="#dbd347" d="M 58.5,185.5 C 60.403,185.796 62.0697,186.463 63.5,187.5C 63.5,188.167 63.5,188.833 63.5,189.5C 61.4471,189.598 59.7804,188.931 58.5,187.5C 58.5,186.833 58.5,186.167 58.5,185.5 Z"/>
<path fill="#857045" d="M 74.5,189.5 C 74.5,188.833 74.5,188.167 74.5,187.5C 77.0351,186.651 79.5351,185.651 82,184.5C 83.3636,186.603 82.5302,188.103 79.5,189C 77.8659,189.494 76.1992,189.66 74.5,189.5 Z"/>
<path fill="#0d1012" d="M 81.5,167.5 C 83.1667,168.167 84.8333,168.833 86.5,169.5C 86.8417,170.338 87.5084,170.672 88.5,170.5C 91.5,171.167 94.5,171.833 97.5,172.5C 95.1667,172.5 92.8333,172.5 90.5,172.5C 89.1667,174.5 89.1667,176.5 90.5,178.5C 95.6503,179.651 100.984,179.817 106.5,179C 109.139,178.347 111.473,177.18 113.5,175.5C 114.167,174.833 114.833,174.167 115.5,173.5C 117.634,175.033 120.134,175.7 123,175.5C 125.295,175.453 127.129,174.787 128.5,173.5C 129.434,174.568 129.768,175.901 129.5,177.5C 128.833,177.5 128.5,177.833 128.5,178.5C 125.635,180.542 125.968,181.708 129.5,182C 128.027,182.71 127.36,183.876 127.5,185.5C 125.076,185.192 122.743,185.526 120.5,186.5C 120.624,187.107 120.957,187.44 121.5,187.5C 123.213,188.635 123.88,190.302 123.5,192.5C 125.216,192.371 126.883,192.038 128.5,191.5C 129.5,191.5 130.5,191.5 131.5,191.5C 131.727,189.067 130.727,187.401 128.5,186.5C 128.5,185.833 128.833,185.5 129.5,185.5C 130.833,185.833 132.167,186.167 133.5,186.5C 134.99,188.28 136.99,188.946 139.5,188.5C 141.167,188.5 142.833,188.5 144.5,188.5C 146.216,188.371 147.883,188.038 149.5,187.5C 153.684,187.149 157.684,186.482 161.5,185.5C 164.243,185.96 166.243,186.626 167.5,187.5C 162.968,187.182 158.634,187.515 154.5,188.5C 154.167,188.5 153.833,188.5 153.5,188.5C 148.211,188.402 146.878,190.402 149.5,194.5C 146.941,194.802 144.607,194.468 142.5,193.5C 143.239,193.631 143.906,193.464 144.5,193C 143,192.833 141.5,192.667 140,192.5C 138.014,192.569 136.514,193.235 135.5,194.5C 134.833,194.167 134.167,193.833 133.5,193.5C 133.44,192.957 133.107,192.624 132.5,192.5C 129.138,194.621 125.471,195.955 121.5,196.5C 121.5,195.833 121.167,195.5 120.5,195.5C 121.562,194.425 121.562,193.425 120.5,192.5C 119.088,193.806 117.421,194.64 115.5,195C 111.179,195.499 106.846,195.666 102.5,195.5C 99.1694,195.982 96.5027,194.982 94.5,192.5C 95.4916,192.672 96.1583,192.338 96.5,191.5C 97.1667,191.5 97.8333,191.5 98.5,191.5C 99.1667,191.833 99.8333,192.167 100.5,192.5C 105.035,193.744 109.702,193.744 114.5,192.5C 121.127,190.687 121.127,188.52 114.5,186C 109.98,185.186 105.646,185.353 101.5,186.5C 100.508,186.328 99.8417,186.662 99.5,187.5C 98.1667,187.5 96.8333,187.5 95.5,187.5C 95.5,188.5 95.5,189.5 95.5,190.5C 94.6554,189.329 93.9887,187.995 93.5,186.5C 94.9953,186.585 95.9953,185.919 96.5,184.5C 93.9703,183.868 91.637,182.868 89.5,181.5C 88.8933,181.624 88.56,181.957 88.5,182.5C 86.8212,182.715 85.8212,182.048 85.5,180.5C 87.7271,179.599 88.7271,177.933 88.5,175.5C 88.0679,174.29 87.4013,173.29 86.5,172.5C 83.9063,170.236 80.9063,168.903 77.5,168.5C 79.099,168.768 80.4324,168.434 81.5,167.5 Z"/>
<path fill="#b0b0b1" d="M 113.5,181.5 C 117.276,181.469 117.443,182.136 114,183.5C 112.316,183.317 112.15,182.65 113.5,181.5 Z"/>
<path fill="#497585" d="M 118.5,180.5 C 120.833,180.5 123.167,180.5 125.5,180.5C 125.5,181.5 125.5,182.5 125.5,183.5C 122.423,183.821 120.09,182.821 118.5,180.5 Z"/>
<path fill="#3c839d" d="M 113.5,175.5 C 111.473,177.18 109.139,178.347 106.5,179C 100.984,179.817 95.6503,179.651 90.5,178.5C 90.62,177.414 91.2867,176.747 92.5,176.5C 99.7472,178.57 106.414,177.57 112.5,173.5C 113.298,173.957 113.631,174.624 113.5,175.5 Z"/>
<path fill="#998c7f" d="M 134.5,185.5 C 136.117,186.038 137.784,186.371 139.5,186.5C 139.5,187.167 139.5,187.833 139.5,188.5C 136.99,188.946 134.99,188.28 133.5,186.5C 134.167,186.5 134.5,186.167 134.5,185.5 Z"/>
<path fill="#907c63" d="M 149.5,187.5 C 147.883,188.038 146.216,188.371 144.5,188.5C 144.5,187.5 144.5,186.5 144.5,185.5C 148.085,185.731 151.252,184.731 154,182.5C 154.749,183.635 154.583,184.635 153.5,185.5C 151.974,185.994 150.641,186.661 149.5,187.5 Z"/>
<path fill="#017fb3" d="M 23.5,176.5 C 23.4914,178.308 23.9914,179.975 25,181.5C 26.6268,182.532 27.7934,183.866 28.5,185.5C 27.5272,186.791 26.5272,186.791 25.5,185.5C 24.7132,186.242 24.0465,187.075 23.5,188C 31.3834,194.895 40.3834,199.395 50.5,201.5C 50.238,200.022 50.5713,198.689 51.5,197.5C 53.5772,198.988 54.5772,200.988 54.5,203.5C 58.5959,204.573 61.9293,206.906 64.5,210.5C 71.0142,212.732 77.0142,215.732 82.5,219.5C 82.5,220.167 82.5,220.833 82.5,221.5C 80.9261,223.102 80.2594,225.102 80.5,227.5C 63.7165,223.271 47.7165,217.105 32.5,209C 27.8804,203.592 23.3804,198.092 19,192.5C 18.51,191.207 18.3433,189.873 18.5,188.5C 20.4733,184.58 22.14,180.58 23.5,176.5 Z"/>
<path fill="#d3ab4f" d="M 82.5,191.5 C 81.8333,191.5 81.5,191.167 81.5,190.5C 83.1494,189.351 84.6494,188.018 86,186.5C 88.2001,186.893 88.7001,187.893 87.5,189.5C 85.9246,190.456 84.258,191.123 82.5,191.5 Z"/>
<path fill="#b39542" d="M 144.5,185.5 C 144.5,186.5 144.5,187.5 144.5,188.5C 142.833,188.5 141.167,188.5 139.5,188.5C 139.5,187.833 139.5,187.167 139.5,186.5C 140.919,185.549 142.585,185.216 144.5,185.5 Z"/>
<path fill="#1f2c35" d="M 176.5,188.5 C 176.5,188.833 176.5,189.167 176.5,189.5C 175.5,189.5 174.5,189.5 173.5,189.5C 173.737,190.791 173.404,191.791 172.5,192.5C 172.631,191.761 172.464,191.094 172,190.5C 170.348,189.601 168.848,188.601 167.5,187.5C 166.243,186.626 164.243,185.96 161.5,185.5C 159.833,184.167 158.167,184.167 156.5,185.5C 156.5,184.5 156.5,183.5 156.5,182.5C 162.124,184.189 167.957,185.189 174,185.5C 177.812,185.592 181.479,184.925 185,183.5C 185.5,183.833 186,184.167 186.5,184.5C 184.074,187.917 180.741,189.25 176.5,188.5 Z"/>
<path fill="#819ca8" d="M 176.5,188.5 C 174.345,188.628 172.345,188.128 170.5,187C 171.5,186.833 172.5,186.667 173.5,186.5C 175.03,186.64 176.03,187.307 176.5,188.5 Z"/>
<path fill="#2c96c1" d="M 63.5,187.5 C 64.8333,187.5 66.1667,187.5 67.5,187.5C 67.5,188.5 67.5,189.5 67.5,190.5C 65.901,190.768 64.5676,190.434 63.5,189.5C 63.5,188.833 63.5,188.167 63.5,187.5 Z"/>
<path fill="#e9eff2" d="M 101.5,186.5 C 105.182,186.335 108.848,186.501 112.5,187C 115.269,187.835 115.935,189.335 114.5,191.5C 113.476,190.862 112.476,190.195 111.5,189.5C 109.559,189.804 107.893,190.637 106.5,192C 104.527,192.495 102.527,192.662 100.5,192.5C 99.8333,192.167 99.1667,191.833 98.5,191.5C 98.4326,190.041 98.7659,188.708 99.5,187.5C 99.8417,186.662 100.508,186.328 101.5,186.5 Z"/>
<path fill="#4b96b2" d="M 101.5,186.5 C 105.646,185.353 109.98,185.186 114.5,186C 121.127,188.52 121.127,190.687 114.5,192.5C 114.5,192.167 114.5,191.833 114.5,191.5C 115.935,189.335 115.269,187.835 112.5,187C 108.848,186.501 105.182,186.335 101.5,186.5 Z"/>
<path fill="#bdbabe" d="M 121.5,187.5 C 122.568,186.566 123.901,186.232 125.5,186.5C 127.279,187.67 128.279,189.336 128.5,191.5C 126.883,192.038 125.216,192.371 123.5,192.5C 123.88,190.302 123.213,188.635 121.5,187.5 Z"/>
<path fill="#c1ac4c" d="M 67.5,187.5 C 69.8333,187.5 72.1667,187.5 74.5,187.5C 74.5,188.167 74.5,188.833 74.5,189.5C 72.283,190.369 69.9496,190.702 67.5,190.5C 67.5,189.5 67.5,188.5 67.5,187.5 Z"/>
<path fill="#2897c1" d="M 99.5,187.5 C 98.7659,188.708 98.4326,190.041 98.5,191.5C 97.8333,191.5 97.1667,191.5 96.5,191.5C 95.8333,191.5 95.5,191.167 95.5,190.5C 95.5,189.5 95.5,188.5 95.5,187.5C 96.8333,187.5 98.1667,187.5 99.5,187.5 Z"/>
<path fill="#5e6d6d" d="M 125.5,186.5 C 126.5,186.5 127.5,186.5 128.5,186.5C 130.727,187.401 131.727,189.067 131.5,191.5C 130.5,191.5 129.5,191.5 128.5,191.5C 128.279,189.336 127.279,187.67 125.5,186.5 Z"/>
<path fill="#4899b9" d="M 154.5,188.5 C 158.634,187.515 162.968,187.182 167.5,187.5C 168.848,188.601 170.348,189.601 172,190.5C 172.464,191.094 172.631,191.761 172.5,192.5C 170.703,193.73 168.703,194.396 166.5,194.5C 167.728,192.99 167.728,191.49 166.5,190C 162.637,188.646 158.637,188.146 154.5,188.5 Z"/>
<path fill="#080c10" d="M 176.5,189.5 C 177.552,189.351 178.552,189.517 179.5,190C 178.167,190.333 176.833,190.667 175.5,191C 177.058,191.21 178.391,191.71 179.5,192.5C 178.5,192.5 177.5,192.5 176.5,192.5C 176.5,193.5 176.5,194.5 176.5,195.5C 178.5,195.167 180.5,194.833 182.5,194.5C 183.5,194.5 184.5,194.5 185.5,194.5C 185.5,195.5 185.5,196.5 185.5,197.5C 181.991,200.115 177.991,201.115 173.5,200.5C 173.5,201.5 173.5,202.5 173.5,203.5C 177.237,202.8 180.904,201.8 184.5,200.5C 186.674,200.08 188.674,200.08 190.5,200.5C 188.712,201.283 187.712,202.616 187.5,204.5C 181.503,206.499 175.503,208.499 169.5,210.5C 171.626,214.68 173.292,219.014 174.5,223.5C 174.5,223.833 174.5,224.167 174.5,224.5C 174.5,228.5 174.5,232.5 174.5,236.5C 174.425,239.206 174.092,241.873 173.5,244.5C 177.198,244.448 180.865,244.114 184.5,243.5C 185.043,243.56 185.376,243.893 185.5,244.5C 184.398,245.176 183.398,245.842 182.5,246.5C 177.779,247.185 173.112,247.185 168.5,246.5C 157.086,250.656 145.419,251.99 133.5,250.5C 136.833,249.833 140.167,249.167 143.5,248.5C 152.276,247.712 160.943,246.212 169.5,244C 170.826,237.734 170.826,231.568 169.5,225.5C 168.781,223.236 168.448,220.903 168.5,218.5C 168.643,216.738 168.309,215.071 167.5,213.5C 164.374,213.016 161.707,211.683 159.5,209.5C 158.833,209.833 158.167,210.167 157.5,210.5C 156.224,209.386 156.224,208.386 157.5,207.5C 158.097,208.139 158.93,208.472 160,208.5C 163.388,207.053 166.888,206.053 170.5,205.5C 170.649,204.448 170.483,203.448 170,202.5C 166.143,204.848 161.976,206.181 157.5,206.5C 157.325,204.379 157.659,202.379 158.5,200.5C 162.509,200.142 166.509,199.642 170.5,199C 173.188,198.218 174.188,196.718 173.5,194.5C 168.32,196.36 163.32,198.027 158.5,199.5C 157.596,198.791 157.263,197.791 157.5,196.5C 155.833,196.5 154.167,196.5 152.5,196.5C 152.167,195.833 151.833,195.167 151.5,194.5C 152.167,194.5 152.833,194.5 153.5,194.5C 157.733,195.794 162.066,195.794 166.5,194.5C 168.703,194.396 170.703,193.73 172.5,192.5C 173.404,191.791 173.737,190.791 173.5,189.5C 174.5,189.5 175.5,189.5 176.5,189.5 Z"/>
<path fill="#796535" d="M 81.5,190.5 C 81.5,191.167 81.8333,191.5 82.5,191.5C 80.7116,192.622 78.7116,192.789 76.5,192C 78.1545,191.392 79.8211,190.892 81.5,190.5 Z"/>
<path fill="#a7bdca" d="M 114.5,191.5 C 114.5,191.833 114.5,192.167 114.5,192.5C 109.702,193.744 105.035,193.744 100.5,192.5C 102.527,192.662 104.527,192.495 106.5,192C 107.893,190.637 109.559,189.804 111.5,189.5C 112.476,190.195 113.476,190.862 114.5,191.5 Z"/>
<path fill="#1f8db2" d="M 153.5,188.5 C 152.859,189.482 152.193,190.482 151.5,191.5C 152.193,192.518 152.859,193.518 153.5,194.5C 152.833,194.5 152.167,194.5 151.5,194.5C 150.833,194.5 150.167,194.5 149.5,194.5C 146.878,190.402 148.211,188.402 153.5,188.5 Z"/>
<path fill="#d6e3eb" d="M 153.5,188.5 C 153.833,188.5 154.167,188.5 154.5,188.5C 158.637,188.146 162.637,188.646 166.5,190C 167.728,191.49 167.728,192.99 166.5,194.5C 162.066,195.794 157.733,195.794 153.5,194.5C 152.859,193.518 152.193,192.518 151.5,191.5C 152.193,190.482 152.859,189.482 153.5,188.5 Z"/>
<path fill="#68635b" d="M 142.5,193.5 C 140.097,193.448 137.764,193.781 135.5,194.5C 136.514,193.235 138.014,192.569 140,192.5C 141.5,192.667 143,192.833 144.5,193C 143.906,193.464 143.239,193.631 142.5,193.5 Z"/>
<path fill="#233f4e" d="M 182.5,194.5 C 180.5,194.833 178.5,195.167 176.5,195.5C 176.5,194.5 176.5,193.5 176.5,192.5C 177.5,192.5 178.5,192.5 179.5,192.5C 181.601,190.891 183.935,190.391 186.5,191C 184.676,191.66 183.343,192.827 182.5,194.5 Z"/>
<path fill="#61acb7" d="M 66.5,194.5 C 66.5,194.833 66.5,195.167 66.5,195.5C 63.9029,195.467 62.9029,194.467 63.5,192.5C 64.7387,192.942 65.7387,193.609 66.5,194.5 Z"/>
<path fill="#f0ee50" d="M 66.5,194.5 C 67.8333,194.5 69.1667,194.5 70.5,194.5C 70.5,195.833 69.8333,196.5 68.5,196.5C 67.5084,196.672 66.8417,196.338 66.5,195.5C 66.5,195.167 66.5,194.833 66.5,194.5 Z"/>
<path fill="#847049" d="M 78.5,197.5 C 77.5,194.833 76.5,194.833 75.5,197.5C 75.1667,197.5 74.8333,197.5 74.5,197.5C 74.5,196.5 74.5,195.5 74.5,194.5C 79.6946,195.056 84.5279,194.056 89,191.5C 89.6838,192.784 89.5171,193.951 88.5,195C 85.3214,196.461 81.9881,197.295 78.5,197.5 Z"/>
<path fill="#a5a261" d="M 70.5,194.5 C 70.8333,194.5 71.1667,194.5 71.5,194.5C 71.5,195.5 71.5,196.5 71.5,197.5C 70.209,197.737 69.209,197.404 68.5,196.5C 69.8333,196.5 70.5,195.833 70.5,194.5 Z"/>
<path fill="#1986ae" d="M 71.5,194.5 C 72.5,194.5 73.5,194.5 74.5,194.5C 74.5,195.5 74.5,196.5 74.5,197.5C 73.5,197.5 72.5,197.5 71.5,197.5C 71.5,196.5 71.5,195.5 71.5,194.5 Z"/>
<path fill="#e3ba4e" d="M 78.5,197.5 C 77.5,197.5 76.5,197.5 75.5,197.5C 76.5,194.833 77.5,194.833 78.5,197.5 Z"/>
<path fill="#436f7f" d="M 120.5,195.5 C 117.466,197.247 114.132,198.247 110.5,198.5C 108.143,196.902 105.477,195.902 102.5,195.5C 106.846,195.666 111.179,195.499 115.5,195C 117.421,194.64 119.088,193.806 120.5,192.5C 121.562,193.425 121.562,194.425 120.5,195.5 Z"/>
<path fill="#2c8cac" d="M 94.5,192.5 C 96.5027,194.982 99.1694,195.982 102.5,195.5C 105.477,195.902 108.143,196.902 110.5,198.5C 106.486,198.666 102.486,198.499 98.5,198C 96.9194,197.293 95.4194,196.46 94,195.5C 93.2599,194.251 93.4265,193.251 94.5,192.5 Z"/>
<path fill="#4b535a" d="M 133.5,193.5 C 131.17,196.568 128.003,198.235 124,198.5C 122.624,198.316 121.791,197.649 121.5,196.5C 125.471,195.955 129.138,194.621 132.5,192.5C 133.107,192.624 133.44,192.957 133.5,193.5 Z"/>
<path fill="#ebedf5" d="M 136.5,200.5 C 135.167,199.833 135.167,199.167 136.5,198.5C 139.445,197.532 142.445,197.366 145.5,198C 142.829,199.903 139.829,200.736 136.5,200.5 Z"/>
<path fill="#efdfb5" d="M 147.5,196.5 C 151.711,197.556 152.377,199.556 149.5,202.5C 145.167,203.833 140.833,203.833 136.5,202.5C 137.506,202.062 137.506,201.396 136.5,200.5C 139.829,200.736 142.829,199.903 145.5,198C 142.445,197.366 139.445,197.532 136.5,198.5C 136.611,197.883 136.944,197.383 137.5,197C 140.817,196.502 144.15,196.335 147.5,196.5 Z"/>
<path fill="#ebd745" d="M 147.5,195.5 C 147.5,195.833 147.5,196.167 147.5,196.5C 144.15,196.335 140.817,196.502 137.5,197C 136.944,197.383 136.611,197.883 136.5,198.5C 135.167,199.167 135.167,199.833 136.5,200.5C 137.506,201.396 137.506,202.062 136.5,202.5C 130.42,201.179 130.087,199.012 135.5,196C 139.486,195.501 143.486,195.334 147.5,195.5 Z"/>
<path fill="#2b697d" d="M 158.5,200.5 C 158.5,200.167 158.5,199.833 158.5,199.5C 163.32,198.027 168.32,196.36 173.5,194.5C 174.188,196.718 173.188,198.218 170.5,199C 166.509,199.642 162.509,200.142 158.5,200.5 Z"/>
<path fill="#e7d283" d="M 147.5,196.5 C 147.5,196.167 147.5,195.833 147.5,195.5C 149.216,195.629 150.883,195.962 152.5,196.5C 156.523,200.236 155.523,202.236 149.5,202.5C 152.377,199.556 151.711,197.556 147.5,196.5 Z"/>
<path fill="#384f5c" d="M 185.5,197.5 C 186.043,197.56 186.376,197.893 186.5,198.5C 185.757,199.182 185.091,199.849 184.5,200.5C 180.904,201.8 177.237,202.8 173.5,203.5C 173.5,202.5 173.5,201.5 173.5,200.5C 177.991,201.115 181.991,200.115 185.5,197.5 Z"/>
<path fill="#217b99" d="M 92.5,197.5 C 98.0323,200.55 104.032,202.05 110.5,202C 104.574,203.11 98.9077,202.444 93.5,200C 92.7476,199.329 92.4142,198.496 92.5,197.5 Z"/>
<path fill="#967d41" d="M 86.5,198.5 C 89.2106,200.847 88.544,202.347 84.5,203C 80.948,203.85 77.6147,203.35 74.5,201.5C 78.7874,201.027 82.7874,200.027 86.5,198.5 Z"/>
<path fill="#3a6b7b" d="M 124.5,201.5 C 125.239,201.369 125.906,201.536 126.5,202C 125.084,204.265 123.084,205.431 120.5,205.5C 120.5,204.5 120.5,203.5 120.5,202.5C 122.099,202.768 123.432,202.434 124.5,201.5 Z"/>
<path fill="#014c6b" d="M 18.5,188.5 C 18.3433,189.873 18.51,191.207 19,192.5C 23.3804,198.092 27.8804,203.592 32.5,209C 47.7165,217.105 63.7165,223.271 80.5,227.5C 80.8266,232.214 80.4933,236.88 79.5,241.5C 65.9759,238.963 52.6426,235.463 39.5,231C 29.1357,227.625 21.6357,221.125 17,211.5C 16.8138,208.964 16.3138,206.631 15.5,204.5C 15.2989,198.82 16.2989,193.486 18.5,188.5 Z"/>
<path fill="#24728b" d="M 91.5,201.5 C 100.474,205.497 109.474,205.497 118.5,201.5C 119.188,203.718 118.188,205.218 115.5,206C 108.486,207.954 101.486,207.954 94.5,206C 92.5614,205.092 91.5614,203.592 91.5,201.5 Z"/>
<path fill="#77663f" d="M 153.5,203.5 C 154.675,203.281 155.675,203.614 156.5,204.5C 153.367,208.24 149.367,209.407 144.5,208C 144.043,207.586 143.709,207.086 143.5,206.5C 147.068,205.865 150.401,204.865 153.5,203.5 Z"/>
<path fill="#2c697d" d="M 157.5,207.5 C 157.5,207.167 157.5,206.833 157.5,206.5C 161.976,206.181 166.143,204.848 170,202.5C 170.483,203.448 170.649,204.448 170.5,205.5C 166.888,206.053 163.388,207.053 160,208.5C 158.93,208.472 158.097,208.139 157.5,207.5 Z"/>
<path fill="#288eba" d="M 194.5,200.5 C 195.708,203.609 197.208,206.609 199,209.5C 199.667,210.5 199.667,211.5 199,212.5C 191.729,216.646 183.896,219.313 175.5,220.5C 175.737,221.791 175.404,222.791 174.5,223.5C 173.292,219.014 171.626,214.68 169.5,210.5C 175.503,208.499 181.503,206.499 187.5,204.5C 189.67,202.914 192.004,201.58 194.5,200.5 Z"/>
<path fill="#d8a462" d="M 129.5,207.5 C 135.138,209.63 139.805,213.13 143.5,218C 143.192,219.459 142.525,220.626 141.5,221.5C 138.88,220.016 136.046,218.683 133,217.5C 133.152,213.594 131.985,210.261 129.5,207.5 Z"/>
<path fill="#f7e2b0" d="M 168.5,218.5 C 168.448,220.903 168.781,223.236 169.5,225.5C 169.5,227.5 169.5,229.5 169.5,231.5C 161.433,232.129 153.433,233.129 145.5,234.5C 145.737,233.209 145.404,232.209 144.5,231.5C 143.473,229.806 142.139,228.473 140.5,227.5C 137.442,225.868 134.109,224.701 130.5,224C 132.708,223.809 134.708,223.309 136.5,222.5C 137.919,221.549 139.585,221.216 141.5,221.5C 142.525,220.626 143.192,219.459 143.5,218C 139.805,213.13 135.138,209.63 129.5,207.5C 127.972,207.483 127.472,206.816 128,205.5C 128.893,204.919 129.893,204.585 131,204.5C 141.91,209.769 153.41,212.936 165.5,214C 166.399,215.652 167.399,217.152 168.5,218.5 Z"/>
<path fill="#f6e1ae" d="M 127.5,211.5 C 123.146,215.025 118.146,217.525 112.5,219C 111.663,220.011 111.33,221.178 111.5,222.5C 113.428,224.474 115.761,225.974 118.5,227C 125.108,228.823 131.775,230.323 138.5,231.5C 136.615,233.311 134.281,234.478 131.5,235C 127.333,235.167 123.167,235.333 119,235.5C 107.841,234.46 96.6744,233.126 85.5,231.5C 84.6062,224.349 86.6062,218.182 91.5,213C 101.898,212.846 112.232,212.013 122.5,210.5C 124.369,210.507 126.036,210.84 127.5,211.5 Z"/>
<path fill="#dba765" d="M 127.5,211.5 C 128.598,212.601 128.765,213.934 128,215.5C 123.64,220.455 118.14,222.789 111.5,222.5C 111.33,221.178 111.663,220.011 112.5,219C 118.146,217.525 123.146,215.025 127.5,211.5 Z"/>
<path fill="#243c4a" d="M 14.5,207.5 C 16.2998,215.755 20.6331,222.421 27.5,227.5C 27.1373,228.183 26.8039,228.85 26.5,229.5C 25.5084,229.672 24.8417,229.338 24.5,228.5C 24.9382,228.565 25.2716,228.399 25.5,228C 19.2315,223.449 15.2315,217.449 13.5,210C 13.528,208.93 13.8614,208.097 14.5,207.5 Z"/>
<path fill="#014b69" d="M 238.5,192.5 C 242.467,203.457 240.634,213.457 233,222.5C 220.63,233.684 206.13,240.351 189.5,242.5C 191.408,240.033 193.741,238.033 196.5,236.5C 195.045,235.255 193.711,235.422 192.5,237C 190.5,237.667 188.5,237.667 186.5,237C 203.922,228.313 219.755,216.813 234,202.5C 234.483,201.552 234.649,200.552 234.5,199.5C 235.675,199.719 236.675,199.386 237.5,198.5C 238.348,196.591 238.682,194.591 238.5,192.5 Z"/>
<path fill="#d8ae76" d="M 136.5,222.5 C 134.708,223.309 132.708,223.809 130.5,224C 134.109,224.701 137.442,225.868 140.5,227.5C 134.609,227.115 128.942,225.948 123.5,224C 127.77,222.925 132.103,222.425 136.5,222.5 Z"/>
<path fill="#014c6c" d="M 233.5,180.5 C 235.065,182.509 236.065,184.843 236.5,187.5C 236.011,190.986 234.844,194.319 233,197.5C 223.215,207.624 212.548,216.624 201,224.5C 200.586,224.043 200.086,223.709 199.5,223.5C 194.674,225.746 190.008,228.246 185.5,231C 182.223,232.143 178.89,232.977 175.5,233.5C 175.737,234.791 175.404,235.791 174.5,236.5C 174.5,232.5 174.5,228.5 174.5,224.5C 184.665,221.5 194.665,218 204.5,214C 218.483,206.511 228.15,195.344 233.5,180.5 Z"/>
<path style="opacity:0.969" fill="#0c0e10" d="M 15.5,204.5 C 16.3138,206.631 16.8138,208.964 17,211.5C 21.6357,221.125 29.1357,227.625 39.5,231C 52.6426,235.463 65.9759,238.963 79.5,241.5C 80.4933,236.88 80.8266,232.214 80.5,227.5C 80.2594,225.102 80.9261,223.102 82.5,221.5C 83.2216,221.918 83.7216,222.584 84,223.5C 84.1721,230.013 84.6721,236.347 85.5,242.5C 92.0831,246.472 99.0831,249.472 106.5,251.5C 104.901,251.232 103.568,251.566 102.5,252.5C 95.5679,251.245 88.9012,249.078 82.5,246C 67.8357,244.534 53.5024,241.534 39.5,237C 34.809,234.992 30.4757,232.492 26.5,229.5C 26.8039,228.85 27.1373,228.183 27.5,227.5C 20.6331,222.421 16.2998,215.755 14.5,207.5C 15.404,206.791 15.7373,205.791 15.5,204.5 Z"/>
<path fill="#cc9755" d="M 85.5,231.5 C 96.6744,233.126 107.841,234.46 119,235.5C 123.167,235.333 127.333,235.167 131.5,235C 134.281,234.478 136.615,233.311 138.5,231.5C 140.686,231.511 141.519,232.511 141,234.5C 138.955,235.887 136.788,237.054 134.5,238C 125.402,238.713 116.402,238.38 107.5,237C 115.435,240.248 123.768,242.415 132.5,243.5C 132.863,245.911 131.863,247.411 129.5,248C 124.167,248.667 118.833,248.667 113.5,248C 108.737,246.972 104.071,245.972 99.5,245C 105.727,248.393 112.393,250.559 119.5,251.5C 115.152,252.71 110.819,252.71 106.5,251.5C 99.0831,249.472 92.0831,246.472 85.5,242.5C 85.5,238.833 85.5,235.167 85.5,231.5 Z"/>
<path fill="#cd9959" d="M 169.5,225.5 C 170.826,231.568 170.826,237.734 169.5,244C 160.943,246.212 152.276,247.712 143.5,248.5C 140.428,248.817 137.428,248.484 134.5,247.5C 138.81,246.408 143.143,245.408 147.5,244.5C 147.167,244.167 146.833,243.833 146.5,243.5C 142.906,244.426 139.24,244.759 135.5,244.5C 135.67,243.178 135.337,242.011 134.5,241C 137.167,239.667 139.833,238.333 142.5,237C 144.155,235.556 144.822,233.722 144.5,231.5C 145.404,232.209 145.737,233.209 145.5,234.5C 153.433,233.129 161.433,232.129 169.5,231.5C 169.5,229.5 169.5,227.5 169.5,225.5 Z"/>
<path fill="#025576" d="M 236.5,187.5 C 237.537,188.93 238.204,190.597 238.5,192.5C 238.682,194.591 238.348,196.591 237.5,198.5C 236.675,199.386 235.675,199.719 234.5,199.5C 234.649,200.552 234.483,201.552 234,202.5C 219.755,216.813 203.922,228.313 186.5,237C 188.5,237.667 190.5,237.667 192.5,237C 193.711,235.422 195.045,235.255 196.5,236.5C 193.741,238.033 191.408,240.033 189.5,242.5C 187.585,242.216 185.919,242.549 184.5,243.5C 180.865,244.114 177.198,244.448 173.5,244.5C 174.092,241.873 174.425,239.206 174.5,236.5C 175.404,235.791 175.737,234.791 175.5,233.5C 178.89,232.977 182.223,232.143 185.5,231C 190.008,228.246 194.674,225.746 199.5,223.5C 200.086,223.709 200.586,224.043 201,224.5C 212.548,216.624 223.215,207.624 233,197.5C 234.844,194.319 236.011,190.986 236.5,187.5 Z"/>
</svg>
