<?xml version="1.0" encoding="UTF-8"?>
<svg xmlns="http://www.w3.org/2000/svg" version="1.1" width="256px" height="256px" style="shape-rendering:geometricPrecision; text-rendering:geometricPrecision; image-rendering:optimizeQuality; fill-rule:evenodd; clip-rule:evenodd" xmlns:xlink="http://www.w3.org/1999/xlink">
<path fill="#5f5629" d="M -0.5,-0.5 C 84.8333,-0.5 170.167,-0.5 255.5,-0.5C 255.5,0.166667 255.5,0.833333 255.5,1.5C 255.167,1.5 254.833,1.5 254.5,1.5C 254.158,0.661754 253.492,0.32842 252.5,0.5C 169.167,0.5 85.8333,0.5 2.5,0.5C 1.50838,0.32842 0.841711,0.661754 0.5,1.5C 0.5,85.5 0.5,169.5 0.5,253.5C 0.166667,253.5 -0.166667,253.5 -0.5,253.5C -0.5,168.833 -0.5,84.1667 -0.5,-0.5 Z"/>
<path fill="#9a9051" d="M 2.5,0.5 C 85.8333,0.5 169.167,0.5 252.5,0.5C 252.267,2.06181 251.6,3.39514 250.5,4.5C 249.662,4.84171 249.328,5.50838 249.5,6.5C 249.167,6.5 248.833,6.5 248.5,6.5C 167.84,4.66878 86.8395,3.83545 5.5,4C 4.2899,2.9609 3.2899,1.79423 2.5,0.5 Z"/>
<path fill="#665220" d="M 252.5,0.5 C 253.492,0.32842 254.158,0.661754 254.5,1.5C 254.833,85.335 254.499,169.002 253.5,252.5C 253.5,252.167 253.5,251.833 253.5,251.5C 253.769,249.571 253.269,247.905 252,246.5C 251.821,210.811 251.321,175.144 250.5,139.5C 251.692,94.575 251.692,49.575 250.5,4.5C 251.6,3.39514 252.267,2.06181 252.5,0.5 Z"/>
<path fill="#bab47b" d="M 0.5,1.5 C 0.841711,0.661754 1.50838,0.32842 2.5,0.5C 3.2899,1.79423 4.2899,2.9609 5.5,4C 86.8395,3.83545 167.84,4.66878 248.5,6.5C 248.167,6.5 247.833,6.5 247.5,6.5C 235.167,6.5 222.833,6.5 210.5,6.5C 205.167,6.5 199.833,6.5 194.5,6.5C 170.833,6.5 147.167,6.5 123.5,6.5C 107.5,6.5 91.5,6.5 75.5,6.5C 57.8333,6.5 40.1667,6.5 22.5,6.5C 18.5,6.5 14.5,6.5 10.5,6.5C 9.16667,6.5 7.83333,6.5 6.5,6.5C 6.5,15.5 6.5,24.5 6.5,33.5C 6.5,38.5 6.5,43.5 6.5,48.5C 6.5,85.1667 6.5,121.833 6.5,158.5C 6.5,163.833 6.5,169.167 6.5,174.5C 6.5,198.833 6.5,223.167 6.5,247.5C 6.5,248.167 6.16667,248.5 5.5,248.5C 5.66666,167.833 5.5,87.166 5,6.5C 3.48305,4.76047 1.98305,3.0938 0.5,1.5 Z"/>
<path fill="#987f1b" d="M 22.5,6.5 C 40.1667,6.5 57.8333,6.5 75.5,6.5C 78.6414,7.32129 81.9748,7.82129 85.5,8C 86.5,9 87.5,10 88.5,11C 86.1902,11.4966 83.8568,11.6633 81.5,11.5C 79.5073,9.83681 77.1739,8.67014 74.5,8C 61.8333,7.33333 49.1667,7.33333 36.5,8C 38.2331,9.18889 39.8998,10.3556 41.5,11.5C 36.1667,11.5 30.8333,11.5 25.5,11.5C 22.6916,10.8856 20.0249,9.71891 17.5,8C 19.3817,7.80192 21.0484,7.30192 22.5,6.5 Z"/>
<path fill="#d6be56" d="M 0.5,1.5 C 1.98305,3.0938 3.48305,4.76047 5,6.5C 5.5,87.166 5.66666,167.833 5.5,248.5C 4.83333,248.5 4.5,248.833 4.5,249.5C 3.5,251.167 2.16667,252.5 0.5,253.5C 0.5,169.5 0.5,85.5 0.5,1.5 Z"/>
<path fill="#b09a28" d="M 81.5,11.5 C 68.1667,11.5 54.8333,11.5 41.5,11.5C 39.8998,10.3556 38.2331,9.18889 36.5,8C 49.1667,7.33333 61.8333,7.33333 74.5,8C 77.1739,8.67014 79.5073,9.83681 81.5,11.5 Z"/>
<path fill="#715d12" d="M 75.5,6.5 C 91.5,6.5 107.5,6.5 123.5,6.5C 121.031,7.3171 118.365,7.8171 115.5,8C 118.942,9.1836 122.275,10.3503 125.5,11.5C 115.985,11.1731 106.652,11.5064 97.5,12.5C 69.1667,12.5 40.8333,12.5 12.5,12.5C 16.6344,11.5151 20.9677,11.1818 25.5,11.5C 30.8333,11.5 36.1667,11.5 41.5,11.5C 54.8333,11.5 68.1667,11.5 81.5,11.5C 83.8568,11.6633 86.1902,11.4966 88.5,11C 87.5,10 86.5,9 85.5,8C 81.9748,7.82129 78.6414,7.32129 75.5,6.5 Z"/>
<path fill="#382806" d="M 210.5,6.5 C 222.833,6.5 235.167,6.5 247.5,6.5C 247.5,6.83333 247.5,7.16667 247.5,7.5C 244.833,8.16667 243.167,9.83333 242.5,12.5C 231.248,11.5227 219.914,11.1894 208.5,11.5C 209.936,10.5714 211.269,9.40476 212.5,8C 211.584,7.72158 210.918,7.22158 210.5,6.5 Z"/>
<path fill="#8b7318" d="M 123.5,6.5 C 147.167,6.5 170.833,6.5 194.5,6.5C 195.609,7.28997 196.942,7.78997 198.5,8C 195.211,8.88161 191.877,9.54828 188.5,10C 173.994,10.1688 159.661,10.6688 145.5,11.5C 140.533,10.962 135.866,11.6287 131.5,13.5C 130.081,12.5489 128.415,12.2155 126.5,12.5C 126.5,11.8333 126.167,11.5 125.5,11.5C 122.275,10.3503 118.942,9.1836 115.5,8C 118.365,7.8171 121.031,7.3171 123.5,6.5 Z"/>
<path fill="#7c6010" d="M 10.5,6.5 C 14.5,6.5 18.5,6.5 22.5,6.5C 21.0484,7.30192 19.3817,7.80192 17.5,8C 20.0249,9.71891 22.6916,10.8856 25.5,11.5C 20.9677,11.1818 16.6344,11.5151 12.5,12.5C 12.1667,12.5 11.8333,12.5 11.5,12.5C 10.4036,10.8968 9.07025,9.39683 7.5,8C 8.73747,7.76791 9.73747,7.26791 10.5,6.5 Z"/>
<path fill="#664f11" d="M 10.5,6.5 C 9.73747,7.26791 8.73747,7.76791 7.5,8C 9.07025,9.39683 10.4036,10.8968 11.5,12.5C 11.5,19.1667 11.5,25.8333 11.5,32.5C 10.5326,31.1938 9.19928,30.5271 7.5,30.5C 7.73731,31.791 7.40397,32.791 6.5,33.5C 6.5,24.5 6.5,15.5 6.5,6.5C 7.83333,6.5 9.16667,6.5 10.5,6.5 Z"/>
<path fill="#715b11" d="M 194.5,6.5 C 199.833,6.5 205.167,6.5 210.5,6.5C 210.918,7.22158 211.584,7.72158 212.5,8C 211.269,9.40476 209.936,10.5714 208.5,11.5C 187.5,11.5 166.5,11.5 145.5,11.5C 159.661,10.6688 173.994,10.1688 188.5,10C 191.877,9.54828 195.211,8.88161 198.5,8C 196.942,7.78997 195.609,7.28997 194.5,6.5 Z"/>
<path fill="#2e2406" d="M 97.5,12.5 C 106.652,11.5064 115.985,11.1731 125.5,11.5C 126.167,11.5 126.5,11.8333 126.5,12.5C 124.05,12.298 121.717,12.6314 119.5,13.5C 112.352,12.5084 105.019,12.175 97.5,12.5 Z"/>
<path fill="#060501" d="M 11.5,12.5 C 11.8333,12.5 12.1667,12.5 12.5,12.5C 40.8333,12.5 69.1667,12.5 97.5,12.5C 105.019,12.175 112.352,12.5084 119.5,13.5C 84.1666,20.314 55.8333,37.9806 34.5,66.5C 29.8327,71.8243 26.166,77.8243 23.5,84.5C 21.4082,87.0884 20.0749,90.0884 19.5,93.5C 16.3157,100.065 14.3157,107.065 13.5,114.5C 12.8333,89.5 12.1667,64.5 11.5,39.5C 11.5,37.1667 11.5,34.8333 11.5,32.5C 11.5,25.8333 11.5,19.1667 11.5,12.5 Z"/>
<path fill="#040300" d="M 145.5,11.5 C 166.5,11.5 187.5,11.5 208.5,11.5C 219.914,11.1894 231.248,11.5227 242.5,12.5C 243.497,30.6591 243.83,48.9924 243.5,67.5C 243.5,95.8333 243.5,124.167 243.5,152.5C 243.5,156.833 243.5,161.167 243.5,165.5C 243.5,186.167 243.5,206.833 243.5,227.5C 243.5,232.5 243.5,237.5 243.5,242.5C 243.167,242.5 242.833,242.5 242.5,242.5C 213.5,242.5 184.5,242.5 155.5,242.5C 160.196,241.258 164.863,239.925 169.5,238.5C 170.552,238.649 171.552,238.483 172.5,238C 167.159,235.414 161.492,233.914 155.5,233.5C 152.373,232.419 149.04,231.753 145.5,231.5C 108.314,223.977 82.6474,202.644 68.5,167.5C 67.5376,163.605 66.2043,159.939 64.5,156.5C 63.275,150.822 61.9416,145.155 60.5,139.5C 60.8064,136.615 60.4731,133.948 59.5,131.5C 59.5,125.5 59.5,119.5 59.5,113.5C 61.1613,115.489 62.328,117.822 63,120.5C 63.6036,118.314 64.7703,118.148 66.5,120C 67.8932,121.171 68.7265,122.671 69,124.5C 69.3333,123.5 69.6667,122.5 70,121.5C 71.6124,121.952 72.6124,123.285 73,125.5C 73.3333,124.833 73.6667,124.167 74,123.5C 74.8333,124.5 75.6667,125.5 76.5,126.5C 77.1924,125.975 77.6924,125.308 78,124.5C 79.2733,126.714 80.2733,129.047 81,131.5C 81.3333,130.167 81.6667,128.833 82,127.5C 83.557,132.811 85.057,138.144 86.5,143.5C 86.3918,144.442 86.0585,145.275 85.5,146C 87.7729,148.292 88.9396,151.125 89,154.5C 89.6543,153.304 90.1543,153.304 90.5,154.5C 89.9747,155.192 89.3081,155.692 88.5,156C 90.229,157.789 90.8957,159.956 90.5,162.5C 90.2681,168.62 90.9348,174.62 92.5,180.5C 92.9085,185.473 94.2418,190.14 96.5,194.5C 97.1067,194.376 97.44,194.043 97.5,193.5C 98.1174,193.389 98.6174,193.056 99,192.5C 99.365,179.831 104.532,169.831 114.5,162.5C 120.126,159.847 125.793,157.514 131.5,155.5C 132.959,155.433 134.292,155.766 135.5,156.5C 135.082,163.003 135.748,169.336 137.5,175.5C 137.557,176.609 137.89,177.609 138.5,178.5C 147.852,197.005 162.852,206.672 183.5,207.5C 181.79,203.79 179.123,201.123 175.5,199.5C 175.5,199.167 175.5,198.833 175.5,198.5C 172.947,193.062 170.113,187.729 167,182.5C 166.309,174.805 166.475,167.139 167.5,159.5C 167.5,158.833 167.5,158.167 167.5,157.5C 168.156,156.722 168.989,156.056 170,155.5C 174.575,158.386 179.409,160.886 184.5,163C 198.613,165.373 211.613,162.706 223.5,155C 228.983,150.351 234.316,145.518 239.5,140.5C 239.376,139.893 239.043,139.56 238.5,139.5C 233.968,139.182 229.634,139.515 225.5,140.5C 222.833,140.5 220.167,140.5 217.5,140.5C 209.452,141.564 202.118,139.897 195.5,135.5C 192.526,132.862 189.526,130.195 186.5,127.5C 186.738,125.596 187.738,124.262 189.5,123.5C 193.183,121.659 196.516,119.326 199.5,116.5C 205.049,110.072 209.049,102.739 211.5,94.5C 211.833,92.5 212.167,90.5 212.5,88.5C 213.129,77.995 211.462,67.995 207.5,58.5C 207.44,57.9569 207.107,57.6236 206.5,57.5C 205.438,59.0217 204.771,60.6883 204.5,62.5C 201.379,68.7415 198.213,75.0748 195,81.5C 192.972,84.6922 190.472,87.3589 187.5,89.5C 181.467,92.6847 175.134,95.018 168.5,96.5C 168.5,95.5 168.5,94.5 168.5,93.5C 168.5,92.1667 168.5,90.8333 168.5,89.5C 168.127,77.4236 163.46,67.4236 154.5,59.5C 153.5,57.8333 152.167,56.5 150.5,55.5C 142.001,49.8857 132.668,46.219 122.5,44.5C 121.609,43.8902 120.609,43.5569 119.5,43.5C 118.903,43.7352 118.57,44.2352 118.5,45C 121.24,49.666 124.073,54.166 127,58.5C 128.044,60.7148 128.71,63.0481 129,65.5C 129.451,63.0712 130.285,62.9045 131.5,65C 130.167,66.8402 130.334,67.3402 132,66.5C 133.48,68.6631 133.48,70.6631 132,72.5C 131.667,72.1667 131.333,71.8333 131,71.5C 130.691,72.7659 130.191,73.9326 129.5,75C 126.766,75.2104 124.266,76.0437 122,77.5C 121.503,70.4968 120.837,70.1635 120,76.5C 118.984,75.3659 118.317,75.6992 118,77.5C 117.517,76.552 117.351,75.552 117.5,74.5C 114.882,73.2151 112.382,73.5485 110,75.5C 107.933,72.1979 105.933,71.8646 104,74.5C 102.667,73.1667 101.333,73.1667 100,74.5C 99.6121,73.572 98.9454,72.9054 98,72.5C 96.5781,73.2052 95.2447,73.5385 94,73.5C 93.6667,72.8333 93.3333,72.1667 93,71.5C 90.9288,74.4155 89.5954,74.0822 89,70.5C 88,71.5 87,72.5 86,73.5C 86.6171,71.9052 86.2837,70.5719 85,69.5C 84.51,70.7932 84.3433,72.1266 84.5,73.5C 81.9956,73.1717 80.1622,71.8384 79,69.5C 78.6667,70.5 78.3333,71.5 78,72.5C 75.2116,70.8826 73.3783,68.5492 72.5,65.5C 74.9339,61.7283 76.9339,57.7283 78.5,53.5C 82.8147,48.4112 87.4813,43.5779 92.5,39C 102.666,32.4158 113,26.0824 123.5,20C 126.42,18.0539 129.087,15.8872 131.5,13.5C 135.866,11.6287 140.533,10.962 145.5,11.5 Z"/>
<path fill="#c4bb7b" d="M 126.5,12.5 C 128.415,12.2155 130.081,12.5489 131.5,13.5C 126.084,15.3049 120.751,17.3049 115.5,19.5C 113.95,20.4408 112.284,21.1075 110.5,21.5C 110.44,20.9569 110.107,20.6236 109.5,20.5C 100.393,24.2196 91.7265,28.7196 83.5,34C 74.2069,37.6419 64.8735,41.3086 55.5,45C 53.8333,46.6667 52.1667,48.3333 50.5,50C 52.1667,50.3333 53.8333,50.6667 55.5,51C 47.6306,55.1948 40.6306,60.3614 34.5,66.5C 55.8333,37.9806 84.1666,20.314 119.5,13.5C 121.717,12.6314 124.05,12.298 126.5,12.5 Z"/>
<path fill="#cbc486" d="M 248.5,6.5 C 248.833,6.5 249.167,6.5 249.5,6.5C 249.83,87.5707 249.497,168.571 248.5,249.5C 168.167,249.5 87.8333,249.5 7.5,249.5C 87.4024,248.836 166.736,248.169 245.5,247.5C 244.5,246.167 243.5,244.833 242.5,243.5C 242.5,243.167 242.5,242.833 242.5,242.5C 242.833,242.5 243.167,242.5 243.5,242.5C 244.167,242.833 244.833,243.167 245.5,243.5C 245.908,244.643 246.575,245.643 247.5,246.5C 248.5,166.503 248.833,86.5028 248.5,6.5 Z"/>
<path fill="#675111" d="M 115.5,19.5 C 115.5,20.8333 115.5,22.1667 115.5,23.5C 111.492,25.1308 107.659,27.1308 104,29.5C 99.772,31.3224 95.6053,31.9891 91.5,31.5C 97.3561,27.4037 103.689,24.0704 110.5,21.5C 112.284,21.1075 113.95,20.4408 115.5,19.5 Z"/>
<path fill="#523f0b" d="M 131.5,13.5 C 129.087,15.8872 126.42,18.0539 123.5,20C 113,26.0824 102.666,32.4158 92.5,39C 87.4813,43.5779 82.8147,48.4112 78.5,53.5C 78.8991,46.2442 82.3991,40.9108 89,37.5C 89.3176,35.9391 90.1509,34.7724 91.5,34C 90.7476,33.3292 90.4142,32.4959 90.5,31.5C 90.8333,31.5 91.1667,31.5 91.5,31.5C 95.6053,31.9891 99.772,31.3224 104,29.5C 107.659,27.1308 111.492,25.1308 115.5,23.5C 115.5,22.1667 115.5,20.8333 115.5,19.5C 120.751,17.3049 126.084,15.3049 131.5,13.5 Z"/>
<path fill="#816a17" d="M 11.5,32.5 C 11.5,34.8333 11.5,37.1667 11.5,39.5C 11.5,40.5 11.5,41.5 11.5,42.5C 10.3121,41.3157 9.14547,41.3157 8,42.5C 7.80912,44.7078 7.30912,46.7078 6.5,48.5C 6.5,43.5 6.5,38.5 6.5,33.5C 7.40397,32.791 7.73731,31.791 7.5,30.5C 9.19928,30.5271 10.5326,31.1938 11.5,32.5 Z"/>
<path fill="#654f0f" d="M 90.5,31.5 C 90.4142,32.4959 90.7476,33.3292 91.5,34C 90.1509,34.7724 89.3176,35.9391 89,37.5C 82.3991,40.9108 78.8991,46.2442 78.5,53.5C 76.9339,57.7283 74.9339,61.7283 72.5,65.5C 70.744,67.249 69.4106,69.249 68.5,71.5C 68.2488,69.8297 67.5822,68.3297 66.5,67C 68.8081,65.4117 69.4748,63.4117 68.5,61C 70.1247,60.1475 70.4581,59.1475 69.5,58C 71.7076,56.5384 72.3742,54.7051 71.5,52.5C 74.1465,49.7476 74.4799,47.0809 72.5,44.5C 78.1466,39.6768 84.1466,35.3434 90.5,31.5 Z"/>
<path fill="#d5cd90" d="M 110.5,21.5 C 103.689,24.0704 97.3561,27.4037 91.5,31.5C 91.1667,31.5 90.8333,31.5 90.5,31.5C 84.1466,35.3434 78.1466,39.6768 72.5,44.5C 72.1034,43.475 71.4368,43.3083 70.5,44C 66.9643,47.7039 63.2976,51.2039 59.5,54.5C 54.932,57.8832 50.432,61.5498 46,65.5C 46.6171,63.9052 46.2837,62.5719 45,61.5C 41.5354,63.9626 38.3688,66.7959 35.5,70C 34.552,70.4828 33.552,70.6495 32.5,70.5C 32.6495,71.552 32.4828,72.552 32,73.5C 29.6103,77.666 26.7769,81.3327 23.5,84.5C 26.166,77.8243 29.8327,71.8243 34.5,66.5C 40.6306,60.3614 47.6306,55.1948 55.5,51C 53.8333,50.6667 52.1667,50.3333 50.5,50C 52.1667,48.3333 53.8333,46.6667 55.5,45C 64.8735,41.3086 74.2069,37.6419 83.5,34C 91.7265,28.7196 100.393,24.2196 109.5,20.5C 110.107,20.6236 110.44,20.9569 110.5,21.5 Z"/>
<path fill="#dcd7a8" d="M 119.5,43.5 C 120.609,43.5569 121.609,43.8902 122.5,44.5C 131.8,52.1326 140.467,60.466 148.5,69.5C 149.441,71.0495 150.107,72.7162 150.5,74.5C 150.737,75.791 150.404,76.791 149.5,77.5C 149.206,74.2459 147.873,71.5792 145.5,69.5C 142.208,64.5399 138.208,60.2066 133.5,56.5C 130.124,53.1218 126.457,50.1218 122.5,47.5C 121.211,46.3634 120.211,45.0301 119.5,43.5 Z"/>
<path fill="#a89c54" d="M 122.5,44.5 C 132.668,46.219 142.001,49.8857 150.5,55.5C 150.678,56.6948 151.011,57.8615 151.5,59C 149.828,61.0048 148.161,63.0048 146.5,65C 147.582,66.3297 148.249,67.8297 148.5,69.5C 140.467,60.466 131.8,52.1326 122.5,44.5 Z"/>
<path fill="#534111" d="M 122.5,47.5 C 126.457,50.1218 130.124,53.1218 133.5,56.5C 134.038,58.1172 134.371,59.7839 134.5,61.5C 130.51,56.835 126.51,52.1683 122.5,47.5 Z"/>
<path fill="#614b1c" d="M 250.5,4.5 C 251.692,49.575 251.692,94.575 250.5,139.5C 251.321,175.144 251.821,210.811 252,246.5C 253.269,247.905 253.769,249.571 253.5,251.5C 252.18,250.058 250.514,249.392 248.5,249.5C 249.497,168.571 249.83,87.5707 249.5,6.5C 249.328,5.50838 249.662,4.84171 250.5,4.5 Z"/>
<path fill="#826d26" d="M 247.5,7.5 C 247.5,26.1667 247.5,44.8333 247.5,63.5C 246.333,65.0414 245,66.3748 243.5,67.5C 243.83,48.9924 243.497,30.6591 242.5,12.5C 243.167,9.83333 244.833,8.16667 247.5,7.5 Z"/>
<path fill="#817232" d="M 150.5,55.5 C 152.167,56.5 153.5,57.8333 154.5,59.5C 156.31,63.2627 155.477,66.2627 152,68.5C 151.505,70.4727 151.338,72.4727 151.5,74.5C 151.167,74.5 150.833,74.5 150.5,74.5C 150.107,72.7162 149.441,71.0495 148.5,69.5C 148.249,67.8297 147.582,66.3297 146.5,65C 148.161,63.0048 149.828,61.0048 151.5,59C 151.011,57.8615 150.678,56.6948 150.5,55.5 Z"/>
<path fill="#5a4917" d="M 134.5,61.5 C 135.885,62.5736 137.051,63.9069 138,65.5C 138.498,68.8168 138.665,72.1501 138.5,75.5C 138.81,78.7131 138.477,81.7131 137.5,84.5C 137.972,76.6193 136.972,68.9527 134.5,61.5 Z"/>
<path fill="#ece8bc" d="M 72.5,44.5 C 61.9394,53.7173 53.2727,64.384 46.5,76.5C 45.9569,76.44 45.6236,76.1067 45.5,75.5C 46.154,73.8849 46.654,72.2182 47,70.5C 50.945,64.9164 55.1117,59.583 59.5,54.5C 63.2976,51.2039 66.9643,47.7039 70.5,44C 71.4368,43.3083 72.1034,43.475 72.5,44.5 Z"/>
<path fill="#947c2a" d="M 133.5,56.5 C 138.208,60.2066 142.208,64.5399 145.5,69.5C 144.734,73.0847 142.401,75.0847 138.5,75.5C 138.665,72.1501 138.498,68.8168 138,65.5C 137.051,63.9069 135.885,62.5736 134.5,61.5C 134.371,59.7839 134.038,58.1172 133.5,56.5 Z"/>
<path fill="#68541c" d="M 154.5,59.5 C 163.46,67.4236 168.127,77.4236 168.5,89.5C 167.566,88.4324 167.232,87.099 167.5,85.5C 167.126,82.3798 165.293,81.0465 162,81.5C 158.958,81.3696 156.791,82.7029 155.5,85.5C 154.17,81.7613 152.837,78.0946 151.5,74.5C 151.338,72.4727 151.505,70.4727 152,68.5C 155.477,66.2627 156.31,63.2627 154.5,59.5 Z"/>
<path fill="#0c0a03" d="M 119.5,43.5 C 120.211,45.0301 121.211,46.3634 122.5,47.5C 126.51,52.1683 130.51,56.835 134.5,61.5C 136.972,68.9527 137.972,76.6193 137.5,84.5C 137.5,85.1667 137.5,85.8333 137.5,86.5C 136.419,89.6267 135.753,92.9601 135.5,96.5C 135.167,96.5 134.833,96.5 134.5,96.5C 128.046,92.4412 121.046,89.7745 113.5,88.5C 106.748,87.3839 100.082,86.7172 93.5,86.5C 79.2075,86.8156 70.8742,93.8156 68.5,107.5C 67.1667,109.167 65.8333,110.833 64.5,112.5C 64.9169,113.124 65.5836,113.457 66.5,113.5C 75.8339,109.758 85.5005,108.591 95.5,110C 101.239,112.592 106.573,115.759 111.5,119.5C 112.167,120.833 113.167,121.833 114.5,122.5C 115.167,123.833 116.167,124.833 117.5,125.5C 113.742,128.557 109.742,131.39 105.5,134C 102.906,136.086 100.906,138.586 99.5,141.5C 94.8876,147.658 92.221,154.658 91.5,162.5C 91.1667,162.5 90.8333,162.5 90.5,162.5C 90.8957,159.956 90.229,157.789 88.5,156C 89.3081,155.692 89.9747,155.192 90.5,154.5C 90.1543,153.304 89.6543,153.304 89,154.5C 88.9396,151.125 87.7729,148.292 85.5,146C 86.0585,145.275 86.3918,144.442 86.5,143.5C 85.057,138.144 83.557,132.811 82,127.5C 81.6667,128.833 81.3333,130.167 81,131.5C 80.2733,129.047 79.2733,126.714 78,124.5C 77.6924,125.308 77.1924,125.975 76.5,126.5C 75.6667,125.5 74.8333,124.5 74,123.5C 73.6667,124.167 73.3333,124.833 73,125.5C 72.6124,123.285 71.6124,121.952 70,121.5C 69.6667,122.5 69.3333,123.5 69,124.5C 68.7265,122.671 67.8932,121.171 66.5,120C 64.7703,118.148 63.6036,118.314 63,120.5C 62.328,117.822 61.1613,115.489 59.5,113.5C 59.9422,109.846 60.2756,106.179 60.5,102.5C 60.5,101.5 60.5,100.5 60.5,99.5C 62.1179,94.7442 63.1179,89.7442 63.5,84.5C 64.9313,83.2196 65.5979,81.5529 65.5,79.5C 66.4942,76.8763 67.4942,74.2097 68.5,71.5C 69.4106,69.249 70.744,67.249 72.5,65.5C 73.3783,68.5492 75.2116,70.8826 78,72.5C 78.3333,71.5 78.6667,70.5 79,69.5C 80.1622,71.8384 81.9956,73.1717 84.5,73.5C 84.3433,72.1266 84.51,70.7932 85,69.5C 86.2837,70.5719 86.6171,71.9052 86,73.5C 87,72.5 88,71.5 89,70.5C 89.5954,74.0822 90.9288,74.4155 93,71.5C 93.3333,72.1667 93.6667,72.8333 94,73.5C 95.2447,73.5385 96.5781,73.2052 98,72.5C 98.9454,72.9054 99.6121,73.572 100,74.5C 101.333,73.1667 102.667,73.1667 104,74.5C 105.933,71.8646 107.933,72.1979 110,75.5C 112.382,73.5485 114.882,73.2151 117.5,74.5C 117.351,75.552 117.517,76.552 118,77.5C 118.317,75.6992 118.984,75.3659 120,76.5C 120.837,70.1635 121.503,70.4968 122,77.5C 124.266,76.0437 126.766,75.2104 129.5,75C 130.191,73.9326 130.691,72.7659 131,71.5C 131.333,71.8333 131.667,72.1667 132,72.5C 133.48,70.6631 133.48,68.6631 132,66.5C 130.334,67.3402 130.167,66.8402 131.5,65C 130.285,62.9045 129.451,63.0712 129,65.5C 128.71,63.0481 128.044,60.7148 127,58.5C 124.073,54.166 121.24,49.666 118.5,45C 118.57,44.2352 118.903,43.7352 119.5,43.5 Z"/>
<path fill="#ded695" d="M 59.5,54.5 C 55.1117,59.583 50.945,64.9164 47,70.5C 46.654,72.2182 46.154,73.8849 45.5,75.5C 45.6236,76.1067 45.9569,76.44 46.5,76.5C 46.5,77.1667 46.5,77.8333 46.5,78.5C 46.0075,80.8185 45.0075,82.8185 43.5,84.5C 40.6709,90.1453 38.5042,96.1453 37,102.5C 35.0602,113.415 34.2269,124.415 34.5,135.5C 34.631,136.239 34.4643,136.906 34,137.5C 33.6667,135.833 33.3333,134.167 33,132.5C 32.8321,122.816 32.3321,113.149 31.5,103.5C 29.3821,102.054 27.0488,101.387 24.5,101.5C 24.6567,100.127 24.49,98.7932 24,97.5C 22.984,98.6341 22.3173,98.3008 22,96.5C 20.9966,98.9351 20.4966,98.6018 20.5,95.5C 22.2819,92.0386 23.2819,88.3719 23.5,84.5C 26.7769,81.3327 29.6103,77.666 32,73.5C 32.4828,72.552 32.6495,71.552 32.5,70.5C 33.552,70.6495 34.552,70.4828 35.5,70C 38.3688,66.7959 41.5354,63.9626 45,61.5C 46.2837,62.5719 46.6171,63.9052 46,65.5C 50.432,61.5498 54.932,57.8832 59.5,54.5 Z"/>
<path fill="#675a18" d="M 11.5,39.5 C 12.1667,64.5 12.8333,89.5 13.5,114.5C 12.7279,118.452 12.3946,122.452 12.5,126.5C 11.596,125.791 11.2627,124.791 11.5,123.5C 11.5,100.5 11.5,77.5 11.5,54.5C 11.5,50.5 11.5,46.5 11.5,42.5C 11.5,41.5 11.5,40.5 11.5,39.5 Z"/>
<path fill="#7f661e" d="M 151.5,74.5 C 152.837,78.0946 154.17,81.7613 155.5,85.5C 156.791,82.7029 158.958,81.3696 162,81.5C 165.293,81.0465 167.126,82.3798 167.5,85.5C 160.839,85.657 156.672,88.9903 155,95.5C 154.502,98.4816 154.335,101.482 154.5,104.5C 154.5,105.5 154.5,106.5 154.5,107.5C 153.833,99.8333 153.167,92.1667 152.5,84.5C 152.5,83.5 152.5,82.5 152.5,81.5C 152.326,79.139 151.993,76.8056 151.5,74.5 Z"/>
<path fill="#897118" d="M 65.5,79.5 C 65.5979,81.5529 64.9313,83.2196 63.5,84.5C 63.7852,82.712 63.4519,81.0453 62.5,79.5C 61.5009,82.1741 59.8342,82.8408 57.5,81.5C 55.4827,82.6729 54.816,84.1729 55.5,86C 54.8095,87.0674 54.3095,88.2341 54,89.5C 53.4444,87.4049 52.9444,87.2382 52.5,89C 54.0882,95.5139 55.4215,102.014 56.5,108.5C 54.5905,107.025 53.4238,105.025 53,102.5C 52.7896,97.2243 51.9563,92.0576 50.5,87C 50.9504,85.7147 51.6171,84.548 52.5,83.5C 51.9747,82.8076 51.3081,82.3076 50.5,82C 51.392,73.0021 55.392,64.8355 62.5,57.5C 63.7596,59.3529 63.7596,61.1862 62.5,63C 64.2826,64.0665 64.7826,65.5665 64,67.5C 63.0853,66.6721 62.4186,65.6721 62,64.5C 61.5,65 61,65.5 60.5,66C 65.0587,69.2897 66.7254,73.7897 65.5,79.5 Z"/>
<path fill="#c1ab51" d="M 145.5,69.5 C 147.873,71.5792 149.206,74.2459 149.5,77.5C 149.777,80.4475 149.444,83.2809 148.5,86C 145.5,86.3333 142.5,86.6667 139.5,87C 138.178,89.1676 137.511,89.0009 137.5,86.5C 137.5,85.8333 137.5,85.1667 137.5,84.5C 138.477,81.7131 138.81,78.7131 138.5,75.5C 142.401,75.0847 144.734,73.0847 145.5,69.5 Z"/>
<path fill="#604913" d="M 207.5,58.5 C 211.462,67.995 213.129,77.995 212.5,88.5C 211.526,89.635 210.359,90.635 209,91.5C 207.542,90.2532 206.042,90.2532 204.5,91.5C 202.72,96.2825 199.387,99.2825 194.5,100.5C 197.848,95.6498 200.348,90.3165 202,84.5C 204.155,75.8816 205.989,67.215 207.5,58.5 Z"/>
<path fill="#b5aa66" d="M 204.5,62.5 C 204.059,69.3717 202.726,76.0384 200.5,82.5C 199.579,83.981 198.412,85.3144 197,86.5C 193.624,87.0676 190.457,88.0676 187.5,89.5C 190.472,87.3589 192.972,84.6922 195,81.5C 198.213,75.0748 201.379,68.7415 204.5,62.5 Z"/>
<path fill="#a28b21" d="M 11.5,42.5 C 11.5,46.5 11.5,50.5 11.5,54.5C 9.22387,54.7565 8.0572,56.0898 8,58.5C 7.33333,78.1667 7.33333,97.8333 8,117.5C 8.18156,120.226 8.68156,122.893 9.5,125.5C 10.1818,124.757 10.8485,124.091 11.5,123.5C 11.2627,124.791 11.596,125.791 12.5,126.5C 12.5,130.5 12.5,134.5 12.5,138.5C 11.508,145.982 11.1746,153.648 11.5,161.5C 11.5,164.167 11.5,166.833 11.5,169.5C 10.5,169.5 9.5,169.5 8.5,169.5C 8.19162,165.64 7.52495,161.974 6.5,158.5C 6.5,121.833 6.5,85.1667 6.5,48.5C 7.30912,46.7078 7.80912,44.7078 8,42.5C 9.14547,41.3157 10.3121,41.3157 11.5,42.5 Z"/>
<path fill="#191508" d="M 113.5,88.5 C 108.305,88.1795 103.305,88.5128 98.5,89.5C 95.8478,89.4095 93.5145,90.0762 91.5,91.5C 82.7476,95.2491 75.0809,100.582 68.5,107.5C 70.8742,93.8156 79.2075,86.8156 93.5,86.5C 100.082,86.7172 106.748,87.3839 113.5,88.5 Z"/>
<path fill="#bda82f" d="M 11.5,54.5 C 11.5,77.5 11.5,100.5 11.5,123.5C 10.8485,124.091 10.1818,124.757 9.5,125.5C 8.68156,122.893 8.18156,120.226 8,117.5C 7.33333,97.8333 7.33333,78.1667 8,58.5C 8.0572,56.0898 9.22387,54.7565 11.5,54.5 Z"/>
<path fill="#cdbe6e" d="M 150.5,74.5 C 150.833,74.5 151.167,74.5 151.5,74.5C 151.993,76.8056 152.326,79.139 152.5,81.5C 151.732,80.7375 151.232,79.7375 151,78.5C 150.5,91.1623 150.333,103.829 150.5,116.5C 149.5,116.5 148.5,116.5 147.5,116.5C 143.789,109.502 139.789,102.835 135.5,96.5C 135.753,92.9601 136.419,89.6267 137.5,86.5C 137.511,89.0009 138.178,89.1676 139.5,87C 142.5,86.6667 145.5,86.3333 148.5,86C 149.444,83.2809 149.777,80.4475 149.5,77.5C 150.404,76.791 150.737,75.791 150.5,74.5 Z"/>
<path fill="#ac9f49" d="M 152.5,84.5 C 153.167,92.1667 153.833,99.8333 154.5,107.5C 154.187,111.042 154.521,114.375 155.5,117.5C 155.5,118.167 155.5,118.833 155.5,119.5C 154.85,119.804 154.183,120.137 153.5,120.5C 152.548,118.955 152.215,117.288 152.5,115.5C 152.5,105.167 152.5,94.8333 152.5,84.5 Z"/>
<path fill="#dcd59c" d="M 200.5,82.5 C 199.55,86.4656 198.217,90.2989 196.5,94C 186.239,94.0081 176.906,95.1748 168.5,97.5C 168.5,97.1667 168.5,96.8333 168.5,96.5C 175.134,95.018 181.467,92.6847 187.5,89.5C 190.457,88.0676 193.624,87.0676 197,86.5C 198.412,85.3144 199.579,83.981 200.5,82.5 Z"/>
<path fill="#b19b29" d="M 60.5,99.5 C 60.5,100.5 60.5,101.5 60.5,102.5C 59.5418,104.302 58.8751,106.302 58.5,108.5C 58.0889,104.206 57.0889,100.04 55.5,96C 57.264,93.4881 58.9307,90.9881 60.5,88.5C 61.0791,92.0957 61.0791,95.7624 60.5,99.5 Z"/>
<path fill="#9d8523" d="M 167.5,85.5 C 167.232,87.099 167.566,88.4324 168.5,89.5C 168.5,90.8333 168.5,92.1667 168.5,93.5C 167.596,92.791 167.263,91.791 167.5,90.5C 165.064,90.317 162.897,90.9837 161,92.5C 159.067,96.7035 156.901,100.703 154.5,104.5C 154.335,101.482 154.502,98.4816 155,95.5C 156.672,88.9903 160.839,85.657 167.5,85.5 Z"/>
<path fill="#c8bf79" d="M 98.5,89.5 C 105.241,89.1712 111.908,89.6712 118.5,91C 118.957,91.414 119.291,91.914 119.5,92.5C 116.829,95.6845 116.162,99.1845 117.5,103C 125.766,109.092 134.432,114.592 143.5,119.5C 144.386,118.675 144.719,117.675 144.5,116.5C 145.906,116.973 146.573,117.973 146.5,119.5C 145.595,120.964 145.595,122.298 146.5,123.5C 146.167,123.5 145.833,123.5 145.5,123.5C 138,118.582 130.333,113.916 122.5,109.5C 118.094,107.484 113.761,105.484 109.5,103.5C 110.552,103.649 111.552,103.483 112.5,103C 110.102,101.982 107.769,100.815 105.5,99.5C 104.197,96.9569 103.197,94.2903 102.5,91.5C 98.8614,90.5397 95.1947,90.5397 91.5,91.5C 93.5145,90.0762 95.8478,89.4095 98.5,89.5 Z"/>
<path fill="#9a831f" d="M 63.5,84.5 C 63.1179,89.7442 62.1179,94.7442 60.5,99.5C 61.0791,95.7624 61.0791,92.0957 60.5,88.5C 58.9307,90.9881 57.264,93.4881 55.5,96C 57.0889,100.04 58.0889,104.206 58.5,108.5C 58.2627,112.289 57.5961,112.289 56.5,108.5C 55.4215,102.014 54.0882,95.5139 52.5,89C 52.9444,87.2382 53.4444,87.4049 54,89.5C 54.3095,88.2341 54.8095,87.0674 55.5,86C 54.816,84.1729 55.4827,82.6729 57.5,81.5C 59.8342,82.8408 61.5009,82.1741 62.5,79.5C 63.4519,81.0453 63.7852,82.712 63.5,84.5 Z"/>
<path fill="#ebe7bc" d="M 109.5,103.5 C 108.833,103.5 108.167,103.5 107.5,103.5C 100.615,101.876 93.948,102.543 87.5,105.5C 79.7616,107.635 72.0949,109.969 64.5,112.5C 65.8333,110.833 67.1667,109.167 68.5,107.5C 75.0809,100.582 82.7476,95.2491 91.5,91.5C 95.1947,90.5397 98.8614,90.5397 102.5,91.5C 103.197,94.2903 104.197,96.9569 105.5,99.5C 107.769,100.815 110.102,101.982 112.5,103C 111.552,103.483 110.552,103.649 109.5,103.5 Z"/>
<path fill="#b6a12f" d="M 168.5,93.5 C 168.5,94.5 168.5,95.5 168.5,96.5C 168.5,96.8333 168.5,97.1667 168.5,97.5C 168.5,98.1667 168.167,98.5 167.5,98.5C 167.5,97.1667 167.5,95.8333 167.5,94.5C 165.738,94.3573 164.071,94.6906 162.5,95.5C 156.828,101.017 154.661,107.683 156,115.5C 156.69,114.262 157.19,114.262 157.5,115.5C 157.167,116.5 156.5,117.167 155.5,117.5C 154.521,114.375 154.187,111.042 154.5,107.5C 154.5,106.5 154.5,105.5 154.5,104.5C 156.901,100.703 159.067,96.7035 161,92.5C 162.897,90.9837 165.064,90.317 167.5,90.5C 167.263,91.791 167.596,92.791 168.5,93.5 Z"/>
<path fill="#efecc4" d="M 207.5,58.5 C 205.989,67.215 204.155,75.8816 202,84.5C 200.348,90.3165 197.848,95.6498 194.5,100.5C 192.167,102.5 189.833,104.5 187.5,106.5C 183.164,108.332 179.164,110.665 175.5,113.5C 169.74,117.377 163.74,120.711 157.5,123.5C 156.391,123.557 155.391,123.89 154.5,124.5C 153.957,124.44 153.624,124.107 153.5,123.5C 154.63,122.378 155.297,121.044 155.5,119.5C 155.5,118.833 155.5,118.167 155.5,117.5C 156.5,117.167 157.167,116.5 157.5,115.5C 160.1,112.637 161.933,109.303 163,105.5C 165.582,103.772 167.082,101.439 167.5,98.5C 168.167,98.5 168.5,98.1667 168.5,97.5C 176.906,95.1748 186.239,94.0081 196.5,94C 198.217,90.2989 199.55,86.4656 200.5,82.5C 202.726,76.0384 204.059,69.3717 204.5,62.5C 204.771,60.6883 205.438,59.0217 206.5,57.5C 207.107,57.6236 207.44,57.9569 207.5,58.5 Z"/>
<path fill="#99832b" d="M 247.5,63.5 C 245.358,75.153 244.358,86.9864 244.5,99C 244.667,104.833 244.833,110.667 245,116.5C 245.413,119.232 246.08,121.899 247,124.5C 247.5,137.162 247.667,149.829 247.5,162.5C 246.239,159.742 245.406,156.742 245,153.5C 244.617,152.944 244.117,152.611 243.5,152.5C 243.5,124.167 243.5,95.8333 243.5,67.5C 245,66.3748 246.333,65.0414 247.5,63.5 Z"/>
<path fill="#d7cd85" d="M 23.5,84.5 C 23.2819,88.3719 22.2819,92.0386 20.5,95.5C 20.4966,98.6018 20.9966,98.9351 22,96.5C 22.3173,98.3008 22.984,98.6341 24,97.5C 24.49,98.7932 24.6567,100.127 24.5,101.5C 27.0488,101.387 29.3821,102.054 31.5,103.5C 32.3321,113.149 32.8321,122.816 33,132.5C 33.3333,134.167 33.6667,135.833 34,137.5C 34.4643,136.906 34.631,136.239 34.5,135.5C 35.5273,142.334 37.1939,149 39.5,155.5C 39.5,155.833 39.5,156.167 39.5,156.5C 39.5713,159.311 40.238,161.978 41.5,164.5C 41.4573,165.416 41.1239,166.083 40.5,166.5C 40.3404,164.847 39.6737,163.514 38.5,162.5C 36.6096,153.268 34.2763,144.268 31.5,135.5C 31.6367,130.063 30.97,124.73 29.5,119.5C 26.8774,117.346 24.0441,116.679 21,117.5C 19.4877,115.043 18.1544,115.043 17,117.5C 16.2086,116.255 15.7086,114.922 15.5,113.5C 16.8346,106.831 18.1679,100.164 19.5,93.5C 20.0749,90.0884 21.4082,87.0884 23.5,84.5 Z"/>
<path fill="#3c2b08" d="M 211.5,94.5 C 209.049,102.739 205.049,110.072 199.5,116.5C 199.509,114.692 199.009,113.025 198,111.5C 195.909,112.5 194.243,111.833 193,109.5C 191.928,106.447 192.928,104.447 196,103.5C 198.12,104.459 200.287,104.626 202.5,104C 205.578,100.819 208.578,97.6523 211.5,94.5 Z"/>
<path fill="#685215" d="M 37.5,119.5 C 37.5,116.5 37.5,113.5 37.5,110.5C 38.558,101.602 40.558,92.9358 43.5,84.5C 45.0075,82.8185 46.0075,80.8185 46.5,78.5C 47.5754,77.4376 48.5754,77.4376 49.5,78.5C 48.8938,80.7094 48.2272,82.876 47.5,85C 48.1258,85.7504 48.6258,86.5838 49,87.5C 49.4536,92.2633 49.2869,96.7633 48.5,101C 49,101.5 49.5,102 50,102.5C 50.0056,104.809 50.1723,106.975 50.5,109C 48.5023,109.993 46.669,111.827 45,114.5C 43.887,115.76 43.7203,116.927 44.5,118C 43.0039,118.507 41.8373,118.007 41,116.5C 40.5291,118.246 39.8624,119.913 39,121.5C 38.7216,120.584 38.2216,119.918 37.5,119.5 Z"/>
<path fill="#61501a" d="M 107.5,103.5 C 105.143,103.337 102.81,103.503 100.5,104C 101.624,104.249 102.624,104.749 103.5,105.5C 98.208,107.527 92.8746,107.527 87.5,105.5C 93.948,102.543 100.615,101.876 107.5,103.5 Z"/>
<path fill="#c4be66" d="M 43.5,84.5 C 40.558,92.9358 38.558,101.602 37.5,110.5C 36.508,117.982 36.1746,125.648 36.5,133.5C 37.24,140.867 38.24,148.201 39.5,155.5C 37.1939,149 35.5273,142.334 34.5,135.5C 34.2269,124.415 35.0602,113.415 37,102.5C 38.5042,96.1453 40.6709,90.1453 43.5,84.5 Z"/>
<path fill="#4a380c" d="M 107.5,103.5 C 108.167,103.5 108.833,103.5 109.5,103.5C 113.761,105.484 118.094,107.484 122.5,109.5C 119.682,109.439 116.682,109.772 113.5,110.5C 111.74,113.212 111.073,116.212 111.5,119.5C 106.573,115.759 101.239,112.592 95.5,110C 85.5005,108.591 75.8339,109.758 66.5,113.5C 65.5836,113.457 64.9169,113.124 64.5,112.5C 72.0949,109.969 79.7616,107.635 87.5,105.5C 92.8746,107.527 98.208,107.527 103.5,105.5C 102.624,104.749 101.624,104.249 100.5,104C 102.81,103.503 105.143,103.337 107.5,103.5 Z"/>
<path fill="#f5f2d3" d="M 134.5,96.5 C 134.833,96.5 135.167,96.5 135.5,96.5C 139.789,102.835 143.789,109.502 147.5,116.5C 149.484,118.46 150.317,120.793 150,123.5C 149.051,121.907 147.885,120.574 146.5,119.5C 146.573,117.973 145.906,116.973 144.5,116.5C 141.167,109.833 137.833,103.167 134.5,96.5 Z"/>
<path fill="#79621b" d="M 72.5,44.5 C 74.4799,47.0809 74.1465,49.7476 71.5,52.5C 72.3742,54.7051 71.7076,56.5384 69.5,58C 70.4581,59.1475 70.1247,60.1475 68.5,61C 69.4748,63.4117 68.8081,65.4117 66.5,67C 67.5822,68.3297 68.2488,69.8297 68.5,71.5C 67.4942,74.2097 66.4942,76.8763 65.5,79.5C 66.7254,73.7897 65.0587,69.2897 60.5,66C 61,65.5 61.5,65 62,64.5C 62.4186,65.6721 63.0853,66.6721 64,67.5C 64.7826,65.5665 64.2826,64.0665 62.5,63C 63.7596,61.1862 63.7596,59.3529 62.5,57.5C 55.392,64.8355 51.392,73.0021 50.5,82C 51.3081,82.3076 51.9747,82.8076 52.5,83.5C 51.6171,84.548 50.9504,85.7147 50.5,87C 51.9563,92.0576 52.7896,97.2243 53,102.5C 53.4238,105.025 54.5905,107.025 56.5,108.5C 57.5961,112.289 58.2627,112.289 58.5,108.5C 58.8751,106.302 59.5418,104.302 60.5,102.5C 60.2756,106.179 59.9422,109.846 59.5,113.5C 59.5,119.5 59.5,125.5 59.5,131.5C 58.6753,127.353 58.1753,123.019 58,118.5C 57.6667,118.167 57.3333,117.833 57,117.5C 56.5172,118.448 56.3505,119.448 56.5,120.5C 52.4758,118.693 51.1424,119.859 52.5,124C 50.9632,125.11 50.2965,126.61 50.5,128.5C 49.1779,128.33 48.0113,128.663 47,129.5C 45.1629,132.509 43.3296,135.509 41.5,138.5C 38.0244,132.698 36.691,126.365 37.5,119.5C 38.2216,119.918 38.7216,120.584 39,121.5C 39.8624,119.913 40.5291,118.246 41,116.5C 41.8373,118.007 43.0039,118.507 44.5,118C 43.7203,116.927 43.887,115.76 45,114.5C 46.669,111.827 48.5023,109.993 50.5,109C 50.1723,106.975 50.0056,104.809 50,102.5C 49.5,102 49,101.5 48.5,101C 49.2869,96.7633 49.4536,92.2633 49,87.5C 48.6258,86.5838 48.1258,85.7504 47.5,85C 48.2272,82.876 48.8938,80.7094 49.5,78.5C 48.5754,77.4376 47.5754,77.4376 46.5,78.5C 46.5,77.8333 46.5,77.1667 46.5,76.5C 53.2727,64.384 61.9394,53.7173 72.5,44.5 Z"/>
<path fill="#ccba44" d="M 167.5,98.5 C 167.082,101.439 165.582,103.772 163,105.5C 161.933,109.303 160.1,112.637 157.5,115.5C 157.19,114.262 156.69,114.262 156,115.5C 154.661,107.683 156.828,101.017 162.5,95.5C 164.071,94.6906 165.738,94.3573 167.5,94.5C 167.5,95.8333 167.5,97.1667 167.5,98.5 Z"/>
<path fill="#715c18" d="M 122.5,109.5 C 130.333,113.916 138,118.582 145.5,123.5C 145.44,124.043 145.107,124.376 144.5,124.5C 140.315,121.575 135.982,118.909 131.5,116.5C 128.455,114.952 125.122,113.952 121.5,113.5C 119.709,115.46 117.543,116.793 115,117.5C 114.506,119.134 114.34,120.801 114.5,122.5C 113.167,121.833 112.167,120.833 111.5,119.5C 111.073,116.212 111.74,113.212 113.5,110.5C 116.682,109.772 119.682,109.439 122.5,109.5 Z"/>
<path fill="#49370b" d="M 212.5,88.5 C 212.167,90.5 211.833,92.5 211.5,94.5C 208.578,97.6523 205.578,100.819 202.5,104C 200.287,104.626 198.12,104.459 196,103.5C 192.928,104.447 191.928,106.447 193,109.5C 194.243,111.833 195.909,112.5 198,111.5C 199.009,113.025 199.509,114.692 199.5,116.5C 196.516,119.326 193.183,121.659 189.5,123.5C 190.028,122.153 190.195,120.819 190,119.5C 189.667,119.833 189.333,120.167 189,120.5C 186.896,118.262 184.562,117.262 182,117.5C 179.402,115.387 176.569,114.887 173.5,116C 174.381,115.292 175.047,114.458 175.5,113.5C 179.044,112.888 182.377,111.721 185.5,110C 186.305,108.887 186.972,107.721 187.5,106.5C 189.833,104.5 192.167,102.5 194.5,100.5C 199.387,99.2825 202.72,96.2825 204.5,91.5C 206.042,90.2532 207.542,90.2532 209,91.5C 210.359,90.635 211.526,89.635 212.5,88.5 Z"/>
<path fill="#b0a153" d="M 98.5,89.5 C 103.305,88.5128 108.305,88.1795 113.5,88.5C 121.046,89.7745 128.046,92.4412 134.5,96.5C 137.833,103.167 141.167,109.833 144.5,116.5C 144.719,117.675 144.386,118.675 143.5,119.5C 134.432,114.592 125.766,109.092 117.5,103C 116.162,99.1845 116.829,95.6845 119.5,92.5C 119.291,91.914 118.957,91.414 118.5,91C 111.908,89.6712 105.241,89.1712 98.5,89.5 Z"/>
<path fill="#71682d" d="M 187.5,106.5 C 186.972,107.721 186.305,108.887 185.5,110C 182.377,111.721 179.044,112.888 175.5,113.5C 179.164,110.665 183.164,108.332 187.5,106.5 Z"/>
<path fill="#d3c777" d="M 15.5,113.5 C 15.7086,114.922 16.2086,116.255 17,117.5C 18.1544,115.043 19.4877,115.043 21,117.5C 24.0441,116.679 26.8774,117.346 29.5,119.5C 30.97,124.73 31.6367,130.063 31.5,135.5C 29.5804,130.381 25.7471,128.048 20,128.5C 18.2494,129.174 16.5827,129.507 15,129.5C 14.1826,123.984 14.3493,118.65 15.5,113.5 Z"/>
<path fill="#dfda9f" d="M 152.5,81.5 C 152.5,82.5 152.5,83.5 152.5,84.5C 152.5,94.8333 152.5,105.167 152.5,115.5C 151.677,118.977 151.177,122.644 151,126.5C 150.617,127.056 150.117,127.389 149.5,127.5C 139.659,126.177 129.659,126.177 119.5,127.5C 121.045,128.452 122.712,128.785 124.5,128.5C 124.5,129.5 124.5,130.5 124.5,131.5C 121.091,131.751 117.758,131.417 114.5,130.5C 111.554,132.888 108.387,134.888 105,136.5C 104.431,141.546 105.264,146.379 107.5,151C 107.836,152.03 108.503,152.53 109.5,152.5C 108.488,153.872 107.488,155.205 106.5,156.5C 101.979,152.61 99.6455,147.61 99.5,141.5C 100.906,138.586 102.906,136.086 105.5,134C 109.742,131.39 113.742,128.557 117.5,125.5C 118.5,125.5 119.5,125.5 120.5,125.5C 129.839,125.666 139.173,125.5 148.5,125C 147.956,124.283 147.289,123.783 146.5,123.5C 145.595,122.298 145.595,120.964 146.5,119.5C 147.885,120.574 149.051,121.907 150,123.5C 150.317,120.793 149.484,118.46 147.5,116.5C 148.5,116.5 149.5,116.5 150.5,116.5C 150.333,103.829 150.5,91.1623 151,78.5C 151.232,79.7375 151.732,80.7375 152.5,81.5 Z"/>
<path fill="#98801f" d="M 131.5,116.5 C 128.09,117.747 124.757,118.581 121.5,119C 120.939,120.676 119.939,122.009 118.5,123C 120.935,123.075 121.602,123.908 120.5,125.5C 119.5,125.5 118.5,125.5 117.5,125.5C 116.167,124.833 115.167,123.833 114.5,122.5C 114.34,120.801 114.506,119.134 115,117.5C 117.543,116.793 119.709,115.46 121.5,113.5C 125.122,113.952 128.455,114.952 131.5,116.5 Z"/>
<path fill="#af9b2f" d="M 131.5,116.5 C 135.982,118.909 140.315,121.575 144.5,124.5C 145.107,124.376 145.44,124.043 145.5,123.5C 145.833,123.5 146.167,123.5 146.5,123.5C 147.289,123.783 147.956,124.283 148.5,125C 139.173,125.5 129.839,125.666 120.5,125.5C 121.602,123.908 120.935,123.075 118.5,123C 119.939,122.009 120.939,120.676 121.5,119C 124.757,118.581 128.09,117.747 131.5,116.5 Z"/>
<path fill="#5b4a12" d="M 175.5,113.5 C 175.047,114.458 174.381,115.292 173.5,116C 176.569,114.887 179.402,115.387 182,117.5C 184.562,117.262 186.896,118.262 189,120.5C 189.333,120.167 189.667,119.833 190,119.5C 190.195,120.819 190.028,122.153 189.5,123.5C 187.738,124.262 186.738,125.596 186.5,127.5C 185.833,127.167 185.167,126.833 184.5,126.5C 175.494,126.666 166.494,126.5 157.5,126C 156.402,125.23 156.402,124.397 157.5,123.5C 163.74,120.711 169.74,117.377 175.5,113.5 Z"/>
<path fill="#5c4218" d="M 254.5,1.5 C 254.833,1.5 255.167,1.5 255.5,1.5C 255.5,85.5 255.5,169.5 255.5,253.5C 254.075,255.031 253.409,254.698 253.5,252.5C 254.499,169.002 254.833,85.335 254.5,1.5 Z"/>
<path fill="#f2eec8" d="M 149.5,127.5 C 148.833,127.5 148.5,127.833 148.5,128.5C 146.847,128.66 145.514,129.326 144.5,130.5C 143.486,131.674 142.153,132.34 140.5,132.5C 138.973,132.427 137.973,133.094 137.5,134.5C 135.847,134.66 134.514,135.326 133.5,136.5C 127.02,138.993 121.354,142.659 116.5,147.5C 113.907,148.754 111.573,150.42 109.5,152.5C 108.503,152.53 107.836,152.03 107.5,151C 105.264,146.379 104.431,141.546 105,136.5C 108.387,134.888 111.554,132.888 114.5,130.5C 117.758,131.417 121.091,131.751 124.5,131.5C 124.5,130.5 124.5,129.5 124.5,128.5C 122.712,128.785 121.045,128.452 119.5,127.5C 129.659,126.177 139.659,126.177 149.5,127.5 Z"/>
<path fill="#a2954e" d="M 157.5,123.5 C 156.402,124.397 156.402,125.23 157.5,126C 166.494,126.5 175.494,126.666 184.5,126.5C 182.228,132.147 183.228,136.98 187.5,141C 200.34,143.105 213.006,142.939 225.5,140.5C 229.634,139.515 233.968,139.182 238.5,139.5C 236.75,140.87 234.75,141.87 232.5,142.5C 232.083,141.876 231.416,141.543 230.5,141.5C 218.558,145.483 206.225,147.983 193.5,149C 196.726,150.199 200.059,150.699 203.5,150.5C 201.052,151.473 198.385,151.806 195.5,151.5C 192.746,150.359 190.079,149.025 187.5,147.5C 187.918,146.778 188.584,146.278 189.5,146C 182.003,141.672 174.337,137.672 166.5,134C 162.698,130.61 158.364,127.944 153.5,126C 154.056,125.617 154.389,125.117 154.5,124.5C 155.391,123.89 156.391,123.557 157.5,123.5 Z"/>
<path fill="#8e803e" d="M 184.5,126.5 C 185.167,126.833 185.833,127.167 186.5,127.5C 189.526,130.195 192.526,132.862 195.5,135.5C 197.092,137.735 199.259,139.402 202,140.5C 207.321,141.729 212.488,141.729 217.5,140.5C 220.167,140.5 222.833,140.5 225.5,140.5C 213.006,142.939 200.34,143.105 187.5,141C 183.228,136.98 182.228,132.147 184.5,126.5 Z"/>
<path fill="#b39b3d" d="M 247.5,6.5 C 247.833,6.5 248.167,6.5 248.5,6.5C 248.833,86.5028 248.5,166.503 247.5,246.5C 246.575,245.643 245.908,244.643 245.5,243.5C 246.117,243.389 246.617,243.056 247,242.5C 247.5,215.835 247.667,189.169 247.5,162.5C 247.667,149.829 247.5,137.162 247,124.5C 246.08,121.899 245.413,119.232 245,116.5C 244.833,110.667 244.667,104.833 244.5,99C 244.358,86.9864 245.358,75.153 247.5,63.5C 247.5,44.8333 247.5,26.1667 247.5,7.5C 247.5,7.16667 247.5,6.83333 247.5,6.5 Z"/>
<path fill="#aba55a" d="M 140.5,132.5 C 140.027,133.906 139.027,134.573 137.5,134.5C 137.973,133.094 138.973,132.427 140.5,132.5 Z"/>
<path fill="#897125" d="M 37.5,110.5 C 37.5,113.5 37.5,116.5 37.5,119.5C 36.691,126.365 38.0244,132.698 41.5,138.5C 43.3296,135.509 45.1629,132.509 47,129.5C 48.0113,128.663 49.1779,128.33 50.5,128.5C 50.2965,126.61 50.9632,125.11 52.5,124C 51.1424,119.859 52.4758,118.693 56.5,120.5C 56.3505,119.448 56.5172,118.448 57,117.5C 57.3333,117.833 57.6667,118.167 58,118.5C 58.1753,123.019 58.6753,127.353 59.5,131.5C 60.4731,133.948 60.8064,136.615 60.5,139.5C 59.3995,137.723 58.5662,135.723 58,133.5C 56.5557,135.155 54.7224,135.822 52.5,135.5C 52.2964,138.545 52.2964,141.379 52.5,144C 51.9056,144.464 51.2389,144.631 50.5,144.5C 47.6649,145.773 44.8315,146.773 42,147.5C 40.3893,142.633 38.556,137.966 36.5,133.5C 36.1746,125.648 36.508,117.982 37.5,110.5 Z"/>
<path fill="#675112" d="M 133.5,136.5 C 134.514,135.326 135.847,134.66 137.5,134.5C 136.697,135.423 136.53,136.423 137,137.5C 139.389,135.05 142.222,133.883 145.5,134C 142.017,140.121 138.35,146.121 134.5,152C 133.551,152.617 132.718,152.451 132,151.5C 131.654,149.782 131.154,148.115 130.5,146.5C 131.641,145.575 131.641,144.741 130.5,144C 132.125,143.147 132.458,142.147 131.5,141C 133.061,140.059 134.395,138.892 135.5,137.5C 135.043,136.702 134.376,136.369 133.5,136.5 Z"/>
<path fill="#c5b864" d="M 19.5,93.5 C 18.1679,100.164 16.8346,106.831 15.5,113.5C 14.3493,118.65 14.1826,123.984 15,129.5C 16.5827,129.507 18.2494,129.174 20,128.5C 25.7471,128.048 29.5804,130.381 31.5,135.5C 34.2763,144.268 36.6096,153.268 38.5,162.5C 35.704,158.409 33.704,153.909 32.5,149C 25.8854,148.42 19.552,147.92 13.5,147.5C 13.0371,144.518 12.7038,141.518 12.5,138.5C 12.5,134.5 12.5,130.5 12.5,126.5C 12.3946,122.452 12.7279,118.452 13.5,114.5C 14.3157,107.065 16.3157,100.065 19.5,93.5 Z"/>
<path fill="#4f3b0f" d="M 156.5,130.5 C 157.167,130.5 157.5,130.833 157.5,131.5C 156.427,132.251 156.26,133.251 157,134.5C 159.628,138.849 162.128,143.183 164.5,147.5C 166.65,150.472 167.65,153.805 167.5,157.5C 167.5,158.167 167.5,158.833 167.5,159.5C 166.833,160.167 166.167,160.833 165.5,161.5C 163.573,167.029 162.573,172.862 162.5,179C 162.667,181.167 162.833,183.333 163,185.5C 164.094,187.078 164.928,188.745 165.5,190.5C 162.097,188.1 159.43,185.1 157.5,181.5C 154.737,165.62 153.904,149.62 155,133.5C 155.232,132.263 155.732,131.263 156.5,130.5 Z"/>
<path fill="#5f5526" d="M 195.5,135.5 C 202.118,139.897 209.452,141.564 217.5,140.5C 212.488,141.729 207.321,141.729 202,140.5C 199.259,139.402 197.092,137.735 195.5,135.5 Z"/>
<path fill="#c4bb73" d="M 152.5,115.5 C 152.215,117.288 152.548,118.955 153.5,120.5C 154.183,120.137 154.85,119.804 155.5,119.5C 155.297,121.044 154.63,122.378 153.5,123.5C 153.624,124.107 153.957,124.44 154.5,124.5C 154.389,125.117 154.056,125.617 153.5,126C 158.364,127.944 162.698,130.61 166.5,134C 174.337,137.672 182.003,141.672 189.5,146C 188.584,146.278 187.918,146.778 187.5,147.5C 177.183,142.676 167.183,137.342 157.5,131.5C 157.5,130.833 157.167,130.5 156.5,130.5C 155.713,128.896 154.38,128.229 152.5,128.5C 152.5,131.5 152.5,134.5 152.5,137.5C 152.167,137.5 151.833,137.5 151.5,137.5C 151.665,134.482 151.498,131.482 151,128.5C 150.722,129.416 150.222,130.082 149.5,130.5C 149.672,129.508 149.338,128.842 148.5,128.5C 148.5,127.833 148.833,127.5 149.5,127.5C 150.117,127.389 150.617,127.056 151,126.5C 151.177,122.644 151.677,118.977 152.5,115.5 Z"/>
<path fill="#5e5012" d="M 12.5,138.5 C 12.7038,141.518 13.0371,144.518 13.5,147.5C 12.5139,151.97 12.1805,156.637 12.5,161.5C 12.1667,161.5 11.8333,161.5 11.5,161.5C 11.1746,153.648 11.508,145.982 12.5,138.5 Z"/>
<path fill="#96802d" d="M 60.5,139.5 C 61.9416,145.155 63.275,150.822 64.5,156.5C 65.336,161.169 65.836,165.836 66,170.5C 65.586,170.957 65.086,171.291 64.5,171.5C 61.9786,168.907 59.4786,168.907 57,171.5C 56.0774,168.878 54.9107,166.378 53.5,164C 55.4574,161.879 55.9574,159.379 55,156.5C 53.6361,157.258 52.4695,156.758 51.5,155C 52.448,154.517 53.448,154.351 54.5,154.5C 54.5589,151.951 53.5589,149.951 51.5,148.5C 52.376,147.749 53.376,147.249 54.5,147C 52.6803,146.8 51.347,145.966 50.5,144.5C 51.2389,144.631 51.9056,144.464 52.5,144C 52.2964,141.379 52.2964,138.545 52.5,135.5C 54.7224,135.822 56.5557,135.155 58,133.5C 58.5662,135.723 59.3995,137.723 60.5,139.5 Z"/>
<path fill="#b9aa57" d="M 148.5,128.5 C 149.338,128.842 149.672,129.508 149.5,130.5C 149.231,143.532 149.731,156.532 151,169.5C 151.5,158.839 151.667,148.172 151.5,137.5C 151.833,137.5 152.167,137.5 152.5,137.5C 152.333,149.171 152.5,160.838 153,172.5C 154.144,175.08 154.978,177.747 155.5,180.5C 154.167,179.833 153.167,178.833 152.5,177.5C 152.435,175.304 151.768,173.304 150.5,171.5C 147.273,171.345 143.94,171.178 140.5,171C 139.376,170.751 138.376,170.251 137.5,169.5C 136.546,163.896 136.212,158.229 136.5,152.5C 141.052,145.613 144.718,138.28 147.5,130.5C 146.5,130.5 145.5,130.5 144.5,130.5C 145.514,129.326 146.847,128.66 148.5,128.5 Z"/>
<path fill="#c3bb73" d="M 232.5,142.5 C 223.048,145.984 213.382,148.651 203.5,150.5C 200.059,150.699 196.726,150.199 193.5,149C 206.225,147.983 218.558,145.483 230.5,141.5C 231.416,141.543 232.083,141.876 232.5,142.5 Z"/>
<path fill="#dad693" d="M 151.5,137.5 C 151.667,148.172 151.5,158.839 151,169.5C 149.731,156.532 149.231,143.532 149.5,130.5C 150.222,130.082 150.722,129.416 151,128.5C 151.498,131.482 151.665,134.482 151.5,137.5 Z"/>
<path fill="#675018" d="M 156.5,130.5 C 155.732,131.263 155.232,132.263 155,133.5C 153.904,149.62 154.737,165.62 157.5,181.5C 156.833,181.167 156.167,180.833 155.5,180.5C 154.978,177.747 154.144,175.08 153,172.5C 152.5,160.838 152.333,149.171 152.5,137.5C 152.5,134.5 152.5,131.5 152.5,128.5C 154.38,128.229 155.713,128.896 156.5,130.5 Z"/>
<path fill="#362909" d="M 131.5,155.5 C 125.793,157.514 120.126,159.847 114.5,162.5C 113.448,162.351 112.448,162.517 111.5,163C 108.984,165.683 106.317,168.183 103.5,170.5C 102.287,173.986 100.954,177.32 99.5,180.5C 100.366,174.705 101.699,169.038 103.5,163.5C 104.305,161.085 105.305,158.751 106.5,156.5C 107.488,155.205 108.488,153.872 109.5,152.5C 111.573,150.42 113.907,148.754 116.5,147.5C 119.553,147.319 122.553,147.152 125.5,147C 124.185,148.395 124.519,149.395 126.5,150C 125.549,150.718 125.383,151.551 126,152.5C 127.506,154.174 129.339,155.174 131.5,155.5 Z"/>
<path fill="#524111" d="M 144.5,130.5 C 145.5,130.5 146.5,130.5 147.5,130.5C 144.718,138.28 141.052,145.613 136.5,152.5C 135.566,153.568 135.232,154.901 135.5,156.5C 134.292,155.766 132.959,155.433 131.5,155.5C 129.339,155.174 127.506,154.174 126,152.5C 125.383,151.551 125.549,150.718 126.5,150C 124.519,149.395 124.185,148.395 125.5,147C 122.553,147.152 119.553,147.319 116.5,147.5C 121.354,142.659 127.02,138.993 133.5,136.5C 134.376,136.369 135.043,136.702 135.5,137.5C 134.395,138.892 133.061,140.059 131.5,141C 132.458,142.147 132.125,143.147 130.5,144C 131.641,144.741 131.641,145.575 130.5,146.5C 131.154,148.115 131.654,149.782 132,151.5C 132.718,152.451 133.551,152.617 134.5,152C 138.35,146.121 142.017,140.121 145.5,134C 142.222,133.883 139.389,135.05 137,137.5C 136.53,136.423 136.697,135.423 137.5,134.5C 139.027,134.573 140.027,133.906 140.5,132.5C 142.153,132.34 143.486,131.674 144.5,130.5 Z"/>
<path fill="#aea14f" d="M 13.5,147.5 C 19.552,147.92 25.8854,148.42 32.5,149C 33.704,153.909 35.704,158.409 38.5,162.5C 39.6737,163.514 40.3404,164.847 40.5,166.5C 42.3843,169.603 43.7176,172.937 44.5,176.5C 41.0976,171.904 38.2642,166.904 36,161.5C 35.6667,161.833 35.3333,162.167 35,162.5C 28.9753,160.67 23.1419,159.336 17.5,158.5C 17.5912,156.302 16.9245,155.969 15.5,157.5C 14.2132,154.302 13.5465,150.969 13.5,147.5 Z"/>
<path fill="#362807" d="M 157.5,131.5 C 167.183,137.342 177.183,142.676 187.5,147.5C 190.079,149.025 192.746,150.359 195.5,151.5C 194.402,152.601 194.235,153.934 195,155.5C 195.667,156.833 196.333,156.833 197,155.5C 197.857,160.481 195.69,162.814 190.5,162.5C 188.833,162.333 187.167,162.167 185.5,162C 184.874,161.25 184.374,160.416 184,159.5C 183.086,160.654 182.253,160.487 181.5,159C 182.167,158 182.833,157 183.5,156C 183.377,153.789 183.377,151.622 183.5,149.5C 182.167,150.833 180.833,152.167 179.5,153.5C 178.5,153 177.5,152.5 176.5,152C 177.696,151.346 177.696,150.846 176.5,150.5C 175.808,151.025 175.308,151.692 175,152.5C 170.75,151.383 167.417,149.05 165,145.5C 164.536,146.094 164.369,146.761 164.5,147.5C 162.128,143.183 159.628,138.849 157,134.5C 156.26,133.251 156.427,132.251 157.5,131.5 Z"/>
<path fill="#030200" d="M 13.5,147.5 C 13.5465,150.969 14.2132,154.302 15.5,157.5C 17.1067,164.946 19.7734,171.946 23.5,178.5C 25.4144,183.335 28.0811,187.669 31.5,191.5C 34.1181,195.291 36.9514,198.957 40,202.5C 42.4356,205.447 45.2689,207.78 48.5,209.5C 50.1801,211.867 52.1801,214.034 54.5,216C 61.9742,219.987 69.3076,224.154 76.5,228.5C 89.4268,235.748 103.427,239.915 118.5,241C 119.416,241.278 120.082,241.778 120.5,242.5C 84.5,242.5 48.5,242.5 12.5,242.5C 11.6563,230.187 11.3229,217.854 11.5,205.5C 12.1187,190.841 12.4521,176.175 12.5,161.5C 12.1805,156.637 12.5139,151.97 13.5,147.5 Z"/>
<path fill="#312306" d="M 238.5,139.5 C 239.043,139.56 239.376,139.893 239.5,140.5C 234.316,145.518 228.983,150.351 223.5,155C 211.613,162.706 198.613,165.373 184.5,163C 179.409,160.886 174.575,158.386 170,155.5C 168.989,156.056 168.156,156.722 167.5,157.5C 167.65,153.805 166.65,150.472 164.5,147.5C 164.369,146.761 164.536,146.094 165,145.5C 167.417,149.05 170.75,151.383 175,152.5C 175.308,151.692 175.808,151.025 176.5,150.5C 177.696,150.846 177.696,151.346 176.5,152C 177.5,152.5 178.5,153 179.5,153.5C 180.833,152.167 182.167,150.833 183.5,149.5C 183.377,151.622 183.377,153.789 183.5,156C 182.833,157 182.167,158 181.5,159C 182.253,160.487 183.086,160.654 184,159.5C 184.374,160.416 184.874,161.25 185.5,162C 187.167,162.167 188.833,162.333 190.5,162.5C 195.69,162.814 197.857,160.481 197,155.5C 196.333,156.833 195.667,156.833 195,155.5C 194.235,153.934 194.402,152.601 195.5,151.5C 198.385,151.806 201.052,151.473 203.5,150.5C 213.382,148.651 223.048,145.984 232.5,142.5C 234.75,141.87 236.75,140.87 238.5,139.5 Z"/>
<path fill="#c7b96c" d="M 99.5,141.5 C 99.6455,147.61 101.979,152.61 106.5,156.5C 105.305,158.751 104.305,161.085 103.5,163.5C 101.952,163.179 101.285,162.179 101.5,160.5C 97.4137,161.173 94.5804,163.506 93,167.5C 92.6667,169.167 92.3333,170.833 92,172.5C 91.5017,169.183 91.335,165.85 91.5,162.5C 92.221,154.658 94.8876,147.658 99.5,141.5 Z"/>
<path fill="#99883c" d="M 17.5,158.5 C 23.1419,159.336 28.9753,160.67 35,162.5C 35.3333,162.167 35.6667,161.833 36,161.5C 38.2642,166.904 41.0976,171.904 44.5,176.5C 46.588,178.336 47.9213,180.669 48.5,183.5C 46.3056,181.165 43.639,179.332 40.5,178C 35.6454,176.8 30.9788,175.133 26.5,173C 26.9574,172.586 27.2907,172.086 27.5,171.5C 25.0967,168.592 22.2633,166.259 19,164.5C 18.4954,162.482 17.9954,160.482 17.5,158.5 Z"/>
<path fill="#b3a251" d="M 103.5,163.5 C 101.699,169.038 100.366,174.705 99.5,180.5C 98.2517,174.236 96.585,174.57 94.5,181.5C 93.8165,181.137 93.1499,180.804 92.5,180.5C 90.9348,174.62 90.2681,168.62 90.5,162.5C 90.8333,162.5 91.1667,162.5 91.5,162.5C 91.335,165.85 91.5017,169.183 92,172.5C 92.3333,170.833 92.6667,169.167 93,167.5C 94.5804,163.506 97.4137,161.173 101.5,160.5C 101.285,162.179 101.952,163.179 103.5,163.5 Z"/>
<path fill="#1b1404" d="M 167.5,159.5 C 166.475,167.139 166.309,174.805 167,182.5C 170.113,187.729 172.947,193.062 175.5,198.5C 171.06,194.969 167.56,190.636 165,185.5C 164.442,177.485 164.609,169.485 165.5,161.5C 166.167,160.833 166.833,160.167 167.5,159.5 Z"/>
<path fill="#978539" d="M 136.5,152.5 C 136.212,158.229 136.546,163.896 137.5,169.5C 138.376,170.251 139.376,170.751 140.5,171C 143.94,171.178 147.273,171.345 150.5,171.5C 151.768,173.304 152.435,175.304 152.5,177.5C 147.271,177.985 142.271,177.318 137.5,175.5C 135.748,169.336 135.082,163.003 135.5,156.5C 135.232,154.901 135.566,153.568 136.5,152.5 Z"/>
<path fill="#7b6212" d="M 6.5,158.5 C 7.52495,161.974 8.19162,165.64 8.5,169.5C 9.5,169.5 10.5,169.5 11.5,169.5C 11.6658,174.179 11.4992,178.845 11,183.5C 10.1072,184.711 9.2739,184.711 8.5,183.5C 7.91057,180.36 7.2439,177.36 6.5,174.5C 6.5,169.167 6.5,163.833 6.5,158.5 Z"/>
<path fill="#99893e" d="M 99.5,180.5 C 98.3187,184.743 97.652,189.076 97.5,193.5C 97.44,194.043 97.1067,194.376 96.5,194.5C 94.2418,190.14 92.9085,185.473 92.5,180.5C 93.1499,180.804 93.8165,181.137 94.5,181.5C 96.585,174.57 98.2517,174.236 99.5,180.5 Z"/>
<path fill="#756523" d="M 137.5,175.5 C 142.271,177.318 147.271,177.985 152.5,177.5C 153.167,178.833 154.167,179.833 155.5,180.5C 156.167,180.833 156.833,181.167 157.5,181.5C 159.43,185.1 162.097,188.1 165.5,190.5C 168.231,194.234 171.564,197.234 175.5,199.5C 176.96,201.463 178.627,203.296 180.5,205C 170.896,198.58 162.229,190.747 154.5,181.5C 150.236,181.231 145.902,181.064 141.5,181C 140.922,179.583 139.922,178.75 138.5,178.5C 137.89,177.609 137.557,176.609 137.5,175.5 Z"/>
<path fill="#3b2c0c" d="M 165.5,161.5 C 164.609,169.485 164.442,177.485 165,185.5C 167.56,190.636 171.06,194.969 175.5,198.5C 175.5,198.833 175.5,199.167 175.5,199.5C 171.564,197.234 168.231,194.234 165.5,190.5C 164.928,188.745 164.094,187.078 163,185.5C 162.833,183.333 162.667,181.167 162.5,179C 162.573,172.862 163.573,167.029 165.5,161.5 Z"/>
<path fill="#8f7d36" d="M 36.5,133.5 C 38.556,137.966 40.3893,142.633 42,147.5C 44.8315,146.773 47.6649,145.773 50.5,144.5C 51.347,145.966 52.6803,146.8 54.5,147C 53.376,147.249 52.376,147.749 51.5,148.5C 53.5589,149.951 54.5589,151.951 54.5,154.5C 53.448,154.351 52.448,154.517 51.5,155C 52.4695,156.758 53.6361,157.258 55,156.5C 55.9574,159.379 55.4574,161.879 53.5,164C 54.9107,166.378 56.0774,168.878 57,171.5C 59.4786,168.907 61.9786,168.907 64.5,171.5C 65.086,171.291 65.586,170.957 66,170.5C 65.836,165.836 65.336,161.169 64.5,156.5C 66.2043,159.939 67.5376,163.605 68.5,167.5C 68.0211,171.021 68.0211,174.521 68.5,178C 69.5955,179.675 71.0955,180.842 73,181.5C 73.4243,183.515 74.2576,185.349 75.5,187C 75.3552,187.772 75.0219,188.439 74.5,189C 75.8491,189.772 76.6824,190.939 77,192.5C 77.6667,193.833 78.3333,193.833 79,192.5C 79.3333,194.167 79.6667,195.833 80,197.5C 80.6543,196.304 81.1543,196.304 81.5,197.5C 80.9747,198.192 80.3081,198.692 79.5,199C 80.7659,199.309 81.9326,199.809 83,200.5C 86.9965,206.157 91.3298,211.491 96,216.5C 97,215.833 98,215.167 99,214.5C 100.559,216.217 101.392,218.217 101.5,220.5C 104.868,222.245 108.368,223.911 112,225.5C 114.021,224.764 115.521,225.597 116.5,228C 118.112,228.72 119.612,228.554 121,227.5C 123.496,228.931 125.996,229.265 128.5,228.5C 134.013,230.403 139.679,231.403 145.5,231.5C 149.04,231.753 152.373,232.419 155.5,233.5C 145.569,234.8 135.902,235.467 126.5,235.5C 125.209,235.737 124.209,235.404 123.5,234.5C 124.239,234.631 124.906,234.464 125.5,234C 82.4174,224.081 53.7507,198.247 39.5,156.5C 39.5,156.167 39.5,155.833 39.5,155.5C 38.24,148.201 37.24,140.867 36.5,133.5 Z"/>
<path fill="#82712c" d="M 17.5,158.5 C 17.9954,160.482 18.4954,162.482 19,164.5C 22.2633,166.259 25.0967,168.592 27.5,171.5C 27.2907,172.086 26.9574,172.586 26.5,173C 30.9788,175.133 35.6454,176.8 40.5,178C 43.639,179.332 46.3056,181.165 48.5,183.5C 52.4884,188.795 56.4884,194.128 60.5,199.5C 57.8111,197.657 54.9777,195.99 52,194.5C 51.6667,194.833 51.3333,195.167 51,195.5C 46.8294,193.221 42.3294,191.721 37.5,191C 32.0637,187.547 27.397,183.38 23.5,178.5C 19.7734,171.946 17.1067,164.946 15.5,157.5C 16.9245,155.969 17.5912,156.302 17.5,158.5 Z"/>
<path fill="#221906" d="M 114.5,162.5 C 104.532,169.831 99.365,179.831 99,192.5C 98.6174,193.056 98.1174,193.389 97.5,193.5C 97.652,189.076 98.3187,184.743 99.5,180.5C 100.954,177.32 102.287,173.986 103.5,170.5C 106.317,168.183 108.984,165.683 111.5,163C 112.448,162.517 113.448,162.351 114.5,162.5 Z"/>
<path fill="#4f3c0b" d="M 138.5,178.5 C 139.922,178.75 140.922,179.583 141.5,181C 145.902,181.064 150.236,181.231 154.5,181.5C 162.229,190.747 170.896,198.58 180.5,205C 178.627,203.296 176.96,201.463 175.5,199.5C 179.123,201.123 181.79,203.79 183.5,207.5C 162.852,206.672 147.852,197.005 138.5,178.5 Z"/>
<path fill="#695721" d="M 243.5,165.5 C 244.751,173.012 245.751,180.678 246.5,188.5C 246.485,196.988 246.485,205.488 246.5,214C 245.815,218.697 244.815,223.197 243.5,227.5C 243.5,206.833 243.5,186.167 243.5,165.5 Z"/>
<path fill="#c1b86b" d="M 39.5,156.5 C 53.7507,198.247 82.4174,224.081 125.5,234C 124.906,234.464 124.239,234.631 123.5,234.5C 117.732,233.577 112.065,232.244 106.5,230.5C 90.5646,224.531 76.5646,215.531 64.5,203.5C 63.5,201.833 62.1667,200.5 60.5,199.5C 56.4884,194.128 52.4884,188.795 48.5,183.5C 47.9213,180.669 46.588,178.336 44.5,176.5C 43.7176,172.937 42.3843,169.603 40.5,166.5C 41.1239,166.083 41.4573,165.416 41.5,164.5C 40.238,161.978 39.5713,159.311 39.5,156.5 Z"/>
<path fill="#7b6a2a" d="M 68.5,167.5 C 82.6474,202.644 108.314,223.977 145.5,231.5C 139.679,231.403 134.013,230.403 128.5,228.5C 125.996,229.265 123.496,228.931 121,227.5C 119.612,228.554 118.112,228.72 116.5,228C 115.521,225.597 114.021,224.764 112,225.5C 108.368,223.911 104.868,222.245 101.5,220.5C 101.392,218.217 100.559,216.217 99,214.5C 98,215.167 97,215.833 96,216.5C 91.3298,211.491 86.9965,206.157 83,200.5C 81.9326,199.809 80.7659,199.309 79.5,199C 80.3081,198.692 80.9747,198.192 81.5,197.5C 81.1543,196.304 80.6543,196.304 80,197.5C 79.6667,195.833 79.3333,194.167 79,192.5C 78.3333,193.833 77.6667,193.833 77,192.5C 76.6824,190.939 75.8491,189.772 74.5,189C 75.0219,188.439 75.3552,187.772 75.5,187C 74.2576,185.349 73.4243,183.515 73,181.5C 71.0955,180.842 69.5955,179.675 68.5,178C 68.0211,174.521 68.0211,171.021 68.5,167.5 Z"/>
<path fill="#68541a" d="M 23.5,178.5 C 27.397,183.38 32.0637,187.547 37.5,191C 42.3294,191.721 46.8294,193.221 51,195.5C 51.3333,195.167 51.6667,194.833 52,194.5C 54.9777,195.99 57.8111,197.657 60.5,199.5C 62.1667,200.5 63.5,201.833 64.5,203.5C 62.3193,203.716 60.6526,202.883 59.5,201C 50.9174,200.689 42.9174,198.523 35.5,194.5C 34.7377,192.738 33.4044,191.738 31.5,191.5C 28.0811,187.669 25.4144,183.335 23.5,178.5 Z"/>
<path fill="#7d6726" d="M 243.5,152.5 C 244.117,152.611 244.617,152.944 245,153.5C 245.406,156.742 246.239,159.742 247.5,162.5C 247.667,189.169 247.5,215.835 247,242.5C 246.617,243.056 246.117,243.389 245.5,243.5C 244.833,243.167 244.167,242.833 243.5,242.5C 243.5,237.5 243.5,232.5 243.5,227.5C 244.815,223.197 245.815,218.697 246.5,214C 246.485,205.488 246.485,196.988 246.5,188.5C 245.751,180.678 244.751,173.012 243.5,165.5C 243.5,161.167 243.5,156.833 243.5,152.5 Z"/>
<path fill="#54400d" d="M 35.5,194.5 C 42.9174,198.523 50.9174,200.689 59.5,201C 60.6526,202.883 62.3193,203.716 64.5,203.5C 76.5646,215.531 90.5646,224.531 106.5,230.5C 101.59,229.757 96.9236,228.257 92.5,226C 79.2863,218.108 65.2863,212.108 50.5,208C 45.6807,203.35 40.6807,198.85 35.5,194.5 Z"/>
<path fill="#443209" d="M 31.5,191.5 C 33.4044,191.738 34.7377,192.738 35.5,194.5C 40.6807,198.85 45.6807,203.35 50.5,208C 65.2863,212.108 79.2863,218.108 92.5,226C 96.9236,228.257 101.59,229.757 106.5,230.5C 112.065,232.244 117.732,233.577 123.5,234.5C 124.209,235.404 125.209,235.737 126.5,235.5C 136.149,236.79 145.816,237.79 155.5,238.5C 149.413,240.049 143.08,240.716 136.5,240.5C 131.654,240.499 126.988,240.166 122.5,239.5C 118.214,236.036 113.214,234.203 107.5,234C 100.6,231.049 93.6005,228.383 86.5,226C 83.9018,223.041 80.5684,221.707 76.5,222C 74.292,220.398 71.9587,219.064 69.5,218C 64.0577,216.473 58.7244,214.64 53.5,212.5C 52.1007,211.11 50.4341,210.11 48.5,209.5C 45.2689,207.78 42.4356,205.447 40,202.5C 36.9514,198.957 34.1181,195.291 31.5,191.5 Z"/>
<path fill="#4b3a0f" d="M 11.5,161.5 C 11.8333,161.5 12.1667,161.5 12.5,161.5C 12.4521,176.175 12.1187,190.841 11.5,205.5C 8.23653,211.074 6.9032,217.241 7.5,224C 7.66667,227.167 7.83333,230.333 8,233.5C 10.5277,236.098 12.0277,239.098 12.5,242.5C 48.5,242.5 84.5,242.5 120.5,242.5C 132.167,242.5 143.833,242.5 155.5,242.5C 184.5,242.5 213.5,242.5 242.5,242.5C 242.5,242.833 242.5,243.167 242.5,243.5C 165.166,243.333 87.8326,243.5 10.5,244C 9.2899,245.039 8.2899,246.206 7.5,247.5C 7.16667,247.5 6.83333,247.5 6.5,247.5C 6.5,223.167 6.5,198.833 6.5,174.5C 7.2439,177.36 7.91057,180.36 8.5,183.5C 9.2739,184.711 10.1072,184.711 11,183.5C 11.4992,178.845 11.6658,174.179 11.5,169.5C 11.5,166.833 11.5,164.167 11.5,161.5 Z"/>
<path fill="#3a2a07" d="M 11.5,205.5 C 11.3229,217.854 11.6563,230.187 12.5,242.5C 12.0277,239.098 10.5277,236.098 8,233.5C 7.83333,230.333 7.66667,227.167 7.5,224C 6.9032,217.241 8.23653,211.074 11.5,205.5 Z"/>
<path fill="#312305" d="M 53.5,212.5 C 58.7244,214.64 64.0577,216.473 69.5,218C 71.9587,219.064 74.292,220.398 76.5,222C 80.5684,221.707 83.9018,223.041 86.5,226C 93.6005,228.383 100.6,231.049 107.5,234C 113.214,234.203 118.214,236.036 122.5,239.5C 112.564,237.368 102.564,235.535 92.5,234C 88.6593,232.31 84.9926,230.477 81.5,228.5C 81.5299,227.503 81.0299,226.836 80,226.5C 74.7827,225.145 70.2827,222.645 66.5,219C 61.0793,218.752 56.746,216.585 53.5,212.5 Z"/>
<path fill="#241904" d="M 48.5,209.5 C 50.4341,210.11 52.1007,211.11 53.5,212.5C 56.746,216.585 61.0793,218.752 66.5,219C 70.2827,222.645 74.7827,225.145 80,226.5C 81.0299,226.836 81.5299,227.503 81.5,228.5C 79.8333,228.5 78.1667,228.5 76.5,228.5C 69.3076,224.154 61.9742,219.987 54.5,216C 52.1801,214.034 50.1801,211.867 48.5,209.5 Z"/>
<path fill="#9e934e" d="M 155.5,233.5 C 161.492,233.914 167.159,235.414 172.5,238C 171.552,238.483 170.552,238.649 169.5,238.5C 164.833,238.5 160.167,238.5 155.5,238.5C 145.816,237.79 136.149,236.79 126.5,235.5C 135.902,235.467 145.569,234.8 155.5,233.5 Z"/>
<path fill="#170f03" d="M 76.5,228.5 C 78.1667,228.5 79.8333,228.5 81.5,228.5C 84.9926,230.477 88.6593,232.31 92.5,234C 102.564,235.535 112.564,237.368 122.5,239.5C 126.988,240.166 131.654,240.499 136.5,240.5C 143.08,240.716 149.413,240.049 155.5,238.5C 160.167,238.5 164.833,238.5 169.5,238.5C 164.863,239.925 160.196,241.258 155.5,242.5C 143.833,242.5 132.167,242.5 120.5,242.5C 120.082,241.778 119.416,241.278 118.5,241C 103.427,239.915 89.4268,235.748 76.5,228.5 Z"/>
<path fill="#9f9047" d="M 242.5,243.5 C 243.5,244.833 244.5,246.167 245.5,247.5C 166.167,247.5 86.8333,247.5 7.5,247.5C 8.2899,246.206 9.2899,245.039 10.5,244C 87.8326,243.5 165.166,243.333 242.5,243.5 Z"/>
<path fill="#b0a35a" d="M 6.5,247.5 C 6.83333,247.5 7.16667,247.5 7.5,247.5C 86.8333,247.5 166.167,247.5 245.5,247.5C 166.736,248.169 87.4024,248.836 7.5,249.5C 6.5,249.5 5.5,249.5 4.5,249.5C 4.5,248.833 4.83333,248.5 5.5,248.5C 6.16667,248.5 6.5,248.167 6.5,247.5 Z"/>
<path fill="#190f04" d="M 4.5,249.5 C 5.5,249.5 6.5,249.5 7.5,249.5C 87.8333,249.5 168.167,249.5 248.5,249.5C 250.514,249.392 252.18,250.058 253.5,251.5C 253.5,251.833 253.5,252.167 253.5,252.5C 253.409,254.698 254.075,255.031 255.5,253.5C 255.5,254.167 255.5,254.833 255.5,255.5C 170.167,255.5 84.8333,255.5 -0.5,255.5C -0.5,254.833 -0.5,254.167 -0.5,253.5C -0.166667,253.5 0.166667,253.5 0.5,253.5C 2.16667,252.5 3.5,251.167 4.5,249.5 Z"/>
</svg>
