<?xml version="1.0" encoding="UTF-8"?>
<svg xmlns="http://www.w3.org/2000/svg" version="1.1" width="180px" height="180px" style="shape-rendering:geometricPrecision; text-rendering:geometricPrecision; image-rendering:optimizeQuality; fill-rule:evenodd; clip-rule:evenodd" xmlns:xlink="http://www.w3.org/1999/xlink">
<path fill="#4c423f" d="M 109.5,20.5 C 109.215,24.0379 110.882,25.8712 114.5,26C 113.122,27.3342 111.789,27.5009 110.5,26.5C 109.24,24.6329 107.573,23.2995 105.5,22.5C 100.746,21.4172 100.579,20.0839 105,18.5C 106.3,19.7073 107.8,20.3739 109.5,20.5 Z"/>
<path style="opacity:0.028" fill="#050404" d="M 149.5,64.5 C 147.778,60.6979 146.278,56.6979 145,52.5C 142.412,49.8001 139.579,47.4668 136.5,45.5C 136.047,44.5416 135.381,43.7083 134.5,43C 140.918,41.2541 140.585,39.7541 133.5,38.5C 130.728,33.1082 126.394,29.6082 120.5,28C 121.833,27.3333 121.833,26.6667 120.5,26C 118.807,25.1534 117.14,24.3201 115.5,23.5C 113.483,22.4706 111.483,21.4706 109.5,20.5C 107.8,20.3739 106.3,19.7073 105,18.5C 100.579,20.0839 100.746,21.4172 105.5,22.5C 105.5,23.5 105.5,24.5 105.5,25.5C 105.167,25.5 104.833,25.5 104.5,25.5C 99.3217,22.3197 99.3217,19.6531 104.5,17.5C 110.488,18.9923 116.155,21.3257 121.5,24.5C 128.235,29.9123 134.569,35.5789 140.5,41.5C 140.471,43.0293 139.804,44.196 138.5,45C 145.888,49.2633 149.554,55.7633 149.5,64.5 Z"/>
<path style="opacity:0.033" fill="#040303" d="M 92.5,29.5 C 89.6109,26.7442 87.4442,23.4109 86,19.5C 84.9593,17.6885 83.7927,17.3552 82.5,18.5C 80.5,19.8333 78.8333,21.5 77.5,23.5C 74.5296,28.7663 71.5296,34.0996 68.5,39.5C 65.5486,41.7317 63.882,44.7317 63.5,48.5C 62.8333,49.8333 62.1667,51.1667 61.5,52.5C 61.5,51.8333 61.5,51.1667 61.5,50.5C 62.3173,47.5214 63.1506,44.5214 64,41.5C 69.2073,34.255 74.0406,26.755 78.5,19C 80.4547,16.9286 82.788,16.2619 85.5,17C 88.2376,20.9788 90.571,25.1454 92.5,29.5 Z"/>
<path fill="#876d5e" d="M 82.5,18.5 C 83.8333,20.8333 83.8333,23.1667 82.5,25.5C 80.5588,25.8693 78.7255,26.536 77,27.5C 76.805,26.1807 76.9717,24.8474 77.5,23.5C 78.8333,21.5 80.5,19.8333 82.5,18.5 Z"/>
<path style="opacity:0.743" fill="#1f1919" d="M 105.5,22.5 C 107.573,23.2995 109.24,24.6329 110.5,26.5C 113.577,29.1539 116.41,32.1539 119,35.5C 119.667,36.1667 119.667,36.8333 119,37.5C 117.989,36.6634 116.822,36.33 115.5,36.5C 111.933,33.0226 108.6,29.3559 105.5,25.5C 105.5,24.5 105.5,23.5 105.5,22.5 Z"/>
<path style="opacity:0.921" fill="#1e1818" d="M 115.5,23.5 C 117.14,24.3201 118.807,25.1534 120.5,26C 121.833,26.6667 121.833,27.3333 120.5,28C 126.394,29.6082 130.728,33.1082 133.5,38.5C 132.233,37.913 131.233,37.913 130.5,38.5C 133.832,41.351 134.332,44.6843 132,48.5C 131.405,47.1011 131.572,45.7678 132.5,44.5C 130.833,43.8333 129.167,43.1667 127.5,42.5C 127.863,41.8165 128.196,41.1499 128.5,40.5C 128.719,39.325 128.386,38.325 127.5,37.5C 125.974,37.0057 124.641,36.339 123.5,35.5C 121.752,34.2106 121.419,32.7106 122.5,31C 120.212,30.0536 118.045,28.8869 116,27.5C 115.51,26.2068 115.343,24.8734 115.5,23.5 Z"/>
<path fill="#766154" d="M 82.5,31.5 C 82.8168,35.7016 82.4834,39.7016 81.5,43.5C 79.9275,42.3127 78.2608,41.3127 76.5,40.5C 79.999,40.741 80.3323,39.9076 77.5,38C 78.7839,37.3162 79.9505,37.4829 81,38.5C 81.4828,37.552 81.6495,36.552 81.5,35.5C 77.2951,35.1087 75.4618,32.7753 76,28.5C 76.5831,30.0016 77.4164,31.3349 78.5,32.5C 79.7362,31.7542 81.0695,31.4208 82.5,31.5 Z"/>
<path style="opacity:0.988" fill="#1f1818" d="M 82.5,18.5 C 83.7927,17.3552 84.9593,17.6885 86,19.5C 87.4442,23.4109 89.6109,26.7442 92.5,29.5C 92.2011,31.604 92.5344,33.604 93.5,35.5C 95.4308,36.6943 96.2641,38.3609 96,40.5C 94.6371,38.2157 93.1371,38.049 91.5,40C 91.6484,43.3433 93.3151,45.3433 96.5,46C 96.2716,46.3988 95.9382,46.5654 95.5,46.5C 93.9334,48.625 92.6001,50.9584 91.5,53.5C 88.8333,54.1667 86.1667,54.8333 83.5,55.5C 84.6697,53.7215 86.3364,52.7215 88.5,52.5C 88.3259,50.139 87.9926,47.8056 87.5,45.5C 87.4208,44.0695 87.7542,42.7362 88.5,41.5C 86.8827,41.3306 85.216,40.9972 83.5,40.5C 84.4266,37.5305 86.4266,35.6972 89.5,35C 87.5116,34.8195 85.5116,34.9862 83.5,35.5C 83.8016,32.9407 83.4682,30.6074 82.5,28.5C 81.375,27.6522 81.375,26.6522 82.5,25.5C 83.8333,23.1667 83.8333,20.8333 82.5,18.5 Z"/>
<path fill="#5d4a3f" d="M 77.5,23.5 C 76.9717,24.8474 76.805,26.1807 77,27.5C 78.7255,26.536 80.5588,25.8693 82.5,25.5C 81.375,26.6522 81.375,27.6522 82.5,28.5C 82.5,29.5 82.5,30.5 82.5,31.5C 81.0695,31.4208 79.7362,31.7542 78.5,32.5C 77.4164,31.3349 76.5831,30.0016 76,28.5C 75.4618,32.7753 77.2951,35.1087 81.5,35.5C 81.6495,36.552 81.4828,37.552 81,38.5C 79.9505,37.4829 78.7839,37.3162 77.5,38C 80.3323,39.9076 79.999,40.741 76.5,40.5C 76.0133,39.5266 75.5133,38.5266 75,37.5C 73.7147,40.8036 71.548,41.4703 68.5,39.5C 71.5296,34.0996 74.5296,28.7663 77.5,23.5 Z"/>
<path style="opacity:0.999" fill="#110d0e" d="M 92.5,29.5 C 98.7619,38.8132 102.762,49.1465 104.5,60.5C 102.362,55.7262 100.528,50.7262 99,45.5C 98.3333,46.8333 97.3333,47.8333 96,48.5C 95.5357,47.9056 95.369,47.2389 95.5,46.5C 95.9382,46.5654 96.2716,46.3988 96.5,46C 93.3151,45.3433 91.6484,43.3433 91.5,40C 93.1371,38.049 94.6371,38.2157 96,40.5C 96.2641,38.3609 95.4308,36.6943 93.5,35.5C 92.5344,33.604 92.2011,31.604 92.5,29.5 Z"/>
<path style="opacity:0.944" fill="#2e2625" d="M 109.5,20.5 C 111.483,21.4706 113.483,22.4706 115.5,23.5C 115.343,24.8734 115.51,26.2068 116,27.5C 118.045,28.8869 120.212,30.0536 122.5,31C 121.419,32.7106 121.752,34.2106 123.5,35.5C 122.325,35.281 121.325,35.6143 120.5,36.5C 121.605,37.8924 122.939,39.059 124.5,40C 123.09,40.3678 122.09,41.2011 121.5,42.5C 122.136,44.78 123.136,46.78 124.5,48.5C 124.179,50.0481 123.179,50.7148 121.5,50.5C 119.542,45.907 117.542,41.2404 115.5,36.5C 116.822,36.33 117.989,36.6634 119,37.5C 119.667,36.8333 119.667,36.1667 119,35.5C 116.41,32.1539 113.577,29.1539 110.5,26.5C 111.789,27.5009 113.122,27.3342 114.5,26C 110.882,25.8712 109.215,24.0379 109.5,20.5 Z"/>
<path style="opacity:0.05" fill="#060504" d="M 104.5,25.5 C 104.833,25.5 105.167,25.5 105.5,25.5C 108.6,29.3559 111.933,33.0226 115.5,36.5C 117.542,41.2404 119.542,45.907 121.5,50.5C 122.267,54.1488 123.6,57.4822 125.5,60.5C 125.5,61.1667 125.5,61.8333 125.5,62.5C 123.837,64.4385 123.171,66.7718 123.5,69.5C 123.259,73.8296 122.926,78.163 122.5,82.5C 120.924,75.2432 121.258,68.0766 123.5,61C 120.735,48.2966 114.735,37.4632 105.5,28.5C 104.873,27.5832 104.539,26.5832 104.5,25.5 Z"/>
<path fill="#3b312f" d="M 123.5,35.5 C 124.641,36.339 125.974,37.0057 127.5,37.5C 128.386,38.325 128.719,39.325 128.5,40.5C 127.351,40.7911 126.684,41.6244 126.5,43C 127.109,45.7085 128.109,48.2085 129.5,50.5C 127.833,49.8333 126.167,49.1667 124.5,48.5C 123.136,46.78 122.136,44.78 121.5,42.5C 122.09,41.2011 123.09,40.3678 124.5,40C 122.939,39.059 121.605,37.8924 120.5,36.5C 121.325,35.6143 122.325,35.281 123.5,35.5 Z"/>
<path fill="#372c29" d="M 82.5,28.5 C 83.4682,30.6074 83.8016,32.9407 83.5,35.5C 85.5116,34.9862 87.5116,34.8195 89.5,35C 86.4266,35.6972 84.4266,37.5305 83.5,40.5C 85.216,40.9972 86.8827,41.3306 88.5,41.5C 87.7542,42.7362 87.4208,44.0695 87.5,45.5C 85.6208,44.6586 83.6208,44.3253 81.5,44.5C 81.5,44.1667 81.5,43.8333 81.5,43.5C 82.4834,39.7016 82.8168,35.7016 82.5,31.5C 82.5,30.5 82.5,29.5 82.5,28.5 Z"/>
<path fill="#6e5647" d="M 76.5,40.5 C 74.1582,40.7748 74.1582,41.6081 76.5,43C 75.062,43.2189 73.7287,43.7189 72.5,44.5C 73.8793,45.8626 73.7126,46.8626 72,47.5C 70.1284,46.9318 68.2951,46.2651 66.5,45.5C 65.8589,46.9935 64.8589,47.9935 63.5,48.5C 63.882,44.7317 65.5486,41.7317 68.5,39.5C 71.548,41.4703 73.7147,40.8036 75,37.5C 75.5133,38.5266 76.0133,39.5266 76.5,40.5 Z"/>
<path fill="#322825" d="M 136.5,45.5 C 139.579,47.4668 142.412,49.8001 145,52.5C 146.278,56.6979 147.778,60.6979 149.5,64.5C 149.5,64.8333 149.5,65.1667 149.5,65.5C 149.585,66.9953 148.919,67.9953 147.5,68.5C 146.68,66.6812 145.68,65.0145 144.5,63.5C 145.974,61.0731 145.807,58.7398 144,56.5C 141.349,54.3501 138.849,52.0168 136.5,49.5C 133.782,52.7611 133.115,56.4278 134.5,60.5C 135.819,62.4684 135.819,64.4684 134.5,66.5C 138.399,67.7878 138.399,70.1211 134.5,73.5C 135.246,74.7362 135.579,76.0695 135.5,77.5C 134.833,76.8333 134.167,76.1667 133.5,75.5C 133.802,72.9407 133.468,70.6074 132.5,68.5C 132.5,67.5 132.5,66.5 132.5,65.5C 132.5,61.5 132.5,57.5 132.5,53.5C 130.567,53.7286 128.9,54.5619 127.5,56C 128.641,58.2237 127.974,59.7237 125.5,60.5C 123.6,57.4822 122.267,54.1488 121.5,50.5C 123.179,50.7148 124.179,50.0481 124.5,48.5C 126.167,49.1667 127.833,49.8333 129.5,50.5C 130.978,50.762 132.311,50.4287 133.5,49.5C 134.521,48.0986 135.521,46.7653 136.5,45.5 Z"/>
<path fill="#2b2322" d="M 133.5,38.5 C 140.585,39.7541 140.918,41.2541 134.5,43C 135.381,43.7083 136.047,44.5416 136.5,45.5C 135.521,46.7653 134.521,48.0986 133.5,49.5C 132.311,50.4287 130.978,50.762 129.5,50.5C 128.109,48.2085 127.109,45.7085 126.5,43C 126.684,41.6244 127.351,40.7911 128.5,40.5C 128.196,41.1499 127.863,41.8165 127.5,42.5C 129.167,43.1667 130.833,43.8333 132.5,44.5C 131.572,45.7678 131.405,47.1011 132,48.5C 134.332,44.6843 133.832,41.351 130.5,38.5C 131.233,37.913 132.233,37.913 133.5,38.5 Z"/>
<path fill="#191313" d="M 81.5,44.5 C 83.6208,44.3253 85.6208,44.6586 87.5,45.5C 87.9926,47.8056 88.3259,50.139 88.5,52.5C 86.3364,52.7215 84.6697,53.7215 83.5,55.5C 82.791,56.404 81.791,56.7373 80.5,56.5C 79.2147,55.2147 77.8814,53.8814 76.5,52.5C 77.1717,50.4705 77.8384,48.4705 78.5,46.5C 79.2905,45.5987 80.2905,44.9321 81.5,44.5 Z"/>
<path fill="#826857" d="M 76.5,40.5 C 78.2608,41.3127 79.9275,42.3127 81.5,43.5C 81.5,43.8333 81.5,44.1667 81.5,44.5C 80.2905,44.9321 79.2905,45.5987 78.5,46.5C 76.9826,46.5106 75.8159,47.1772 75,48.5C 72.7226,52.0804 70.2226,55.4137 67.5,58.5C 64.683,58.1995 64.0163,56.8661 65.5,54.5C 63.9137,52.8273 63.2471,50.8273 63.5,48.5C 64.8589,47.9935 65.8589,46.9935 66.5,45.5C 68.2951,46.2651 70.1284,46.9318 72,47.5C 73.7126,46.8626 73.8793,45.8626 72.5,44.5C 73.7287,43.7189 75.062,43.2189 76.5,43C 74.1582,41.6081 74.1582,40.7748 76.5,40.5 Z"/>
<path style="opacity:0.066" fill="#040303" d="M 61.5,50.5 C 61.5,51.1667 61.5,51.8333 61.5,52.5C 61.1667,53.1667 60.8333,53.8333 60.5,54.5C 57.7637,57.9824 56.097,61.9824 55.5,66.5C 55.5,66.8333 55.5,67.1667 55.5,67.5C 55.1667,67.5 54.8333,67.5 54.5,67.5C 54.3517,62.6812 55.0184,58.0145 56.5,53.5C 56.6641,50.8127 56.4974,48.146 56,45.5C 54.955,46.3734 54.1217,47.3734 53.5,48.5C 52.197,50.1423 50.8637,51.8089 49.5,53.5C 48.5,54.1667 47.5,54.8333 46.5,55.5C 46.5,55.1667 46.5,54.8333 46.5,54.5C 49.252,51.7478 51.5853,48.5812 53.5,45C 55.1341,44.5065 56.8008,44.3398 58.5,44.5C 58.4051,48.2246 58.2384,51.8913 58,55.5C 58.6972,53.4156 59.8639,51.7489 61.5,50.5 Z"/>
<path style="opacity:0.776" fill="#423228" d="M 56.5,53.5 C 55.7777,54.5511 54.7777,55.2178 53.5,55.5C 53.5,54.8333 53.5,54.1667 53.5,53.5C 54.339,52.3588 55.0057,51.0255 55.5,49.5C 55.0431,48.7025 54.3764,48.3691 53.5,48.5C 54.1217,47.3734 54.955,46.3734 56,45.5C 56.4974,48.146 56.6641,50.8127 56.5,53.5 Z"/>
<path fill="#715b4b" d="M 53.5,48.5 C 54.3764,48.3691 55.0431,48.7025 55.5,49.5C 55.0057,51.0255 54.339,52.3588 53.5,53.5C 53.631,52.7611 53.4643,52.0944 53,51.5C 52.2904,52.9733 51.1238,53.6399 49.5,53.5C 50.8637,51.8089 52.197,50.1423 53.5,48.5 Z"/>
<path fill="#181313" d="M 104.5,60.5 C 104.5,62.1667 104.5,63.8333 104.5,65.5C 101.922,64.5873 99.5887,63.254 97.5,61.5C 96.5,61.5 95.5,61.5 94.5,61.5C 94.162,58.9885 94.162,56.6552 94.5,54.5C 93.7666,53.913 92.7666,53.913 91.5,54.5C 91.5,54.1667 91.5,53.8333 91.5,53.5C 92.6001,50.9584 93.9334,48.625 95.5,46.5C 95.369,47.2389 95.5357,47.9056 96,48.5C 97.3333,47.8333 98.3333,46.8333 99,45.5C 100.528,50.7262 102.362,55.7262 104.5,60.5 Z"/>
<path fill="#1a1515" d="M 144.5,63.5 C 143.844,62.7222 143.011,62.0556 142,61.5C 140.97,61.8361 140.47,62.5028 140.5,63.5C 139.596,62.791 139.263,61.791 139.5,60.5C 137.833,60.5 136.167,60.5 134.5,60.5C 133.115,56.4278 133.782,52.7611 136.5,49.5C 138.849,52.0168 141.349,54.3501 144,56.5C 145.807,58.7398 145.974,61.0731 144.5,63.5 Z"/>
<path fill="#6e5748" d="M 63.5,48.5 C 63.2471,50.8273 63.9137,52.8273 65.5,54.5C 64.0163,56.8661 64.683,58.1995 67.5,58.5C 66.8902,59.391 66.5569,60.391 66.5,61.5C 65.5416,61.9528 64.7083,62.6195 64,63.5C 63.8019,65.3817 63.3019,67.0484 62.5,68.5C 62.7148,66.8212 62.0481,65.8212 60.5,65.5C 61.2341,64.2921 61.5674,62.9587 61.5,61.5C 57.5443,60.9473 57.5443,60.1139 61.5,59C 60.6198,57.6439 60.2865,56.1439 60.5,54.5C 60.8333,53.8333 61.1667,53.1667 61.5,52.5C 62.1667,51.1667 62.8333,49.8333 63.5,48.5 Z"/>
<path fill="#513e34" d="M 132.5,65.5 C 129.767,65.297 127.434,64.297 125.5,62.5C 125.5,61.8333 125.5,61.1667 125.5,60.5C 127.974,59.7237 128.641,58.2237 127.5,56C 128.9,54.5619 130.567,53.7286 132.5,53.5C 132.5,57.5 132.5,61.5 132.5,65.5 Z"/>
<path style="opacity:0.996" fill="#8e7562" d="M 53.5,53.5 C 53.5,54.1667 53.5,54.8333 53.5,55.5C 51.058,57.1209 49.7247,59.4542 49.5,62.5C 48.6829,64.9686 48.1829,67.6353 48,70.5C 47.79,68.9419 47.29,67.6085 46.5,66.5C 46.0032,64.2197 45.6699,61.5531 45.5,58.5C 45.5569,57.391 45.8902,56.391 46.5,55.5C 47.5,54.8333 48.5,54.1667 49.5,53.5C 51.1238,53.6399 52.2904,52.9733 53,51.5C 53.4643,52.0944 53.631,52.7611 53.5,53.5 Z"/>
<path fill="#514642" d="M 91.5,53.5 C 91.5,53.8333 91.5,54.1667 91.5,54.5C 91.6107,55.1174 91.944,55.6174 92.5,56C 89.9148,58.2675 86.9148,59.4342 83.5,59.5C 83.7148,61.1788 83.0481,62.1788 81.5,62.5C 81.5674,61.0413 81.2341,59.7079 80.5,58.5C 80.5,58.1667 80.5,57.8333 80.5,57.5C 80.5,57.1667 80.5,56.8333 80.5,56.5C 81.791,56.7373 82.791,56.404 83.5,55.5C 86.1667,54.8333 88.8333,54.1667 91.5,53.5 Z"/>
<path style="opacity:0.042" fill="#030202" d="M 80.5,58.5 C 81.2341,59.7079 81.5674,61.0413 81.5,62.5C 82.7927,64.2959 84.2927,65.9625 86,67.5C 86.546,70.3791 87.3794,73.0458 88.5,75.5C 88.5,75.8333 88.5,76.1667 88.5,76.5C 88.5,77.8333 88.5,79.1667 88.5,80.5C 87.1229,73.7457 84.1229,67.7457 79.5,62.5C 77.6675,63.2485 76.0009,64.2485 74.5,65.5C 72.7258,69.3888 70.7258,73.0554 68.5,76.5C 68.6287,74.7839 68.962,73.1172 69.5,71.5C 71.2258,69.0578 72.7258,66.3911 74,63.5C 76.3279,62.0007 78.4946,60.334 80.5,58.5 Z"/>
<path fill="#241a17" d="M 78.5,46.5 C 77.8384,48.4705 77.1717,50.4705 76.5,52.5C 77.8814,53.8814 79.2147,55.2147 80.5,56.5C 80.5,56.8333 80.5,57.1667 80.5,57.5C 78.9826,57.4894 77.8159,56.8228 77,55.5C 75.0803,57.7259 73.247,60.0592 71.5,62.5C 69.9291,61.6906 68.2624,61.3573 66.5,61.5C 66.5569,60.391 66.8902,59.391 67.5,58.5C 70.2226,55.4137 72.7226,52.0804 75,48.5C 75.8159,47.1772 76.9826,46.5106 78.5,46.5 Z"/>
<path style="opacity:0.979" fill="#1e1615" d="M 134.5,60.5 C 136.167,60.5 137.833,60.5 139.5,60.5C 139.263,61.791 139.596,62.791 140.5,63.5C 141.063,66.2948 142.396,68.6282 144.5,70.5C 143.596,71.209 143.263,72.209 143.5,73.5C 143.881,75.9418 143.214,76.6085 141.5,75.5C 140.614,76.325 140.281,77.325 140.5,78.5C 138.833,79.8333 137.167,79.8333 135.5,78.5C 135.5,78.1667 135.5,77.8333 135.5,77.5C 135.579,76.0695 135.246,74.7362 134.5,73.5C 138.399,70.1211 138.399,67.7878 134.5,66.5C 135.819,64.4684 135.819,62.4684 134.5,60.5 Z"/>
<path style="opacity:0.984" fill="#554338" d="M 60.5,54.5 C 60.2865,56.1439 60.6198,57.6439 61.5,59C 57.5443,60.1139 57.5443,60.9473 61.5,61.5C 61.5674,62.9587 61.2341,64.2921 60.5,65.5C 59.5028,65.4701 58.8361,65.9701 58.5,67C 59.2913,68.101 59.2913,68.9344 58.5,69.5C 57.8589,68.0065 56.8589,67.0065 55.5,66.5C 56.097,61.9824 57.7637,57.9824 60.5,54.5 Z"/>
<path fill="#161211" d="M 80.5,57.5 C 80.5,57.8333 80.5,58.1667 80.5,58.5C 78.4946,60.334 76.3279,62.0007 74,63.5C 72.7258,66.3911 71.2258,69.0578 69.5,71.5C 69.5654,71.0618 69.3988,70.7284 69,70.5C 68.6121,71.428 67.9454,72.0946 67,72.5C 64.8155,72.3023 63.3155,71.3023 62.5,69.5C 62.5,69.1667 62.5,68.8333 62.5,68.5C 63.3019,67.0484 63.8019,65.3817 64,63.5C 64.7083,62.6195 65.5416,61.9528 66.5,61.5C 68.2624,61.3573 69.9291,61.6906 71.5,62.5C 73.247,60.0592 75.0803,57.7259 77,55.5C 77.8159,56.8228 78.9826,57.4894 80.5,57.5 Z"/>
<path fill="#795f4d" d="M 125.5,62.5 C 127.434,64.297 129.767,65.297 132.5,65.5C 132.5,66.5 132.5,67.5 132.5,68.5C 132.657,69.8734 132.49,71.2068 132,72.5C 130.667,70.5 129,68.8333 127,67.5C 126.654,69.2182 126.154,70.8849 125.5,72.5C 125.667,74.8333 125.833,77.1667 126,79.5C 124.638,76.3533 123.805,73.0199 123.5,69.5C 123.171,66.7718 123.837,64.4385 125.5,62.5 Z"/>
<path fill="#4b3e39" d="M 45.5,58.5 C 45.6699,61.5531 46.0032,64.2197 46.5,66.5C 47.3201,70.2221 45.9868,72.5554 42.5,73.5C 42.8511,68.2395 43.8511,63.2395 45.5,58.5 Z"/>
<path fill="#2b1e1a" d="M 56.5,53.5 C 55.0184,58.0145 54.3517,62.6812 54.5,67.5C 54.0046,69.4817 53.5046,71.4817 53,73.5C 52.5831,74.756 51.7498,75.4226 50.5,75.5C 49.564,71.2648 49.2307,66.9315 49.5,62.5C 49.7247,59.4542 51.058,57.1209 53.5,55.5C 54.7777,55.2178 55.7777,54.5511 56.5,53.5 Z"/>
<path fill="#292121" d="M 97.5,61.5 C 96.9759,63.3057 96.3092,64.9724 95.5,66.5C 95.762,65.0222 95.4287,63.6888 94.5,62.5C 92.1742,63.9931 90.1742,65.8265 88.5,68C 88.7591,69.2613 89.4258,70.2613 90.5,71C 88.8934,72.049 88.2267,73.549 88.5,75.5C 87.3794,73.0458 86.546,70.3791 86,67.5C 84.2927,65.9625 82.7927,64.2959 81.5,62.5C 83.0481,62.1788 83.7148,61.1788 83.5,59.5C 86.9148,59.4342 89.9148,58.2675 92.5,56C 91.944,55.6174 91.6107,55.1174 91.5,54.5C 92.7666,53.913 93.7666,53.913 94.5,54.5C 94.162,56.6552 94.162,58.9885 94.5,61.5C 95.5,61.5 96.5,61.5 97.5,61.5 Z"/>
<path fill="#7e6658" d="M 60.5,65.5 C 62.0481,65.8212 62.7148,66.8212 62.5,68.5C 62.5,68.8333 62.5,69.1667 62.5,69.5C 61.6618,69.8417 61.3284,70.5084 61.5,71.5C 59.6213,75.3878 56.9546,78.7211 53.5,81.5C 51.0997,82.9272 50.433,82.4272 51.5,80C 50.3094,79.3021 49.3094,78.4687 48.5,77.5C 48.5,76.1667 49.1667,75.5 50.5,75.5C 53.2052,78.3162 55.2052,77.6495 56.5,73.5C 56.0233,72.5224 55.3567,71.6891 54.5,71C 55.3366,69.9887 55.67,68.8221 55.5,67.5C 55.5,67.1667 55.5,66.8333 55.5,66.5C 56.8589,67.0065 57.8589,68.0065 58.5,69.5C 59.2913,68.9344 59.2913,68.101 58.5,67C 58.8361,65.9701 59.5028,65.4701 60.5,65.5 Z"/>
<path fill="#372e2c" d="M 95.5,66.5 C 96.64,67.8014 97.9733,68.9681 99.5,70C 98.1888,72.2735 98.1888,74.4402 99.5,76.5C 101.55,77.3218 101.217,78.3218 98.5,79.5C 96.2546,81.3614 93.5879,82.3614 90.5,82.5C 89.9518,80.3736 89.2852,78.3736 88.5,76.5C 88.5,76.1667 88.5,75.8333 88.5,75.5C 88.2267,73.549 88.8934,72.049 90.5,71C 89.4258,70.2613 88.7591,69.2613 88.5,68C 90.1742,65.8265 92.1742,63.9931 94.5,62.5C 95.4287,63.6888 95.762,65.0222 95.5,66.5 Z"/>
<path style="opacity:0.944" fill="#1a1515" d="M 97.5,61.5 C 99.5887,63.254 101.922,64.5873 104.5,65.5C 105.167,68.5 105.833,71.5 106.5,74.5C 105.883,74.3893 105.383,74.056 105,73.5C 103.281,74.8688 101.448,75.8688 99.5,76.5C 98.1888,74.4402 98.1888,72.2735 99.5,70C 97.9733,68.9681 96.64,67.8014 95.5,66.5C 96.3092,64.9724 96.9759,63.3057 97.5,61.5 Z"/>
<path fill="#665247" d="M 49.5,62.5 C 49.2307,66.9315 49.564,71.2648 50.5,75.5C 49.1667,75.5 48.5,76.1667 48.5,77.5C 46.5,76.8333 44.5,76.1667 42.5,75.5C 42.5,74.8333 42.5,74.1667 42.5,73.5C 45.9868,72.5554 47.3201,70.2221 46.5,66.5C 47.29,67.6085 47.79,68.9419 48,70.5C 48.1829,67.6353 48.6829,64.9686 49.5,62.5 Z"/>
<path fill="#503d32" d="M 54.5,67.5 C 54.8333,67.5 55.1667,67.5 55.5,67.5C 55.67,68.8221 55.3366,69.9887 54.5,71C 55.3567,71.6891 56.0233,72.5224 56.5,73.5C 55.2052,77.6495 53.2052,78.3162 50.5,75.5C 51.7498,75.4226 52.5831,74.756 53,73.5C 53.5046,71.4817 54.0046,69.4817 54.5,67.5 Z"/>
<path style="opacity:0.999" fill="#120e0e" d="M 62.5,69.5 C 63.3155,71.3023 64.8155,72.3023 67,72.5C 67.9454,72.0946 68.6121,71.428 69,70.5C 69.3988,70.7284 69.5654,71.0618 69.5,71.5C 68.962,73.1172 68.6287,74.7839 68.5,76.5C 66.2852,82.4776 64.2852,88.4776 62.5,94.5C 62.0725,90.1711 63.0725,85.8378 65.5,81.5C 65.0302,80.537 64.3635,80.537 63.5,81.5C 62.6963,79.8113 61.6963,78.1446 60.5,76.5C 61.3094,74.9291 61.6427,73.2624 61.5,71.5C 61.3284,70.5084 61.6618,69.8417 62.5,69.5 Z"/>
<path fill="#241a18" d="M 143.5,73.5 C 145.074,76.1063 146.741,78.7729 148.5,81.5C 147.5,82.1667 146.5,82.8333 145.5,83.5C 146.025,84.1924 146.692,84.6924 147.5,85C 145.411,86.1708 143.411,87.5041 141.5,89C 142.793,89.49 144.127,89.6567 145.5,89.5C 145.67,90.8221 145.337,91.9887 144.5,93C 147.147,93.3149 147.813,94.4816 146.5,96.5C 143.467,98.5358 140.3,98.8692 137,97.5C 136.53,98.5768 136.697,99.5768 137.5,100.5C 136.778,100.918 136.278,101.584 136,102.5C 135,101.167 134,101.167 133,102.5C 131.991,100.975 131.491,99.3084 131.5,97.5C 131.557,96.391 131.89,95.391 132.5,94.5C 133.512,93.1283 134.512,91.795 135.5,90.5C 137.237,87.992 138.07,84.992 138,81.5C 139.417,80.9221 140.25,79.9221 140.5,78.5C 140.281,77.325 140.614,76.325 141.5,75.5C 143.214,76.6085 143.881,75.9418 143.5,73.5 Z"/>
<path style="opacity:0.043" fill="#030303" d="M 144.5,63.5 C 145.68,65.0145 146.68,66.6812 147.5,68.5C 148.919,67.9953 149.585,66.9953 149.5,65.5C 150.434,66.5676 150.768,67.901 150.5,69.5C 149.022,69.238 147.689,69.5713 146.5,70.5C 152.165,78.6352 153.998,87.6352 152,97.5C 150.804,102.921 149.304,108.254 147.5,113.5C 145.955,114.452 144.288,114.785 142.5,114.5C 142.142,111.311 141.475,108.311 140.5,105.5C 140.5,104.833 140.5,104.167 140.5,103.5C 140.435,103.062 140.601,102.728 141,102.5C 141.278,103.416 141.778,104.082 142.5,104.5C 143.15,106.435 143.483,108.435 143.5,110.5C 143.354,112.942 144.187,113.609 146,112.5C 149.917,102.843 151.584,92.8428 151,82.5C 149.598,78.0252 147.431,74.0252 144.5,70.5C 142.396,68.6282 141.063,66.2948 140.5,63.5C 140.47,62.5028 140.97,61.8361 142,61.5C 143.011,62.0556 143.844,62.7222 144.5,63.5 Z"/>
<path style="opacity:0.044" fill="#030202" d="M 104.5,60.5 C 106.858,70.096 109.358,79.7626 112,89.5C 113.996,89.9963 115.663,90.9963 117,92.5C 120.254,89.8697 122.087,86.5364 122.5,82.5C 122.5,84.5 122.5,86.5 122.5,88.5C 122.5,88.8333 122.5,89.1667 122.5,89.5C 121.833,90.8333 120.833,91.8333 119.5,92.5C 118.833,92.8333 118.167,93.1667 117.5,93.5C 115.685,92.3702 113.685,91.7036 111.5,91.5C 109.94,85.825 108.274,80.1583 106.5,74.5C 105.833,71.5 105.167,68.5 104.5,65.5C 104.5,63.8333 104.5,62.1667 104.5,60.5 Z"/>
<path fill="#241916" d="M 61.5,71.5 C 61.6427,73.2624 61.3094,74.9291 60.5,76.5C 61.6963,78.1446 62.6963,79.8113 63.5,81.5C 62.8166,83.1765 61.4832,83.8432 59.5,83.5C 59.7896,86.7847 59.123,89.7847 57.5,92.5C 56.205,93.4884 54.8717,94.4884 53.5,95.5C 53.7678,93.901 53.4345,92.5676 52.5,91.5C 52.5,89.8333 52.5,88.1667 52.5,86.5C 53.4511,85.0813 53.7845,83.4147 53.5,81.5C 56.9546,78.7211 59.6213,75.3878 61.5,71.5 Z"/>
<path fill="#4a3a33" d="M 135.5,78.5 C 137.167,79.8333 138.833,79.8333 140.5,78.5C 140.25,79.9221 139.417,80.9221 138,81.5C 138.07,84.992 137.237,87.992 135.5,90.5C 136.833,86.8333 136.833,83.1667 135.5,79.5C 135.5,79.1667 135.5,78.8333 135.5,78.5 Z"/>
<path fill="#513e33" d="M 42.5,75.5 C 44.5,76.1667 46.5,76.8333 48.5,77.5C 49.3094,78.4687 50.3094,79.3021 51.5,80C 50.433,82.4272 51.0997,82.9272 53.5,81.5C 53.7845,83.4147 53.4511,85.0813 52.5,86.5C 52.6309,85.6236 52.2975,84.9569 51.5,84.5C 50.5,85 49.5,85.5 48.5,86C 49.4061,87.6995 49.7394,89.5328 49.5,91.5C 47.795,90.4647 46.1284,90.4647 44.5,91.5C 43.8324,88.6944 43.1657,86.0277 42.5,83.5C 42.5,80.8333 42.5,78.1667 42.5,75.5 Z"/>
<path fill="#5c473b" d="M 132.5,68.5 C 133.468,70.6074 133.802,72.9407 133.5,75.5C 131.023,77.4159 130.023,80.0825 130.5,83.5C 128.857,83.4802 127.524,84.1468 126.5,85.5C 125.833,85.1667 125.167,84.8333 124.5,84.5C 123.828,85.9492 123.161,87.2825 122.5,88.5C 122.5,86.5 122.5,84.5 122.5,82.5C 122.926,78.163 123.259,73.8296 123.5,69.5C 123.805,73.0199 124.638,76.3533 126,79.5C 125.833,77.1667 125.667,74.8333 125.5,72.5C 126.154,70.8849 126.654,69.2182 127,67.5C 129,68.8333 130.667,70.5 132,72.5C 132.49,71.2068 132.657,69.8734 132.5,68.5 Z"/>
<path style="opacity:0.926" fill="#1c1515" d="M 106.5,74.5 C 108.274,80.1583 109.94,85.825 111.5,91.5C 110.662,91.8417 110.328,92.5084 110.5,93.5C 107.332,94.9846 104.666,94.4846 102.5,92C 103.059,91.2753 103.392,90.4419 103.5,89.5C 102.106,87.3543 101.44,85.021 101.5,82.5C 100.9,81.1001 99.9002,80.1001 98.5,79.5C 101.217,78.3218 101.55,77.3218 99.5,76.5C 101.448,75.8688 103.281,74.8688 105,73.5C 105.383,74.056 105.883,74.3893 106.5,74.5 Z"/>
<path fill="#735949" d="M 133.5,75.5 C 134.167,76.1667 134.833,76.8333 135.5,77.5C 135.5,77.8333 135.5,78.1667 135.5,78.5C 135.5,78.8333 135.5,79.1667 135.5,79.5C 134.504,79.5858 133.671,79.2524 133,78.5C 131.495,80.2983 131.328,82.1316 132.5,84C 131.552,84.4828 130.552,84.6495 129.5,84.5C 129.286,86.1439 129.62,87.6439 130.5,89C 129.906,89.4643 129.239,89.631 128.5,89.5C 127.542,89.0472 126.708,88.3805 126,87.5C 126,88.8333 126,90.1667 126,91.5C 125.184,90.1772 124.017,89.5106 122.5,89.5C 122.5,89.1667 122.5,88.8333 122.5,88.5C 123.161,87.2825 123.828,85.9492 124.5,84.5C 125.167,84.8333 125.833,85.1667 126.5,85.5C 127.524,84.1468 128.857,83.4802 130.5,83.5C 130.023,80.0825 131.023,77.4159 133.5,75.5 Z"/>
<path fill="#292120" d="M 98.5,79.5 C 99.9002,80.1001 100.9,81.1001 101.5,82.5C 100.577,81.6971 99.5768,81.5304 98.5,82C 101.186,84.8149 101.02,87.3149 98,89.5C 97.2797,91.1124 97.4464,92.6124 98.5,94C 97.5842,94.2784 96.9175,94.7784 96.5,95.5C 94.5158,91.2393 92.5158,86.906 90.5,82.5C 93.5879,82.3614 96.2546,81.3614 98.5,79.5 Z"/>
<path fill="#231b1a" d="M 62.5,94.5 C 62.5,95.1667 62.5,95.8333 62.5,96.5C 61.5489,97.9187 61.2155,99.5853 61.5,101.5C 59.6767,98.8132 58.3434,95.8132 57.5,92.5C 59.123,89.7847 59.7896,86.7847 59.5,83.5C 61.4832,83.8432 62.8166,83.1765 63.5,81.5C 64.3635,80.537 65.0302,80.537 65.5,81.5C 63.0725,85.8378 62.0725,90.1711 62.5,94.5 Z"/>
<path fill="#765f50" d="M 52.5,86.5 C 52.5,88.1667 52.5,89.8333 52.5,91.5C 51.5,91.5 50.5,91.5 49.5,91.5C 49.7394,89.5328 49.4061,87.6995 48.5,86C 49.5,85.5 50.5,85 51.5,84.5C 52.2975,84.9569 52.6309,85.6236 52.5,86.5 Z"/>
<path fill="#9f7e67" d="M 135.5,79.5 C 136.833,83.1667 136.833,86.8333 135.5,90.5C 134.512,91.795 133.512,93.1283 132.5,94.5C 130.793,93.1274 129.46,91.4607 128.5,89.5C 129.239,89.631 129.906,89.4643 130.5,89C 129.62,87.6439 129.286,86.1439 129.5,84.5C 130.552,84.6495 131.552,84.4828 132.5,84C 131.328,82.1316 131.495,80.2983 133,78.5C 133.671,79.2524 134.504,79.5858 135.5,79.5 Z"/>
<path fill="#302725" d="M 144.5,70.5 C 147.431,74.0252 149.598,78.0252 151,82.5C 151.584,92.8428 149.917,102.843 146,112.5C 144.187,113.609 143.354,112.942 143.5,110.5C 145.232,107.197 146.899,103.697 148.5,100C 144.817,99.3354 142.817,100.835 142.5,104.5C 141.778,104.082 141.278,103.416 141,102.5C 140.601,102.728 140.435,103.062 140.5,103.5C 139.883,103.611 139.383,103.944 139,104.5C 138.59,103.099 138.09,101.766 137.5,100.5C 136.697,99.5768 136.53,98.5768 137,97.5C 140.3,98.8692 143.467,98.5358 146.5,96.5C 147.813,94.4816 147.147,93.3149 144.5,93C 145.337,91.9887 145.67,90.8221 145.5,89.5C 144.127,89.6567 142.793,89.49 141.5,89C 143.411,87.5041 145.411,86.1708 147.5,85C 146.692,84.6924 146.025,84.1924 145.5,83.5C 146.5,82.8333 147.5,82.1667 148.5,81.5C 146.741,78.7729 145.074,76.1063 143.5,73.5C 143.263,72.209 143.596,71.209 144.5,70.5 Z"/>
<path style="opacity:0.984" fill="#372b26" d="M 42.5,83.5 C 43.1657,86.0277 43.8324,88.6944 44.5,91.5C 46.1284,90.4647 47.795,90.4647 49.5,91.5C 50.5,91.5 51.5,91.5 52.5,91.5C 53.4345,92.5676 53.7678,93.901 53.5,95.5C 53.5,96.5 53.5,97.5 53.5,98.5C 52.5768,97.6971 51.5768,97.5304 50.5,98C 48.5906,100.3 47.2573,102.8 46.5,105.5C 46.2562,100.933 45.0896,96.5994 43,92.5C 42.502,89.5184 42.3354,86.5184 42.5,83.5 Z"/>
<path fill="#3b2f2c" d="M 101.5,82.5 C 101.44,85.021 102.106,87.3543 103.5,89.5C 103.392,90.4419 103.059,91.2753 102.5,92C 104.666,94.4846 107.332,94.9846 110.5,93.5C 111.824,92.1501 112.824,92.3167 113.5,94C 112.964,96.24 111.797,98.0734 110,99.5C 109.316,98.2161 109.483,97.0495 110.5,96C 108.772,96.3526 107.106,96.5193 105.5,96.5C 106.844,98.5286 108.177,100.529 109.5,102.5C 108.636,103.688 107.636,104.855 106.5,106C 108.119,106.236 109.119,107.069 109.5,108.5C 108.508,108.328 107.842,108.662 107.5,109.5C 105.095,108.602 103.095,107.102 101.5,105C 101.833,104.667 102.167,104.333 102.5,104C 101.773,102.601 101.273,101.101 101,99.5C 100.667,99.8333 100.333,100.167 100,100.5C 99.6667,99.5 99.3333,98.5 99,97.5C 98.2303,98.5981 97.397,98.5981 96.5,97.5C 96.5,96.8333 96.5,96.1667 96.5,95.5C 96.9175,94.7784 97.5842,94.2784 98.5,94C 97.4464,92.6124 97.2797,91.1124 98,89.5C 101.02,87.3149 101.186,84.8149 98.5,82C 99.5768,81.5304 100.577,81.6971 101.5,82.5 Z"/>
<path style="opacity:0.045" fill="#050404" d="M 88.5,76.5 C 89.2852,78.3736 89.9518,80.3736 90.5,82.5C 92.5158,86.906 94.5158,91.2393 96.5,95.5C 96.5,96.1667 96.5,96.8333 96.5,97.5C 99.0677,104.297 100.734,111.297 101.5,118.5C 97.7866,105.658 93.4532,92.9918 88.5,80.5C 88.5,79.1667 88.5,77.8333 88.5,76.5 Z"/>
<path style="opacity:0.066" fill="#030202" d="M 46.5,54.5 C 46.5,54.8333 46.5,55.1667 46.5,55.5C 45.8902,56.391 45.5569,57.391 45.5,58.5C 43.8511,63.2395 42.8511,68.2395 42.5,73.5C 42.5,74.1667 42.5,74.8333 42.5,75.5C 42.5,78.1667 42.5,80.8333 42.5,83.5C 42.3354,86.5184 42.502,89.5184 43,92.5C 45.0896,96.5994 46.2562,100.933 46.5,105.5C 47.128,109.491 45.7947,110.824 42.5,109.5C 40.8828,108.962 39.2161,108.629 37.5,108.5C 35.5675,105.634 33.9009,102.634 32.5,99.5C 34.7188,101.575 36.7188,103.909 38.5,106.5C 44.1071,109.742 46.2738,108.076 45,101.5C 42.3507,96.2837 40.8507,90.7837 40.5,85C 41.1508,76.5291 41.9841,68.0291 43,59.5C 43.6972,57.4156 44.8639,55.7489 46.5,54.5 Z"/>
<path fill="#221918" d="M 111.5,91.5 C 113.685,91.7036 115.685,92.3702 117.5,93.5C 117.5,93.8333 117.5,94.1667 117.5,94.5C 116.19,97.3985 114.857,100.399 113.5,103.5C 111.76,104.809 110.427,104.476 109.5,102.5C 108.177,100.529 106.844,98.5286 105.5,96.5C 107.106,96.5193 108.772,96.3526 110.5,96C 109.483,97.0495 109.316,98.2161 110,99.5C 111.797,98.0734 112.964,96.24 113.5,94C 112.824,92.3167 111.824,92.1501 110.5,93.5C 110.328,92.5084 110.662,91.8417 111.5,91.5 Z"/>
<path fill="#a48269" d="M 128.5,89.5 C 129.46,91.4607 130.793,93.1274 132.5,94.5C 131.89,95.391 131.557,96.391 131.5,97.5C 129.291,99.5351 127.291,101.868 125.5,104.5C 123.519,103.314 121.519,101.981 119.5,100.5C 119.028,97.9317 119.028,95.2651 119.5,92.5C 120.833,91.8333 121.833,90.8333 122.5,89.5C 124.017,89.5106 125.184,90.1772 126,91.5C 126,90.1667 126,88.8333 126,87.5C 126.708,88.3805 127.542,89.0472 128.5,89.5 Z"/>
<path fill="#896e5c" d="M 119.5,92.5 C 119.028,95.2651 119.028,97.9317 119.5,100.5C 121.519,101.981 123.519,103.314 125.5,104.5C 124.5,105.833 123.5,107.167 122.5,108.5C 121.833,108.5 121.5,108.833 121.5,109.5C 120.5,109.5 119.5,109.5 118.5,109.5C 118.917,106.921 118.25,104.754 116.5,103C 117.444,100.281 117.777,97.4475 117.5,94.5C 117.5,94.1667 117.5,93.8333 117.5,93.5C 118.167,93.1667 118.833,92.8333 119.5,92.5 Z"/>
<path fill="#1f1818" d="M 57.5,92.5 C 58.3434,95.8132 59.6767,98.8132 61.5,101.5C 61.762,102.978 61.4287,104.311 60.5,105.5C 58.677,104.253 56.677,103.586 54.5,103.5C 53.962,101.883 53.6287,100.216 53.5,98.5C 53.5,97.5 53.5,96.5 53.5,95.5C 54.8717,94.4884 56.205,93.4884 57.5,92.5 Z"/>
<path fill="#534036" d="M 53.5,98.5 C 53.6287,100.216 53.962,101.883 54.5,103.5C 54.5,105.167 54.5,106.833 54.5,108.5C 54.1667,108.5 53.8333,108.5 53.5,108.5C 53.1575,106.775 52.1575,106.275 50.5,107C 51.9733,107.71 52.6399,108.876 52.5,110.5C 50.8333,110.5 49.1667,110.5 47.5,110.5C 47.5,112.5 47.5,114.5 47.5,116.5C 45.0504,116.702 42.717,116.369 40.5,115.5C 41.0065,114.141 42.0065,113.141 43.5,112.5C 42.8728,111.583 42.5394,110.583 42.5,109.5C 45.7947,110.824 47.128,109.491 46.5,105.5C 47.2573,102.8 48.5906,100.3 50.5,98C 51.5768,97.5304 52.5768,97.6971 53.5,98.5 Z"/>
<path fill="#191211" d="M 62.5,96.5 C 62.5,100.167 62.5,103.833 62.5,107.5C 61.4246,106.438 60.4246,106.438 59.5,107.5C 60.7111,108.72 60.7111,109.887 59.5,111C 60.1667,111.667 60.8333,112.333 61.5,113C 59.9352,114.871 59.2685,116.704 59.5,118.5C 58.6858,116.234 58.1858,113.9 58,111.5C 57.6667,111.167 57.3333,110.833 57,110.5C 56.5814,111.672 55.9147,112.672 55,113.5C 54.5065,111.866 54.3398,110.199 54.5,108.5C 54.5,106.833 54.5,105.167 54.5,103.5C 56.677,103.586 58.677,104.253 60.5,105.5C 61.4287,104.311 61.762,102.978 61.5,101.5C 61.2155,99.5853 61.5489,97.9187 62.5,96.5 Z"/>
<path fill="#2b211f" d="M 131.5,97.5 C 131.491,99.3084 131.991,100.975 133,102.5C 134,101.167 135,101.167 136,102.5C 136.278,101.584 136.778,100.918 137.5,100.5C 138.09,101.766 138.59,103.099 139,104.5C 139.383,103.944 139.883,103.611 140.5,103.5C 140.5,104.167 140.5,104.833 140.5,105.5C 139.115,106.574 137.949,107.907 137,109.5C 134.738,106.903 132.905,107.07 131.5,110C 132.167,110.333 132.833,110.667 133.5,111C 132.069,111.465 130.903,112.299 130,113.5C 128.929,110.887 128.095,110.887 127.5,113.5C 125.348,112.923 125.015,111.756 126.5,110C 125.255,109.209 123.922,108.709 122.5,108.5C 123.5,107.167 124.5,105.833 125.5,104.5C 127.291,101.868 129.291,99.5351 131.5,97.5 Z"/>
<path fill="#332927" d="M 96.5,97.5 C 97.397,98.5981 98.2303,98.5981 99,97.5C 99.3333,98.5 99.6667,99.5 100,100.5C 100.333,100.167 100.667,99.8333 101,99.5C 101.273,101.101 101.773,102.601 102.5,104C 102.167,104.333 101.833,104.667 101.5,105C 103.095,107.102 105.095,108.602 107.5,109.5C 109.027,109.427 110.027,110.094 110.5,111.5C 110.5,112.833 110.5,114.167 110.5,115.5C 108.488,114.986 106.488,114.82 104.5,115C 103.027,115.71 102.36,116.876 102.5,118.5C 102.167,118.5 101.833,118.5 101.5,118.5C 100.734,111.297 99.0677,104.297 96.5,97.5 Z"/>
<path fill="#4e3e37" d="M 117.5,94.5 C 117.777,97.4475 117.444,100.281 116.5,103C 118.25,104.754 118.917,106.921 118.5,109.5C 119.5,109.5 120.5,109.5 121.5,109.5C 119.509,111.488 118.175,113.822 117.5,116.5C 117.535,112.366 115.701,109.366 112,107.5C 111.098,107.743 110.265,108.077 109.5,108.5C 109.119,107.069 108.119,106.236 106.5,106C 107.636,104.855 108.636,103.688 109.5,102.5C 110.427,104.476 111.76,104.809 113.5,103.5C 114.857,100.399 116.19,97.3985 117.5,94.5 Z"/>
<path style="opacity:0.871" fill="#473b38" d="M 143.5,110.5 C 143.483,108.435 143.15,106.435 142.5,104.5C 142.817,100.835 144.817,99.3354 148.5,100C 146.899,103.697 145.232,107.197 143.5,110.5 Z"/>
<path fill="#120e0e" d="M 121.5,109.5 C 122.496,109.414 123.329,109.748 124,110.5C 124.629,114.561 126.129,118.228 128.5,121.5C 128.043,122.298 127.376,122.631 126.5,122.5C 122.7,121.572 119.2,121.905 116,123.5C 115.5,123.333 115,123.167 114.5,123C 115.413,121.586 115.413,120.086 114.5,118.5C 115.29,117.599 116.29,116.932 117.5,116.5C 118.175,113.822 119.509,111.488 121.5,109.5 Z"/>
<path fill="#171112" d="M 140.5,105.5 C 137.67,113.349 135.67,121.349 134.5,129.5C 134.672,124.467 134.839,119.467 135,114.5C 134.692,115.308 134.192,115.975 133.5,116.5C 131.68,115.117 129.68,114.117 127.5,113.5C 128.095,110.887 128.929,110.887 130,113.5C 130.903,112.299 132.069,111.465 133.5,111C 132.833,110.667 132.167,110.333 131.5,110C 132.905,107.07 134.738,106.903 137,109.5C 137.949,107.907 139.115,106.574 140.5,105.5 Z"/>
<path fill="#65544d" d="M 117.5,116.5 C 116.29,116.932 115.29,117.599 114.5,118.5C 111.865,119.811 109.531,121.478 107.5,123.5C 105.737,124.954 104.403,124.62 103.5,122.5C 106.225,121.287 108.559,119.454 110.5,117C 112.256,116.798 113.922,116.298 115.5,115.5C 114.726,114.289 113.893,114.289 113,115.5C 111.312,114.675 111.145,113.675 112.5,112.5C 112.043,111.702 111.376,111.369 110.5,111.5C 110.027,110.094 109.027,109.427 107.5,109.5C 107.842,108.662 108.508,108.328 109.5,108.5C 110.265,108.077 111.098,107.743 112,107.5C 115.701,109.366 117.535,112.366 117.5,116.5 Z"/>
<path fill="#201919" d="M 121.5,109.5 C 121.5,108.833 121.833,108.5 122.5,108.5C 123.922,108.709 125.255,109.209 126.5,110C 125.015,111.756 125.348,112.923 127.5,113.5C 129.68,114.117 131.68,115.117 133.5,116.5C 134.192,115.975 134.692,115.308 135,114.5C 134.839,119.467 134.672,124.467 134.5,129.5C 133.955,134.049 132.955,138.382 131.5,142.5C 131.5,141.167 131.5,139.833 131.5,138.5C 131.663,136.143 131.497,133.81 131,131.5C 128.876,132.227 126.709,132.894 124.5,133.5C 123.824,132.398 123.158,131.398 122.5,130.5C 122.5,128.5 122.5,126.5 122.5,124.5C 125.152,126.244 127.485,128.244 129.5,130.5C 130.167,130.167 130.833,129.833 131.5,129.5C 130.05,128.15 129.383,126.484 129.5,124.5C 127.821,124.715 126.821,124.048 126.5,122.5C 127.376,122.631 128.043,122.298 128.5,121.5C 126.129,118.228 124.629,114.561 124,110.5C 123.329,109.748 122.496,109.414 121.5,109.5 Z"/>
<path fill="#56443a" d="M 37.5,108.5 C 39.2161,108.629 40.8828,108.962 42.5,109.5C 42.5394,110.583 42.8728,111.583 43.5,112.5C 42.0065,113.141 41.0065,114.141 40.5,115.5C 39.6618,115.842 39.3284,116.508 39.5,117.5C 38.5526,119.455 37.2193,119.789 35.5,118.5C 34.4291,116.675 35.0958,115.508 37.5,115C 36.2161,114.316 35.0495,114.483 34,115.5C 33.0932,112.428 31.2599,110.095 28.5,108.5C 27.1923,104.981 27.1923,101.315 28.5,97.5C 29.997,101.162 31.497,104.828 33,108.5C 34.4902,109.728 35.9902,109.728 37.5,108.5 Z"/>
<path style="opacity:0.959" fill="#201918" d="M 62.5,107.5 C 62.5,107.833 62.5,108.167 62.5,108.5C 62.3345,112.514 62.5012,116.514 63,120.5C 66.7039,124.036 70.2039,127.702 73.5,131.5C 70.2604,131.232 67.0937,130.566 64,129.5C 63.2352,129.57 62.7352,129.903 62.5,130.5C 59.8842,128.713 57.5508,126.713 55.5,124.5C 55.3059,122.088 53.9726,121.088 51.5,121.5C 52.9102,117.296 53.5769,112.963 53.5,108.5C 53.8333,108.5 54.1667,108.5 54.5,108.5C 54.3398,110.199 54.5065,111.866 55,113.5C 55.9147,112.672 56.5814,111.672 57,110.5C 57.3333,110.833 57.6667,111.167 58,111.5C 58.1858,113.9 58.6858,116.234 59.5,118.5C 59.2685,116.704 59.9352,114.871 61.5,113C 60.8333,112.333 60.1667,111.667 59.5,111C 60.7111,109.887 60.7111,108.72 59.5,107.5C 60.4246,106.438 61.4246,106.438 62.5,107.5 Z"/>
<path fill="#786050" d="M 53.5,108.5 C 53.5769,112.963 52.9102,117.296 51.5,121.5C 53.9726,121.088 55.3059,122.088 55.5,124.5C 54.8333,124.5 54.1667,124.5 53.5,124.5C 52.4863,123.326 51.153,122.66 49.5,122.5C 46.5522,120.245 43.2189,118.578 39.5,117.5C 39.3284,116.508 39.6618,115.842 40.5,115.5C 42.717,116.369 45.0504,116.702 47.5,116.5C 47.5,114.5 47.5,112.5 47.5,110.5C 49.1667,110.5 50.8333,110.5 52.5,110.5C 52.6399,108.876 51.9733,107.71 50.5,107C 52.1575,106.275 53.1575,106.775 53.5,108.5 Z"/>
<path fill="#504139" d="M 110.5,111.5 C 111.376,111.369 112.043,111.702 112.5,112.5C 111.145,113.675 111.312,114.675 113,115.5C 113.893,114.289 114.726,114.289 115.5,115.5C 113.922,116.298 112.256,116.798 110.5,117C 108.559,119.454 106.225,121.287 103.5,122.5C 103.768,120.901 103.434,119.568 102.5,118.5C 102.36,116.876 103.027,115.71 104.5,115C 106.488,114.82 108.488,114.986 110.5,115.5C 110.5,114.167 110.5,112.833 110.5,111.5 Z"/>
<path style="opacity:0.988" fill="#2a1f1b" d="M 28.5,108.5 C 31.2599,110.095 33.0932,112.428 34,115.5C 35.0495,114.483 36.2161,114.316 37.5,115C 35.0958,115.508 34.4291,116.675 35.5,118.5C 37.2193,119.789 38.5526,119.455 39.5,117.5C 43.2189,118.578 46.5522,120.245 49.5,122.5C 46.8431,122.162 44.5098,122.829 42.5,124.5C 40.5914,123.652 38.5914,123.318 36.5,123.5C 32.9913,118.98 30.3246,113.98 28.5,108.5 Z"/>
<path style="opacity:0.988" fill="#1b1514" d="M 49.5,122.5 C 51.153,122.66 52.4863,123.326 53.5,124.5C 53.3738,125.439 53.0405,126.439 52.5,127.5C 50.1715,128.749 48.3382,128.082 47,125.5C 45.2663,126.249 43.433,126.749 41.5,127C 42.7911,128.292 42.7911,129.458 41.5,130.5C 39.4776,128.469 37.8109,126.135 36.5,123.5C 38.5914,123.318 40.5914,123.652 42.5,124.5C 44.5098,122.829 46.8431,122.162 49.5,122.5 Z"/>
<path fill="#181213" d="M 114.5,118.5 C 115.413,120.086 115.413,121.586 114.5,123C 115,123.167 115.5,123.333 116,123.5C 119.2,121.905 122.7,121.572 126.5,122.5C 126.821,124.048 127.821,124.715 129.5,124.5C 129.383,126.484 130.05,128.15 131.5,129.5C 130.833,129.833 130.167,130.167 129.5,130.5C 127.485,128.244 125.152,126.244 122.5,124.5C 120.088,124.694 119.088,126.027 119.5,128.5C 118.167,128.5 116.833,128.5 115.5,128.5C 114.631,124.398 112.631,123.731 109.5,126.5C 108.494,126.062 108.494,125.396 109.5,124.5C 109.043,123.702 108.376,123.369 107.5,123.5C 109.531,121.478 111.865,119.811 114.5,118.5 Z"/>
<path style="opacity:0.027" fill="#0c0a09" d="M 32.5,99.5 C 33.9009,102.634 35.5675,105.634 37.5,108.5C 35.9902,109.728 34.4902,109.728 33,108.5C 31.497,104.828 29.997,101.162 28.5,97.5C 27.1923,101.315 27.1923,104.981 28.5,108.5C 30.3246,113.98 32.9913,118.98 36.5,123.5C 37.8109,126.135 39.4776,128.469 41.5,130.5C 45.231,135.555 50.231,138.555 56.5,139.5C 56.5,139.833 56.5,140.167 56.5,140.5C 52.6754,139.926 49.0087,138.759 45.5,137C 38.3159,130.113 32.4825,122.28 28,113.5C 26.0491,107.659 25.2158,101.659 25.5,95.5C 29.1834,94.6798 31.5168,96.0131 32.5,99.5 Z"/>
<path fill="#251d1d" d="M 102.5,118.5 C 103.434,119.568 103.768,120.901 103.5,122.5C 104.403,124.62 105.737,124.954 107.5,123.5C 108.376,123.369 109.043,123.702 109.5,124.5C 108.494,125.396 108.494,126.062 109.5,126.5C 112.631,123.731 114.631,124.398 115.5,128.5C 116.833,128.5 118.167,128.5 119.5,128.5C 119.088,126.027 120.088,124.694 122.5,124.5C 122.5,126.5 122.5,128.5 122.5,130.5C 121.178,130.67 120.011,130.337 119,129.5C 117.804,131.286 116.304,132.619 114.5,133.5C 111.46,130.149 107.793,127.482 103.5,125.5C 102.626,123.253 102.292,120.92 102.5,118.5 Z"/>
<path fill="#181213" d="M 52.5,127.5 C 52.281,128.675 52.6143,129.675 53.5,130.5C 54.4255,129.359 55.2588,129.359 56,130.5C 56.3333,129.833 56.6667,129.167 57,128.5C 57.5,129.667 58.3333,130.5 59.5,131C 58.8333,131.333 58.1667,131.667 57.5,132C 58.3805,132.708 59.0472,133.542 59.5,134.5C 60.5764,137.748 59.9097,138.081 57.5,135.5C 56.4291,137.325 57.0958,138.492 59.5,139C 58.552,139.483 57.552,139.649 56.5,139.5C 50.231,138.555 45.231,135.555 41.5,130.5C 42.7911,129.458 42.7911,128.292 41.5,127C 43.433,126.749 45.2663,126.249 47,125.5C 48.3382,128.082 50.1715,128.749 52.5,127.5 Z"/>
<path fill="#1b1515" d="M 53.5,124.5 C 54.1667,124.5 54.8333,124.5 55.5,124.5C 57.5508,126.713 59.8842,128.713 62.5,130.5C 64.1667,132.167 65.8333,133.833 67.5,135.5C 64.6467,136.83 61.98,136.497 59.5,134.5C 59.0472,133.542 58.3805,132.708 57.5,132C 58.1667,131.667 58.8333,131.333 59.5,131C 58.3333,130.5 57.5,129.667 57,128.5C 56.6667,129.167 56.3333,129.833 56,130.5C 55.2588,129.359 54.4255,129.359 53.5,130.5C 52.6143,129.675 52.281,128.675 52.5,127.5C 53.0405,126.439 53.3738,125.439 53.5,124.5 Z"/>
<path fill="#3c302b" d="M 122.5,130.5 C 123.158,131.398 123.824,132.398 124.5,133.5C 126.709,132.894 128.876,132.227 131,131.5C 131.497,133.81 131.663,136.143 131.5,138.5C 128.755,136.903 126.255,135.569 124,134.5C 123.616,136.197 123.782,137.863 124.5,139.5C 123.5,138.167 122.5,138.167 121.5,139.5C 119.901,139.232 118.568,139.566 117.5,140.5C 114.979,138.97 113.979,136.636 114.5,133.5C 116.304,132.619 117.804,131.286 119,129.5C 120.011,130.337 121.178,130.67 122.5,130.5 Z"/>
<path fill="#433734" d="M 73.5,131.5 C 74.2186,134.073 75.2186,136.573 76.5,139C 75.9056,139.464 75.2389,139.631 74.5,139.5C 72.0713,138.449 69.738,137.116 67.5,135.5C 65.8333,133.833 64.1667,132.167 62.5,130.5C 62.7352,129.903 63.2352,129.57 64,129.5C 67.0937,130.566 70.2604,131.232 73.5,131.5 Z"/>
<path style="opacity:0.987" fill="#151010" d="M 59.5,134.5 C 61.98,136.497 64.6467,136.83 67.5,135.5C 69.738,137.116 72.0713,138.449 74.5,139.5C 75.5676,140.434 76.901,140.768 78.5,140.5C 83.0061,142.637 87.6727,143.97 92.5,144.5C 91.1667,145.167 89.8333,145.833 88.5,146.5C 87.8501,146.804 87.1835,147.137 86.5,147.5C 82.2207,146.726 77.8874,146.226 73.5,146C 67.9007,143.722 62.234,141.889 56.5,140.5C 56.5,140.167 56.5,139.833 56.5,139.5C 57.552,139.649 58.552,139.483 59.5,139C 57.0958,138.492 56.4291,137.325 57.5,135.5C 59.9097,138.081 60.5764,137.748 59.5,134.5 Z"/>
<path fill="#2b2322" d="M 73.5,131.5 C 77.0002,135.015 81.0002,137.682 85.5,139.5C 83.8014,139.38 82.1347,139.046 80.5,138.5C 79.2867,138.747 78.62,139.414 78.5,140.5C 76.901,140.768 75.5676,140.434 74.5,139.5C 75.2389,139.631 75.9056,139.464 76.5,139C 75.2186,136.573 74.2186,134.073 73.5,131.5 Z"/>
<path fill="#856f60" d="M 115.5,134.5 C 116.873,134.343 118.207,134.51 119.5,135C 118.692,136.706 117.359,137.539 115.5,137.5C 115.5,136.5 115.5,135.5 115.5,134.5 Z"/>
<path style="opacity:0.039" fill="#030202" d="M 62.5,108.5 C 63.2224,112.391 64.0557,116.391 65,120.5C 69.1667,124.667 73.3333,128.833 77.5,133C 83.3958,136.41 89.5625,139.244 96,141.5C 96.7805,142.944 96.6139,144.277 95.5,145.5C 93.2534,146.374 90.9201,146.708 88.5,146.5C 89.8333,145.833 91.1667,145.167 92.5,144.5C 94.0481,144.179 94.7148,143.179 94.5,141.5C 91.4606,140.99 88.4606,140.323 85.5,139.5C 81.0002,137.682 77.0002,135.015 73.5,131.5C 70.2039,127.702 66.7039,124.036 63,120.5C 62.5012,116.514 62.3345,112.514 62.5,108.5 Z"/>
<path fill="#413735" d="M 85.5,139.5 C 88.4606,140.323 91.4606,140.99 94.5,141.5C 94.7148,143.179 94.0481,144.179 92.5,144.5C 87.6727,143.97 83.0061,142.637 78.5,140.5C 78.62,139.414 79.2867,138.747 80.5,138.5C 82.1347,139.046 83.8014,139.38 85.5,139.5 Z"/>
<path fill="#604a3b" d="M 121.5,139.5 C 121.5,141.167 121.5,142.833 121.5,144.5C 120.041,144.433 118.708,144.766 117.5,145.5C 117.5,143.833 117.5,142.167 117.5,140.5C 118.568,139.566 119.901,139.232 121.5,139.5 Z"/>
<path style="opacity:0.951" fill="#392a22" d="M 131.5,138.5 C 131.5,139.833 131.5,141.167 131.5,142.5C 130.065,144.598 128.898,146.931 128,149.5C 126.758,150.872 125.258,151.872 123.5,152.5C 121.32,157.924 117.32,160.924 111.5,161.5C 110.227,160.743 110.227,160.077 111.5,159.5C 114.549,158.606 116.549,156.606 117.5,153.5C 119.27,152.144 120.603,150.311 121.5,148C 122.5,147.667 123.5,147.333 124.5,147C 124.263,144.712 124.263,142.212 124.5,139.5C 123.782,137.863 123.616,136.197 124,134.5C 126.255,135.569 128.755,136.903 131.5,138.5 Z"/>
<path style="opacity:0.053" fill="#070504" d="M 101.5,118.5 C 101.833,118.5 102.167,118.5 102.5,118.5C 102.292,120.92 102.626,123.253 103.5,125.5C 107.793,127.482 111.46,130.149 114.5,133.5C 113.979,136.636 114.979,138.97 117.5,140.5C 117.5,142.167 117.5,143.833 117.5,145.5C 113.908,149.363 111.908,154.03 111.5,159.5C 110.227,160.077 110.227,160.743 111.5,161.5C 117.32,160.924 121.32,157.924 123.5,152.5C 125.258,151.872 126.758,150.872 128,149.5C 128.898,146.931 130.065,144.598 131.5,142.5C 131.477,144.927 130.977,147.26 130,149.5C 126.159,153.008 122.659,156.841 119.5,161C 116.318,162.631 112.985,163.297 109.5,163C 109.601,155.703 111.934,149.036 116.5,143C 114.364,140.599 113.197,137.765 113,134.5C 109.613,131.447 105.947,128.78 102,126.5C 101.503,123.854 101.336,121.187 101.5,118.5 Z"/>
<path fill="#947a66" d="M 124.5,139.5 C 124.263,142.212 124.263,144.712 124.5,147C 123.5,147.333 122.5,147.667 121.5,148C 120.603,150.311 119.27,152.144 117.5,153.5C 116.343,150.974 116.343,148.307 117.5,145.5C 118.708,144.766 120.041,144.433 121.5,144.5C 121.5,142.833 121.5,141.167 121.5,139.5C 122.5,138.167 123.5,138.167 124.5,139.5 Z"/>
<path fill="#735d4e" d="M 117.5,145.5 C 116.343,148.307 116.343,150.974 117.5,153.5C 116.549,156.606 114.549,158.606 111.5,159.5C 111.908,154.03 113.908,149.363 117.5,145.5 Z"/>
</svg>
