<?xml version="1.0" encoding="UTF-8"?>
<svg version="1.1" width="735px" height="588px" viewbox="0 0 735 588" style="shape-rendering:geometricPrecision; text-rendering:geometricPrecision; image-rendering:optimizeQuality; fill-rule:evenodd; clip-rule:evenodd" xmlns="http://www.w3.org/2000/svg" xmlns:bx="https://boxy-svg.com">
  <path d="M 367.216 -107.544 L 533.418 253.062 L 367.216 613.668 L 201.014 253.062 Z" style="stroke: rgb(0, 0, 0);" bx:shape="n-gon 367.216 253.062 166.202 360.606 4 0 1@50024b5e"></path>
  <path style="opacity: 1; fill: rgb(255, 255, 255);" d="M 408.5 486.5 C 407.502 456.338 407.169 426.005 407.5 395.5 C 416.725 393.794 424.225 389.128 430 381.5 C 432.732 377.759 435.066 373.759 437 369.5 C 435.182 351.225 433.682 332.892 432.5 314.5 C 416.919 320.587 407.752 331.92 405 348.5 C 404.333 345.167 403.667 341.833 403 338.5 C 402.792 332.759 402.626 327.093 402.5 321.5 C 390.839 328.484 385.173 338.817 385.5 352.5 C 388.056 366.396 388.889 380.396 388 394.5 C 386.551 399.399 384.551 404.065 382 408.5 C 373.582 420.33 365.915 432.663 359 445.5 C 358.333 447.833 358.333 450.167 359 452.5 C 361.264 460.462 363.431 468.462 365.5 476.5 C 364.901 479.702 363.734 482.702 362 485.5 C 356.42 492.992 351.087 500.659 346 508.5 C 347.179 528.028 357.346 535.195 376.5 530 C 382.487 527.674 387.654 524.174 392 519.5 C 383.947 539.622 375.281 559.622 366 579.5 C 354.601 556.869 344.434 533.702 335.5 510 C 339.511 500.813 344.678 492.313 351 484.5 C 352.588 481.826 353.755 478.992 354.5 476 C 350.412 466.658 346.745 457.158 343.5 447.5 C 349 433.5 355.834 420.166 364 407.5 C 368.25 398.977 369.584 389.977 368 380.5 C 365.881 368.146 362.548 356.146 358 344.5 C 351.536 334.209 342.702 326.542 331.5 321.5 C 331.013 330.596 330.013 339.596 328.5 348.5 C 326.108 331.789 317.108 320.456 301.5 314.5 C 300.416 332.642 298.583 350.642 296 368.5 C 301.347 381.013 310.181 390.013 322.5 395.5 C 323.209 395.725 325.665 395.573 326.276 395.627 C 326.609 422.968 326.567 459.131 325.858 486.456 C 325.069 485.631 321.403 476.567 320.5 475.5 C 286.755 401.751 252.921 328.085 219 254.5 C 218.333 252.5 218.333 250.5 219 248.5 C 255.008 170.465 291.008 92.465 327 14.5 C 327.667 15.167 328.333 15.833 329 16.5 C 329.188 24.218 329.854 31.885 331 39.5 C 334.89 44.614 337.724 50.281 339.5 56.5 C 339.333 57.167 339.167 57.833 339 58.5 C 336.452 53.778 332.619 50.778 327.5 49.5 C 325.282 50.924 323.782 52.924 323 55.5 C 311.585 91.661 302.752 128.494 296.5 166 C 296.443 168.96 296.943 171.793 298 174.5 C 301.333 179.167 305.333 183.167 310 186.5 C 313.158 190.306 314.492 194.64 314 199.5 C 309.837 193.659 304.337 189.825 297.5 188 C 294.084 187.107 290.917 187.607 288 189.5 C 281.889 209.386 278.889 229.719 279 250.5 C 282.328 256.836 287.662 259.836 295 259.5 C 300.986 259.103 306.82 257.936 312.5 256 C 314.969 248.853 312.969 242.853 306.5 238 C 304.259 236.478 301.926 235.145 299.5 234 C 306.401 233.382 312.734 235.049 318.5 239 C 322 242.5 325.5 246 329 249.5 C 331.551 253.935 333.551 258.601 335 263.5 C 335.667 260.833 335.667 258.167 335 255.5 C 332.986 250.505 331.319 245.505 330 240.5 C 336.333 244.167 341.333 249.167 345 255.5 C 341.903 243.862 338.569 232.196 335 220.5 C 333.82 201.381 342.32 188.548 360.5 182 C 369.4 179.483 377.733 175.816 385.5 171 C 397.787 159.559 397.454 148.559 384.5 138 C 367.554 128.342 353.054 131.176 341 146.5 C 339.041 150.669 337.541 155.003 336.5 159.5 C 331.101 155.143 328.934 149.477 330 142.5 C 335.642 136.909 337.642 130.242 336 122.5 C 338.607 117.62 340.94 112.62 343 107.5 C 343.265 99.488 343.265 91.488 343 83.5 C 344.476 78.545 346.976 74.212 350.5 70.5 C 350.833 70.833 351.167 71.167 351.5 71.5 C 349.568 76.677 349.068 82.011 350 87.5 C 351.818 93.965 354.318 100.132 357.5 106 C 366.119 107.9 374.786 107.9 383.5 106 C 388.192 105.258 391.359 102.758 393 98.5 C 393.857 101.551 393.19 104.217 391 106.5 C 385.585 110.125 380.085 113.625 374.5 117 C 373.624 118.586 372.624 120.086 371.5 121.5 C 371.977 122.478 372.643 123.311 373.5 124 C 388.098 126.284 398.265 134.118 404 147.5 C 405.998 161.03 401.832 172.196 391.5 181 C 383.152 186.175 374.485 190.842 365.5 195 C 356.071 201.096 353.905 209.262 359 219.5 C 366.157 228.481 372.824 237.815 379 247.5 C 381.393 252.678 383.393 258.012 385 263.5 C 388.181 252.532 394.681 245.199 404.5 241.5 C 399.89 247.821 398.057 254.821 399 262.5 C 403.961 244.857 415.461 235.357 433.5 234 C 428.046 237.12 423.546 241.287 420 246.5 C 419.107 249.916 419.607 253.083 421.5 256 C 432.309 261.107 442.809 260.607 453 254.5 C 455.431 248.051 456.098 241.385 455 234.5 C 452.659 219.295 449.493 204.295 445.5 189.5 C 442.038 187.609 438.372 187.109 434.5 188 C 428.248 190.869 423.081 195.036 419 200.5 C 418.927 195.808 420.26 191.475 423 187.5 C 427.333 183.167 431.667 178.833 436 174.5 C 437.057 171.793 437.557 168.96 437.5 166 C 431.105 128.92 422.272 92.42 411 56.5 C 410 54.5 409 52.5 408 50.5 C 405.502 49.402 403.002 49.568 400.5 51 C 398.667 53.5 396.833 56 395 58.5 C 394.416 55.743 394.75 53.077 396 50.5 C 403.669 40.479 406.669 29.145 405 16.5 C 405.667 15.833 406.333 15.167 407 14.5 C 443.701 93.236 479.867 172.236 515.5 251.5 C 479.643 329.733 443.976 408.067 408.5 486.5 Z"></path>
</svg>