<?xml version="1.0" encoding="UTF-8" standalone="no"?>
<svg
   version="1.1"
   x="0px"
   y="0px"
   viewBox="0 0 360 360"
   width="360"
   height="360"
   xmlns="http://www.w3.org/2000/svg">
<g transform="translate(-340,-20)">
	<circle cx="520" cy="200" r="180" fill="#21314F" />
	<path
      d="M 659.7,153.9 C 643.8,132 619.27031,88.675 632.37031,59.375 c -1.9,-1.5 -3.9,-3.045313 -5.87656,-4.496094 0,0 -0.0648,-0.04687 -0.11953,-0.09219 l -2.95703,-2.13125 c -0.0492,-0.04297 -0.10391,-0.05312 -0.18438,-0.115625 -1.08828,-0.758591 -2.10781,-1.478122 -3.22734,-2.203904 -2,-1.399999 -4,-2.6 -6.1,-3.899999 -0.0805,-0.05078 -0.0961,-0.05703 -0.18047,-0.111719 -1,-0.6 -2.03125,-1.2375 -3.08047,-1.83125 -0.0883,-0.05469 -0.10391,-0.07656 -0.19609,-0.119531 -2.1,-1.3 -4.31953,-2.4625 -6.41953,-3.5625 0,0 -0.0609,-0.03125 -0.11172,-0.05703 -1.07266,-0.546875 -2.08437,-1.115625 -3.15312,-1.615625 -0.11563,-0.07266 -0.1961,-0.1 -0.30391,-0.157031 -1.08047,-0.5625 -2.21379,-1.128109 -3.2552,-1.590609 -0.0945,-0.04743 -0.12818,-0.06686 -0.25028,-0.111049 -2.18343,-1.03867 -4.32873,-2.030092 -6.64531,-2.980373 -0.0922,-0.03516 -0.20781,-0.07656 -0.3,-0.119532 -1.10781,-0.507812 -2.10871,-0.881855 -3.24387,-1.331074 -0.1625,-0.08047 -0.30313,-0.132021 -0.52335,-0.210896 -1.18743,-0.47502 -2.05481,-0.825062 -3.15481,-1.225062 -0.14688,-0.05078 -0.46228,-0.187427 -0.46228,-0.187427 -1.26641,-0.429688 -2.30724,-0.813624 -3.24303,-1.142416 l -0.14453,-0.05078 C 561.38917,23.760997 541.1,20 520,20 c -21.1,0 -37.34985,2.516108 -56.19531,8.985156 l -3.80078,1.304688 c -1.19639,0.410681 -2.3,0.741406 -3.4,1.241406 -0.11954,0.04687 -0.22735,0.08047 -0.22735,0.08047 -1.15078,0.4375 -2.12187,0.807812 -3.27656,1.288281 -0.12734,0.04922 -0.28438,0.107812 -0.43125,0.16875 -1.09219,0.433594 -2.2,0.872656 -3.3,1.372656 -0.10391,0.04297 -0.18828,0.08047 -0.30391,0.119532 -2.15703,0.931249 -4.35703,1.907812 -6.58437,2.980468 -0.1,0.04687 -0.2,0.09609 -0.3,0.150782 -1.1,0.5 -2.07656,1.007812 -3.16875,1.550781 -0.12735,0.06875 -0.18047,0.1 -0.31172,0.160937 -1.07266,0.523438 -2.08047,1.057032 -3.13359,1.627344 0,0 -0.0688,0.03516 -0.17422,0.09609 -2.22344,1.180469 -4.28828,2.341406 -6.34532,3.542969 -0.0883,0.05469 -0.12734,0.06484 -0.21953,0.123437 -1,0.6 -2.07265,1.23125 -3.07265,1.83125 -0.0766,0.05859 -0.0844,0.06875 -0.18438,0.13125 -1.52734,0.9375 -3.06824,1.934469 -4.6039,2.945313 -1.51312,0.996003 -3.04922,2.029687 -4.47657,3.025781 -0.0727,0.05859 -0.11953,0.07656 -0.23515,0.170312 L 413.30547,55.025 c 0,0 -0.0883,0.07031 -0.17031,0.13125 -1.98438,1.435156 -3.96875,3.003906 -5.8375,4.492188 C 420.39766,88.848438 395.7,132 379.8,153.9 c -12.6,17.4 -27.50938,33.56094 -39.70938,51.76094 0.1625,3.72187 0.33339,8.19924 0.77032,11.98593 l 0.0234,0.20313 c 0.51462,4.46001 0.78438,7.42969 1.45469,11.02969 l 0.0312,0.12343 c 0.28392,1.83218 0.54824,3.40086 0.90625,5.20469 0.36483,1.8382 0.64341,3.43042 1.09029,5.23823 l 0.047,0.19376 c 0.3,1.2 0.52088,2.32002 0.81105,3.42266 l 0.0552,0.20992 c 0.65409,2.48556 1.10056,4.53427 1.82266,6.8177 0.0387,0.14972 0.0884,0.25524 0.13314,0.39887 0.34476,1.21105 0.54322,1.92812 0.90609,3.04092 l 0.0829,0.25412 c 0.74534,2.28571 1.4,4.53315 2.28895,6.8221 0.0387,0.10552 0.0392,0.11713 0.0834,0.22266 0.4,1.1 0.72854,2.09648 1.17001,3.22125 l 0.92428,2.35491 C 378.35281,331.78529 443.2,380 520,380 c 76.8,0 142.3,-48 168.2,-115.7 v 0 c 0.5,-1.1 0.8,-2.2 1.3,-3.3 0,-0.1 0.1,-0.2 0.1,-0.3 0.8,-2.3 1.5,-4.5 2.3,-6.8 v 0 c 0.4,-1.2 0.7,-2.3 1,-3.4 0,-0.1 0,-0.2 0.1,-0.2 0.5,-1.7 1,-3.5 1.4,-5.2 0.5,-1.7 0.9,-3.5 1.3,-5.3 v -0.2 c 0.4,-1.8 0.8,-3.6 1.1,-5.4 0.4,-1.8 0.6,-3.6 1,-5.4 v -0.1 c 0.3,-1.9 0.6,-3.9 0.8,-5.9 0.2,-1.7 0.5,-3.5 0.6,-5.3 v 0 c 0.4,-3.8 0.6,-7.6 0.7,-11.4 -12.3,-18.2 -27.5,-34.9 -40.2,-52.2 z"
      style="display:inline" fill="#304C7A" />
	<path
      d="M 639,183.6 C 596.6,144.9 562.6,88.177903 579.9,30.277903 c -1.1221,-0.411049 -2.15257,-0.812496 -3.23371,-1.13058 -0.21953,-0.06875 -0.34419,-0.114284 -0.5702,-0.178573 -1.11172,-0.36875 -2.15703,-0.707813 -3.25703,-1.039063 -0.11562,-0.04297 -0.19323,-0.07005 -0.40781,-0.127343 -2.3,-0.7 -4.53125,-1.3375 -6.78437,-1.923438 -0.18047,-0.05469 -0.33907,-0.08828 -0.50782,-0.127344 -1.1,-0.3 -2.17265,-0.558593 -3.26875,-0.815625 -0.18437,-0.04687 -0.3039,-0.06875 -0.52343,-0.119531 -1.2,-0.3 -2.31172,-0.539062 -3.41172,-0.776562 l -0.11563,-0.02344 c -1.2625,-0.260936 -2.27266,-0.484373 -3.38047,-0.696092 -0.13906,-0.02344 -0.29609,-0.06094 -0.42734,-0.08438 -1.1,-0.2 -2.31953,-0.441406 -3.29609,-0.6 -0.20001,-0.03125 -0.36485,-0.06484 -0.48829,-0.07656 -1.1,-0.2 -2.31562,-0.392188 -3.29609,-0.53125 -0.11562,-0.02344 -0.1375,-0.02344 -0.36484,-0.05703 -1.12344,-0.16875 -2.27032,-0.341407 -3.36641,-0.472657 -0.11953,-0.01953 -0.28047,-0.03906 -0.41172,-0.05703 -1.13906,-0.133594 -2.28437,-0.280469 -3.28437,-0.380469 -0.20391,-0.02734 -0.47266,-0.05703 -0.61172,-0.07266 -1.14688,-0.123437 -2.28047,-0.257031 -3.28047,-0.357031 l -0.53125,-0.04687 c -1.1,-0.1 -2.25313,-0.219531 -3.26875,-0.292188 l -0.33516,-0.02344 c -1.2,-0.1 -2.29609,-0.146875 -3.36484,-0.180469 l -0.60781,-0.03125 C 526.34141,20.003906 525.2,20 524.1,20 h -0.6 -3.5 v 0 0 h -3.5 -0.6 c -1.2,0 -2.64088,0.06072 -3.4,0.1 l -0.60391,0.03125 c -1.21172,0.04531 -2.38828,0.08437 -3.4,0.149219 l -0.3039,0.01172 c -1.10782,0.05313 -2.3,0.1375 -3.2961,0.206251 l -0.52734,0.03125 c -1.08047,0.07656 -2.29609,0.192187 -3.30391,0.286718 -0.2039,0.01172 -0.48828,0.04297 -0.61562,0.05703 -1.18828,0.107812 -2.25313,0.229687 -3.37266,0.357031 -0.12734,0.01563 -0.27656,0.03516 -0.43906,0.05703 -1.14297,0.141406 -2.22578,0.264844 -3.29219,0.4375 -0.11562,0.01172 -0.23125,0.02734 -0.45859,0.06094 -1.22735,0.188281 -2.21016,0.333593 -3.22578,0.507812 -0.1961,0.02734 -0.41172,0.06875 -0.54688,0.09609 -1.09609,0.180469 -2.28828,0.403906 -3.28828,0.603906 -0.1,0.02344 -0.28437,0.05703 -0.42344,0.08047 -1.19609,0.235156 -2.28437,0.46875 -3.39218,0.715625 l -0.13516,0.03125 c -1.2,0.264844 -2.25703,0.523437 -3.38828,0.796094 -0.20781,0.04687 -0.3,0.07656 -0.49609,0.13125 -1.10001,0.264843 -2.24297,0.574218 -3.34297,0.874218 -0.2,0.05469 -0.26094,0.07266 -0.46094,0.127344 -2.30391,0.627344 -4.47657,1.315625 -6.74141,2.025 -0.1039,0.03125 -0.3,0.09609 -0.43125,0.135156 -1.1039,0.360938 -2.16093,0.703907 -3.22187,1.074219 -0.18828,0.07031 -0.28047,0.09609 -0.51563,0.176563 C 462.16484,29.517969 461.1,29.9 460,30.3 c 17.4,58 -16.6,114.6 -59.1,153.3 -32.2,29.4 -49.57656,52.68281 -49.07656,80.58281 0.5,1.4 1.10781,2.85078 1.70781,4.35078 l 0.0742,0.17422 c 0.51562,1.36094 1.09844,2.67266 1.71562,4.05313 0,0 0.0273,0.0727 0.057,0.12344 0.6,1.4 1.17266,2.63359 1.82344,4.01015 0,0 0.0664,0.13516 0.11953,0.225 0.65078,1.3961 1.20689,2.54268 1.86719,3.86328 l 0.0625,0.125 c 0.5,1 1.00391,1.9961 1.49609,2.88828 0.18829,0.33026 0.24532,0.52083 0.42969,0.81563 0.36094,0.71562 0.73906,1.41172 1.14141,2.13125 0.18047,0.33516 0.36875,0.63125 0.52344,0.91953 0.37265,0.62734 0.75989,1.33903 1.11562,1.94922 0.26055,0.44691 0.34141,0.61172 0.51953,0.90391 0.36875,0.62734 0.80547,1.35468 1.15703,1.95468 0.19219,0.30782 0.31016,0.51953 0.52344,0.86485 0.36484,0.6 0.83125,1.37265 1.25703,2.02343 0.18047,0.2961 0.3375,0.54688 0.5,0.80782 0.45703,0.70781 0.87266,1.37265 1.36094,2.09218 0.14531,0.24297 0.31953,0.4961 0.45312,0.69766 0.53516,0.80391 0.97266,1.44531 1.5,2.24531 0.0883,0.11172 0.22735,0.33125 0.2961,0.44297 4.00469,5.80313 7.75188,10.58599 10.15469,13.34922 l 0.0781,0.0898 c 0.0693,0.0796 1.71313,2.04659 2.08672,2.47266 l 0.13906,0.15859 2.06875,2.34532 0.10391,0.1 c 0.7,0.8 1.41207,1.53866 2.17656,2.37265 l 0.0859,0.0937 C 411.14729,347.62219 468.2,379.9 520.2,379.9 c 52,0 98.9,-22.1 131.7,-57.3 v -0.1 c 0.7,-0.8 1.4,-1.6 2.2,-2.4 l 0.1,-0.1 2.1,-2.4 0.1,-0.1 c 0.7,-0.8 1.4,-1.6 2.1,-2.5 v 0 c 3.6,-4.3 7,-8.8 10.1,-13.4 0.1,-0.1 0.2,-0.3 0.3,-0.4 0.5,-0.7 1,-1.5 1.5,-2.3 0.2,-0.2 0.3,-0.5 0.5,-0.6 0.5,-0.7 0.9,-1.4 1.4,-2.1 0.2,-0.3 0.4,-0.5 0.5,-0.8 0.5,-0.6 0.8,-1.4 1.3,-2 0.2,-0.3 0.4,-0.5 0.5,-0.9 0.4,-0.6 0.8,-1.3 1.2,-2 0.2,-0.3 0.4,-0.6 0.5,-0.9 0.4,-0.6 0.7,-1.3 1.1,-2 0.2,-0.3 0.4,-0.6 0.5,-0.9 0.4,-0.7 0.7,-1.4 1.2,-2.1 0.2,-0.3 0.3,-0.5 0.5,-0.8 0.5,-1 1,-1.9 1.5,-2.9 v 0 c 0.6,-1.4 1.4,-2.7 2,-4.1 v -0.1 c 0.6,-1.4 1.3,-2.7 1.9,-4.1 0,0 0,-0.1 0.1,-0.1 0.6,-1.4 1.2,-2.7 1.7,-4.2 v -0.1 c 0.5,-1.4 1.2,-2.8 1.7,-4.3 0.1,-27.4 -17.3,-51 -49.5,-80.3 z"
      style="display:inline" fill="#4A668D" />
	<path
      d="m 649,324.6 c -16.7,-16.7 -36.3,-29.9 -58,-39.1 -22.5,-9.5 -46.4,-14.4 -71,-14.4 -20.9,0 -41.4,3.5 -61,10.4 -18.9,6.7 -36.5,16.4 -52.2,28.9 -5.7,4.5 -11.1,9.4 -16.3,14.6 1.8,1.9 3.7,3.8 5.6,5.6 1.4,1.4 3,2.8 4.5,4.2 v 0 c 31.8,28.1 73.6,45.2 119.4,45.2 26.8,0 52.2,-5.9 75,-16.3 16.2,-7.4 31.1,-17.2 44.3,-28.9 1.5,-1.4 3,-2.7 4.5,-4.2 1.9,-1.8 3.8,-3.7 5.6,-5.6 -0.1,0 -0.2,-0.2 -0.4,-0.4 z"
      fill="#D7A64B"
      />
	<path
      d="m 520,285.3 c -39.4,0 -75.7,13.6 -104.4,36.3 -5.2,4.2 -10.1,8.6 -14.8,13.2 v 0 c 31.7,28.1 73.5,45.2 119.3,45.2 26.8,0 52.2,-5.9 75,-16.3 16.2,-7.4 31.1,-17.2 44.3,-28.9 C 608.8,304.2 566.6,285.3 520,285.3 Z"
      fill="#E06236" />
	<path
      d="m 595,363.7 c -24,-35.4 -64.5,-58.6 -110.4,-58.6 -31.2,0 -59.9,10.8 -82.6,28.7 -0.5,0.4 -0.8,0.7 -1.3,1 31.7,28.1 73.5,45.2 119.3,45.2 26.8,0 52.2,-5.9 75,-16.3 z"
      fill="#C72138" />
	<path
      d="m 543.1,104.4 -3.4,-1.1 c -8.1,-2.6 -14.6,-9 -17.1,-17.1 l -1.1,-3.4 c -0.2,-0.6 -0.8,-1.1 -1.4,-1.1 -0.6,0 -1.3,0.5 -1.4,1.1 l -1.1,3.4 c -2.6,8.1 -9,14.6 -17.1,17.1 l -3.4,1.1 c -0.6,0.2 -1.1,0.8 -1.1,1.4 0,0.6 0.5,1.3 1.1,1.4 l 3.4,1.1 c 3.3,1 6.2,2.7 9,4.9 3.9,3.3 6.7,7.4 8.2,12.2 l 1.1,3.4 c 0.2,0.6 0.8,1.1 1.4,1.1 v 0 c 0.6,0 1.3,-0.5 1.4,-1.1 l 1.1,-3.4 c 1.5,-4.8 4.4,-9 8.3,-12.3 2.6,-2.2 5.6,-3.8 8.9,-4.8 l 3.4,-1.1 c 0.6,-0.2 1.1,-0.8 1.1,-1.4 -0.2,-0.7 -0.7,-1.2 -1.3,-1.4 z"
      fill="#F4F5F7" />
	<path
      d="m 537.4,190.1 -2.6,-0.8 c -6.1,-1.9 -10.9,-6.7 -12.8,-12.8 l -0.8,-2.6 c -0.2,-0.5 -0.5,-0.8 -1.1,-0.8 -0.5,0 -0.9,0.4 -1.1,0.8 l -0.8,2.6 c -1.9,6.1 -6.7,10.9 -12.8,12.8 l -2.6,0.8 c -0.5,0.2 -0.8,0.5 -0.8,1.1 0,0.6 0.4,0.9 0.8,1.1 l 2.6,0.8 c 2.4,0.8 4.7,2 6.7,3.7 2.9,2.4 5,5.6 6.2,9.1 l 0.8,2.6 c 0.2,0.5 0.5,0.8 1.1,0.8 v 0 c 0.5,0 0.9,-0.4 1.1,-0.8 l 0.8,-2.6 c 1.2,-3.6 3.3,-6.8 6.2,-9.2 2,-1.6 4.2,-2.9 6.6,-3.6 l 2.6,-0.8 c 0.5,-0.2 0.8,-0.5 0.8,-1.1 -0.2,-0.6 -0.5,-1.1 -0.9,-1.1 z"
      fill="#F4F5F7" />
	<g>
		<path
         d="m 435,238.5 -1.9,-0.6 c -4.4,-1.4 -8,-5 -9.4,-9.4 l -0.6,-1.9 c -0.1,-0.4 -0.5,-0.5 -0.8,-0.5 -0.4,0 -0.7,0.3 -0.8,0.5 l -0.6,1.9 c -1.4,4.4 -5,8 -9.4,9.4 l -1.9,0.6 c -0.4,0.1 -0.5,0.5 -0.5,0.8 0,0.4 0.3,0.7 0.5,0.8 l 1.9,0.6 c 1.8,0.5 3.4,1.4 4.9,2.7 2.1,1.8 3.7,4.1 4.5,6.7 l 0.6,1.9 c 0.1,0.4 0.5,0.5 0.8,0.5 v 0 c 0.4,0 0.7,-0.3 0.8,-0.5 l 0.6,-1.9 c 0.8,-2.6 2.4,-5 4.5,-6.8 1.4,-1.2 3.1,-2.1 4.9,-2.6 l 1.9,-0.6 c 0.4,-0.1 0.5,-0.5 0.5,-0.8 0,-0.4 -0.3,-0.7 -0.5,-0.8 z"
         fill="#F4F5F7" />
		<path
         d="m 630.4,238.5 -1.9,-0.6 c -4.4,-1.4 -8,-5 -9.4,-9.4 l -0.6,-1.9 c -0.1,-0.4 -0.5,-0.5 -0.8,-0.5 -0.4,0 -0.7,0.3 -0.8,0.5 l -0.6,1.9 c -1.4,4.4 -5,8 -9.4,9.4 l -1.9,0.6 c -0.4,0.1 -0.5,0.5 -0.5,0.8 0,0.4 0.3,0.7 0.5,0.8 l 1.9,0.6 c 1.8,0.5 3.4,1.4 4.9,2.7 2.1,1.8 3.7,4.1 4.5,6.7 l 0.6,1.9 c 0.1,0.4 0.5,0.5 0.8,0.5 v 0 c 0.4,0 0.7,-0.3 0.8,-0.5 l 0.6,-1.9 c 0.8,-2.6 2.4,-5 4.5,-6.8 1.4,-1.2 3.1,-2.1 4.9,-2.6 l 1.9,-0.6 c 0.4,-0.1 0.5,-0.5 0.5,-0.8 0.2,-0.4 -0.1,-0.7 -0.5,-0.8 z"
         fill="#F4F5F7" />
	</g>
	<g>
		<path
         d="m 472.9,166.1 -1.2,-0.4 c -2.8,-0.9 -5.1,-3.2 -6,-6 l -0.4,-1.2 c -0.1,-0.2 -0.3,-0.4 -0.5,-0.4 -0.2,0 -0.5,0.2 -0.5,0.4 l -0.4,1.2 c -0.9,2.8 -3.2,5.1 -6,6 l -1.2,0.4 c -0.2,0.1 -0.4,0.3 -0.4,0.5 0,0.2 0.2,0.5 0.4,0.5 l 1.2,0.4 c 1.2,0.4 2.2,0.9 3.2,1.7 1.4,1.1 2.4,2.6 2.9,4.3 l 0.4,1.2 c 0.1,0.2 0.3,0.4 0.5,0.4 v 0 c 0.3,0 0.5,-0.2 0.5,-0.4 l 0.4,-1.2 c 0.5,-1.7 1.5,-3.2 2.9,-4.3 0.9,-0.7 2,-1.4 3.1,-1.7 l 1.2,-0.4 c 0.2,-0.1 0.4,-0.3 0.4,-0.5 -0.2,-0.2 -0.3,-0.4 -0.5,-0.5 z"
         fill="#F4F5F7" />
		<path
         d="m 583.3,166.1 -1.2,-0.4 c -2.8,-0.9 -5.1,-3.2 -6,-6 l -0.4,-1.2 c -0.1,-0.2 -0.3,-0.4 -0.5,-0.4 -0.2,0 -0.5,0.2 -0.5,0.4 l -0.4,1.2 c -0.9,2.8 -3.2,5.1 -6,6 l -1.2,0.4 c -0.2,0.1 -0.4,0.3 -0.4,0.5 0,0.2 0.2,0.5 0.4,0.5 l 1.2,0.4 c 1.2,0.4 2.2,0.9 3.2,1.7 1.4,1.1 2.4,2.6 2.9,4.3 l 0.4,1.2 c 0.1,0.2 0.3,0.4 0.5,0.4 v 0 c 0.3,0 0.5,-0.2 0.5,-0.4 l 0.4,-1.2 c 0.5,-1.7 1.5,-3.2 2.9,-4.3 0.9,-0.7 2,-1.4 3.1,-1.7 l 1.2,-0.4 c 0.2,-0.1 0.4,-0.3 0.4,-0.5 -0.1,-0.2 -0.3,-0.4 -0.5,-0.5 z"
         fill="#F4F5F7" />
	</g>
	<g>
		<path
         d="m 493.2,238.8 -1.2,-0.4 c -2.8,-0.9 -5.1,-3.2 -6,-6 l -0.4,-1.2 c -0.1,-0.2 -0.3,-0.4 -0.5,-0.4 -0.3,0 -0.5,0.2 -0.5,0.4 l -0.4,1.2 c -0.9,2.8 -3.2,5.1 -6,6 l -1.2,0.4 c -0.2,0.1 -0.4,0.3 -0.4,0.5 0,0.3 0.2,0.5 0.4,0.5 l 1.2,0.4 c 1.2,0.4 2.2,0.9 3.2,1.7 1.4,1.1 2.4,2.6 2.9,4.3 l 0.4,1.2 c 0.1,0.2 0.3,0.4 0.5,0.4 v 0 c 0.3,0 0.5,-0.2 0.5,-0.4 l 0.4,-1.2 c 0.5,-1.7 1.5,-3.2 2.9,-4.3 0.9,-0.7 2,-1.4 3.1,-1.7 l 1.2,-0.4 c 0.2,-0.1 0.4,-0.3 0.4,-0.5 -0.1,-0.2 -0.3,-0.4 -0.5,-0.5 z"
         fill="#F4F5F7" />
		<path
         d="m 563,238.8 -1.2,-0.4 c -2.8,-0.9 -5.1,-3.2 -6,-6 l -0.4,-1.2 c -0.1,-0.2 -0.3,-0.4 -0.5,-0.4 -0.2,0 -0.5,0.2 -0.5,0.4 l -0.4,1.2 c -0.9,2.8 -3.2,5.1 -6,6 l -1.2,0.4 c -0.2,0.1 -0.4,0.3 -0.4,0.5 0,0.3 0.2,0.5 0.4,0.5 l 1.2,0.4 c 1.2,0.4 2.2,0.9 3.2,1.7 1.4,1.1 2.4,2.6 2.9,4.3 l 0.4,1.2 c 0.1,0.2 0.3,0.4 0.5,0.4 v 0 c 0.3,0 0.5,-0.2 0.5,-0.4 l 0.4,-1.2 c 0.5,-1.7 1.5,-3.2 2.9,-4.3 0.9,-0.7 2,-1.4 3.1,-1.7 l 1.2,-0.4 c 0.2,-0.1 0.4,-0.3 0.4,-0.5 -0.2,-0.2 -0.4,-0.4 -0.5,-0.5 z"
         fill="#F4F5F7" />
	</g>
</g>
</svg>
